<svg xmlns="http://www.w3.org/2000/svg" xmlns:xlink="http://www.w3.org/1999/xlink" width="1080" zoomAndPan="magnify" viewBox="0 0 810 809.999993" height="1080" preserveAspectRatio="xMidYMid meet" version="1.0"><path fill="#002257" d="M 767.023438 69.4375 C 766.121094 69.324219 765.15625 69.289062 764.242188 69.109375 C 757.996094 67.820312 753.921875 61.996094 755.347656 56.402344 C 755.542969 55.640625 755.8125 54.90625 756.160156 54.199219 C 756.507812 53.492188 756.921875 52.828125 757.402344 52.203125 C 757.882812 51.582031 758.421875 51.011719 759.019531 50.5 C 759.617188 49.984375 760.261719 49.539062 760.949219 49.15625 C 761.636719 48.773438 762.359375 48.464844 763.109375 48.226562 C 763.859375 47.992188 764.628906 47.835938 765.410156 47.753906 C 766.195312 47.675781 766.976562 47.675781 767.761719 47.753906 C 768.546875 47.832031 769.3125 47.992188 770.0625 48.226562 C 770.957031 48.535156 771.824219 48.90625 772.664062 49.339844 C 777.570312 51.839844 779.351562 55.046875 778.617188 59.804688 C 778.421875 60.945312 778.0625 62.03125 777.539062 63.058594 C 777.015625 64.089844 776.347656 65.019531 775.542969 65.847656 C 774.738281 66.679688 773.828125 67.371094 772.8125 67.921875 C 771.796875 68.476562 770.722656 68.867188 769.589844 69.09375 C 768.707031 69.308594 767.871094 69.339844 767.023438 69.4375 Z M 765.386719 682.800781 C 764.796875 682.777344 764.214844 682.710938 763.636719 682.597656 C 763.058594 682.480469 762.492188 682.324219 761.9375 682.121094 C 761.382812 681.914062 760.851562 681.667969 760.335938 681.382812 C 759.820312 681.09375 759.332031 680.765625 758.871094 680.402344 C 758.40625 680.039062 757.976562 679.636719 757.574219 679.203125 C 757.175781 678.773438 756.8125 678.308594 756.484375 677.820312 C 756.160156 677.328125 755.871094 676.816406 755.625 676.28125 C 755.378906 675.742188 755.175781 675.191406 755.019531 674.625 C 754.882812 674.050781 754.792969 673.46875 754.75 672.878906 C 754.707031 672.289062 754.710938 671.699219 754.761719 671.113281 C 754.816406 670.523438 754.914062 669.945312 755.058594 669.371094 C 755.203125 668.796875 755.394531 668.242188 755.628906 667.699219 C 755.863281 667.15625 756.140625 666.636719 756.460938 666.140625 C 756.777344 665.644531 757.136719 665.175781 757.53125 664.734375 C 757.921875 664.296875 758.351562 663.890625 758.808594 663.519531 C 759.269531 663.148438 759.753906 662.816406 760.269531 662.523438 C 761.066406 662.046875 761.914062 661.707031 762.816406 661.496094 C 763.71875 661.285156 764.632812 661.21875 765.558594 661.289062 C 766.480469 661.363281 767.375 661.574219 768.230469 661.925781 C 769.089844 662.273438 769.875 662.746094 770.585938 663.339844 C 771.449219 663.933594 772.203125 664.640625 772.851562 665.460938 C 773.5 666.277344 774.015625 667.175781 774.398438 668.148438 C 774.78125 669.121094 775.011719 670.128906 775.09375 671.171875 C 775.171875 672.210938 775.097656 673.242188 774.871094 674.265625 C 773.695312 680.117188 770.585938 682.851562 765.371094 682.800781 Z M 733.351562 177.863281 C 733.398438 180.214844 733.058594 182.515625 732.339844 184.753906 C 731.621094 186.996094 730.554688 189.058594 729.148438 190.945312 C 724.601562 196.769531 717.992188 197.488281 711.453125 194.21875 C 701.050781 188.835938 698.875 175.410156 702.898438 167.199219 C 705.664062 161.589844 709.898438 157.863281 716.308594 157.601562 C 722.71875 157.339844 727.054688 160.644531 730.195312 165.875 C 732.316406 169.589844 733.371094 173.585938 733.351562 177.863281 Z M 698.007812 435.910156 C 698.007812 426.015625 706.316406 419.457031 715.328125 422.121094 C 716.140625 422.398438 716.921875 422.742188 717.671875 423.152344 C 718.425781 423.5625 719.136719 424.035156 719.808594 424.566406 C 720.480469 425.097656 721.105469 425.683594 721.675781 426.320312 C 722.25 426.957031 722.765625 427.640625 723.21875 428.367188 C 723.675781 429.089844 724.070312 429.847656 724.394531 430.640625 C 724.722656 431.433594 724.980469 432.246094 725.167969 433.082031 C 725.359375 433.917969 725.476562 434.765625 725.519531 435.621094 C 725.5625 436.476562 725.535156 437.332031 725.433594 438.183594 C 724.273438 445.867188 718.289062 451.511719 711.15625 451.476562 C 710.238281 451.488281 709.328125 451.390625 708.425781 451.183594 C 707.527344 450.980469 706.667969 450.671875 705.839844 450.265625 C 705.011719 449.859375 704.246094 449.359375 703.535156 448.773438 C 702.824219 448.183594 702.195312 447.519531 701.640625 446.785156 C 700.414062 445.242188 699.488281 443.535156 698.863281 441.667969 C 698.238281 439.796875 697.953125 437.878906 698.007812 435.910156 Z M 683.09375 765.273438 C 683.09375 769.738281 680.984375 772.238281 676.554688 773.875 C 675.792969 774.203125 675.003906 774.4375 674.1875 774.585938 C 673.371094 774.730469 672.550781 774.785156 671.722656 774.742188 C 670.894531 774.699219 670.082031 774.5625 669.285156 774.332031 C 668.488281 774.105469 667.726562 773.789062 667.003906 773.382812 C 666.457031 773.113281 665.941406 772.792969 665.457031 772.429688 C 664.96875 772.0625 664.519531 771.65625 664.109375 771.207031 C 663.695312 770.761719 663.328125 770.277344 663.003906 769.761719 C 662.683594 769.246094 662.40625 768.707031 662.183594 768.140625 C 661.960938 767.574219 661.789062 766.996094 661.671875 766.398438 C 661.550781 765.800781 661.488281 765.199219 661.480469 764.589844 C 661.472656 763.980469 661.523438 763.375 661.625 762.777344 C 661.730469 762.175781 661.886719 761.589844 662.097656 761.019531 C 662.347656 760.4375 662.648438 759.878906 662.996094 759.347656 C 663.34375 758.816406 663.734375 758.316406 664.167969 757.855469 C 664.605469 757.390625 665.074219 756.96875 665.582031 756.585938 C 666.089844 756.203125 666.628906 755.867188 667.195312 755.578125 C 667.761719 755.289062 668.347656 755.050781 668.953125 754.863281 C 669.5625 754.675781 670.179688 754.542969 670.8125 754.464844 C 671.441406 754.382812 672.074219 754.359375 672.707031 754.390625 C 673.34375 754.417969 673.972656 754.503906 674.589844 754.644531 C 675.179688 754.796875 675.75 755 676.308594 755.246094 C 676.863281 755.496094 677.398438 755.785156 677.90625 756.117188 C 678.417969 756.449219 678.898438 756.820312 679.347656 757.230469 C 679.800781 757.640625 680.214844 758.082031 680.59375 758.554688 C 680.976562 759.03125 681.316406 759.535156 681.617188 760.0625 C 681.914062 760.59375 682.171875 761.144531 682.382812 761.714844 C 682.597656 762.285156 682.761719 762.867188 682.882812 763.464844 C 683 764.0625 683.070312 764.664062 683.09375 765.273438 Z M 611.957031 466.554688 C 612.070312 454.796875 622.863281 445.015625 635.605469 451.835938 C 636.683594 452.410156 637.691406 453.085938 638.628906 453.867188 C 639.566406 454.648438 640.414062 455.515625 641.171875 456.472656 C 641.929688 457.429688 642.578125 458.453125 643.125 459.546875 C 643.667969 460.640625 644.09375 461.777344 644.402344 462.957031 C 644.578125 463.523438 644.726562 464.09375 644.84375 464.675781 C 644.964844 465.257812 645.050781 465.839844 645.105469 466.429688 C 645.164062 467.019531 645.1875 467.609375 645.183594 468.203125 C 645.179688 468.796875 645.144531 469.386719 645.078125 469.972656 C 645.011719 470.5625 644.914062 471.144531 644.785156 471.722656 C 644.65625 472.304688 644.5 472.871094 644.3125 473.433594 C 644.125 473.996094 643.910156 474.546875 643.664062 475.085938 C 643.417969 475.625 643.148438 476.152344 642.847656 476.660156 C 642.546875 477.171875 642.222656 477.667969 641.871094 478.144531 C 641.519531 478.621094 641.144531 479.078125 640.746094 479.515625 C 640.347656 479.953125 639.925781 480.367188 639.484375 480.761719 C 639.042969 481.15625 638.582031 481.527344 638.097656 481.871094 C 637.617188 482.21875 637.121094 482.535156 636.605469 482.828125 C 636.09375 483.125 635.5625 483.390625 635.019531 483.628906 C 634.480469 483.867188 633.925781 484.074219 633.363281 484.257812 C 632.796875 484.4375 632.226562 484.585938 631.644531 484.707031 C 630.417969 484.941406 629.183594 485.027344 627.933594 484.964844 C 626.6875 484.898438 625.464844 484.6875 624.269531 484.324219 C 623.074219 483.964844 621.9375 483.46875 620.863281 482.832031 C 619.785156 482.199219 618.800781 481.445312 617.910156 480.570312 C 616.957031 479.671875 616.109375 478.683594 615.363281 477.609375 C 614.617188 476.535156 613.992188 475.390625 613.484375 474.183594 C 612.976562 472.980469 612.601562 471.734375 612.355469 470.445312 C 612.105469 469.160156 611.996094 467.863281 612.023438 466.554688 Z M 737.0625 710.242188 L 737.0625 706.070312 C 737.0625 678.828125 737.242188 651.582031 737.175781 624.304688 C 736.980469 544.824219 738.910156 465.34375 737.175781 385.867188 C 737.175781 384.378906 737.175781 382.90625 737.175781 381.449219 C 735.984375 381.449219 735.820312 382.136719 735.542969 382.59375 C 732.054688 387.855469 727.976562 392.609375 723.308594 396.855469 C 718.535156 401.304688 713.496094 405.34375 708.296875 409.367188 C 701.507812 414.699219 694.691406 420.046875 688.410156 426 C 680.921875 432.839844 674.597656 440.632812 669.441406 449.367188 C 666.449219 454.398438 664.320312 459.765625 663.046875 465.476562 C 660.902344 476.089844 662.949219 485.574219 671.222656 492.964844 C 671.976562 493.683594 672.78125 494.34375 673.636719 494.941406 C 674.488281 495.542969 675.382812 496.074219 676.3125 496.539062 C 677.246094 497.003906 678.207031 497.398438 679.199219 497.722656 C 680.191406 498.046875 681.203125 498.292969 682.230469 498.464844 C 683.257812 498.636719 684.292969 498.734375 685.335938 498.75 C 686.378906 498.769531 687.414062 498.710938 688.449219 498.574219 C 689.484375 498.4375 690.5 498.226562 691.503906 497.9375 C 692.503906 497.652344 693.480469 497.292969 694.429688 496.859375 C 702.605469 493.507812 706.21875 486.605469 707.070312 478.148438 C 707.253906 476.597656 707.152344 475.0625 706.765625 473.546875 C 706.375 472.03125 705.726562 470.640625 704.8125 469.367188 C 704.34375 468.664062 703.730469 468.125 702.972656 467.75 C 702.214844 467.375 701.414062 467.21875 700.566406 467.273438 C 699.722656 467.328125 698.949219 467.589844 698.25 468.0625 C 697.546875 468.535156 697.007812 469.148438 696.636719 469.90625 C 696.035156 471.070312 695.5625 472.277344 695.214844 473.539062 C 694.542969 475.8125 694.019531 478.117188 693.285156 480.375 C 692.742188 482.007812 692.238281 484.265625 690.191406 484.183594 C 688.148438 484.101562 687.574219 481.945312 687.085938 480.242188 C 685.757812 475.882812 685.359375 471.441406 685.890625 466.914062 C 686.011719 465.757812 686.277344 464.636719 686.6875 463.550781 C 687.097656 462.464844 687.644531 461.445312 688.320312 460.5 C 688.996094 459.558594 689.785156 458.714844 690.679688 457.976562 C 691.578125 457.234375 692.554688 456.621094 693.609375 456.136719 C 694.441406 455.703125 695.300781 455.34375 696.195312 455.058594 C 697.085938 454.773438 697.996094 454.566406 698.925781 454.4375 C 699.851562 454.308594 700.785156 454.261719 701.722656 454.296875 C 702.65625 454.328125 703.582031 454.441406 704.5 454.636719 C 705.417969 454.828125 706.308594 455.097656 707.179688 455.445312 C 708.050781 455.792969 708.882812 456.214844 709.679688 456.707031 C 710.476562 457.199219 711.226562 457.753906 711.929688 458.375 C 712.628906 458.996094 713.273438 459.675781 713.855469 460.40625 C 715.6875 462.621094 717.082031 465.089844 718.03125 467.804688 C 718.980469 470.515625 719.433594 473.3125 719.382812 476.1875 C 719.464844 495.566406 703.40625 515.4375 677.535156 510.023438 C 676.40625 509.777344 675.34375 509.074219 674.066406 509.402344 C 673.8125 510.804688 673.8125 512.203125 674.066406 513.605469 C 674.078125 514.273438 674.058594 514.941406 674.007812 515.609375 C 673.957031 516.273438 673.875 516.9375 673.761719 517.597656 C 673.648438 518.257812 673.503906 518.910156 673.332031 519.554688 C 673.15625 520.199219 672.953125 520.835938 672.71875 521.460938 C 672.484375 522.089844 672.21875 522.703125 671.929688 523.304688 C 671.636719 523.90625 671.316406 524.492188 670.96875 525.0625 C 670.621094 525.636719 670.25 526.191406 669.851562 526.726562 C 669.449219 527.261719 669.027344 527.78125 668.578125 528.277344 C 668.132812 528.773438 667.664062 529.246094 667.171875 529.699219 C 666.679688 530.152344 666.164062 530.582031 665.632812 530.988281 C 665.101562 531.390625 664.550781 531.769531 663.980469 532.121094 C 663.414062 532.476562 662.832031 532.800781 662.230469 533.097656 C 661.632812 533.398438 661.023438 533.667969 660.398438 533.90625 C 659.773438 534.148438 659.140625 534.359375 658.496094 534.539062 C 657.851562 534.71875 657.203125 534.871094 656.542969 534.992188 C 655.886719 535.109375 655.222656 535.199219 654.558594 535.257812 C 646.691406 536.027344 639.496094 531.316406 637.957031 524.367188 C 637.632812 523.144531 637.578125 521.910156 637.792969 520.667969 C 638.007812 519.421875 638.472656 518.277344 639.183594 517.234375 C 639.742188 516.449219 640.527344 515.683594 641.539062 515.925781 C 642.554688 516.171875 642.359375 517.203125 642.488281 518.019531 C 642.511719 518.324219 642.550781 518.625 642.605469 518.921875 C 642.664062 519.21875 642.738281 519.511719 642.828125 519.800781 C 642.917969 520.09375 643.023438 520.375 643.144531 520.652344 C 643.265625 520.929688 643.40625 521.199219 643.558594 521.460938 C 643.710938 521.722656 643.878906 521.976562 644.058594 522.21875 C 644.242188 522.460938 644.433594 522.695312 644.644531 522.914062 C 644.851562 523.136719 645.070312 523.34375 645.300781 523.539062 C 645.535156 523.734375 645.777344 523.917969 646.027344 524.085938 C 646.28125 524.253906 646.542969 524.40625 646.8125 524.546875 C 647.082031 524.683594 647.359375 524.808594 647.640625 524.914062 C 647.925781 525.019531 648.214844 525.113281 648.507812 525.1875 C 648.800781 525.261719 649.097656 525.316406 649.398438 525.359375 C 649.699219 525.398438 650.003906 525.421875 650.304688 525.425781 C 650.609375 525.433594 650.910156 525.421875 651.214844 525.394531 C 651.515625 525.363281 651.8125 525.320312 652.109375 525.257812 C 652.40625 525.195312 652.699219 525.117188 652.988281 525.019531 C 653.386719 524.933594 653.78125 524.828125 654.167969 524.695312 C 654.554688 524.5625 654.933594 524.410156 655.300781 524.234375 C 655.671875 524.058594 656.027344 523.863281 656.375 523.644531 C 656.71875 523.429688 657.050781 523.191406 657.371094 522.933594 C 657.6875 522.679688 657.992188 522.40625 658.277344 522.113281 C 658.5625 521.820312 658.832031 521.515625 659.082031 521.191406 C 659.332031 520.867188 659.5625 520.53125 659.773438 520.183594 C 659.984375 519.832031 660.175781 519.472656 660.34375 519.097656 C 660.515625 518.726562 660.660156 518.347656 660.785156 517.957031 C 660.910156 517.566406 661.011719 517.171875 661.089844 516.773438 C 661.167969 516.371094 661.222656 515.964844 661.25 515.558594 C 661.28125 515.152344 661.289062 514.742188 661.273438 514.335938 C 661.253906 513.925781 661.214844 513.519531 661.152344 513.117188 C 661.085938 512.714844 661 512.316406 660.886719 511.921875 C 660.777344 511.527344 660.644531 511.144531 660.488281 510.765625 C 660.332031 510.386719 660.152344 510.019531 659.953125 509.664062 C 659.355469 508.402344 658.605469 507.242188 657.699219 506.179688 C 656.796875 505.117188 655.769531 504.1875 654.621094 503.394531 C 653.472656 502.601562 652.242188 501.96875 650.929688 501.5 C 649.613281 501.027344 648.261719 500.734375 646.871094 500.621094 C 644.007812 500.339844 641.1875 500.574219 638.40625 501.320312 C 635.628906 502.066406 633.070312 503.277344 630.730469 504.953125 C 628.175781 506.585938 625.800781 508.453125 623.609375 510.546875 C 621.417969 512.644531 619.449219 514.929688 617.703125 517.410156 C 615.957031 519.886719 614.464844 522.511719 613.226562 525.28125 C 611.992188 528.050781 611.03125 530.910156 610.355469 533.867188 C 606.96875 548.308594 613.003906 559.65625 626.707031 565.382812 C 631.246094 567.195312 635.953125 568.328125 640.820312 568.78125 C 644.304688 569.191406 644.335938 569.125 645.433594 565.675781 C 646.753906 561.464844 648.660156 557.539062 651.15625 553.902344 C 652.441406 551.96875 653.910156 550.1875 655.558594 548.558594 C 657.207031 546.925781 659.003906 545.476562 660.949219 544.210938 C 662.894531 542.945312 664.945312 541.890625 667.105469 541.042969 C 669.265625 540.195312 671.488281 539.574219 673.773438 539.183594 C 678.980469 538.160156 684.148438 538.324219 689.277344 539.671875 C 706.316406 544.269531 715.6875 556.453125 721.886719 572.921875 C 720.726562 572.085938 720.25 571.726562 719.660156 571.285156 C 713.121094 566.378906 706.152344 566.527344 699.757812 571.59375 C 697.789062 573.175781 696.117188 575.023438 694.746094 577.144531 C 693.378906 579.265625 692.375 581.546875 691.746094 583.992188 C 690.742188 588.265625 690.117188 592.59375 689.882812 596.976562 C 688.238281 610.257812 688.785156 623.449219 691.515625 636.550781 C 696.226562 657.976562 705.222656 677.566406 716.652344 696.144531 C 717.023438 696.648438 717.421875 697.128906 717.847656 697.585938 C 717.667969 696.160156 717.230469 694.820312 716.539062 693.5625 C 712.484375 684.355469 708.6875 675.03125 705.5 665.480469 C 701.117188 652.316406 697.324219 638.988281 696.292969 625.070312 C 695.625 618.277344 696.214844 611.59375 698.058594 605.023438 C 698.597656 603.007812 699.394531 601.101562 700.449219 599.304688 C 701.503906 597.503906 702.777344 595.878906 704.273438 594.425781 C 704.792969 593.878906 705.367188 593.402344 706 592.992188 C 706.632812 592.585938 707.304688 592.257812 708.015625 592.011719 C 708.726562 591.765625 709.457031 591.609375 710.207031 591.539062 C 710.957031 591.46875 711.703125 591.488281 712.449219 591.597656 C 712.84375 591.625 713.234375 591.695312 713.613281 591.808594 C 713.992188 591.921875 714.355469 592.078125 714.703125 592.269531 C 715.050781 592.460938 715.371094 592.691406 715.667969 592.953125 C 715.964844 593.214844 716.230469 593.507812 716.464844 593.828125 C 716.699219 594.148438 716.894531 594.492188 717.054688 594.855469 C 717.210938 595.21875 717.328125 595.59375 717.40625 595.984375 C 717.484375 596.371094 717.519531 596.765625 717.507812 597.160156 C 717.5 597.558594 717.449219 597.949219 717.355469 598.332031 C 713.085938 596.519531 711.582031 597.058594 709.179688 601.359375 C 708 603.566406 707.179688 605.898438 706.726562 608.359375 C 705.757812 614.003906 705.640625 619.667969 706.382812 625.351562 C 707.539062 634.542969 709.589844 643.53125 712.53125 652.316406 C 718.746094 672.136719 727.953125 690.75 736.210938 709.734375 C 736.148438 709.816406 736.308594 709.914062 737.0625 710.242188 Z M 678.1875 683.390625 C 676.398438 683.375 674.660156 683.066406 672.972656 682.472656 C 671.023438 681.960938 669.125 681.296875 667.28125 680.476562 C 634.574219 664.648438 610.535156 640.773438 597.484375 606.476562 C 596.285156 603.5 595.410156 600.433594 594.867188 597.269531 C 594.507812 594.980469 595.257812 594.195312 597.546875 594.621094 C 601.167969 595.324219 604.683594 596.371094 608.097656 597.761719 C 634.964844 608.179688 655.621094 626.101562 671.289062 650.09375 C 675.273438 655.957031 678.667969 662.152344 681.460938 668.671875 C 682.5625 671.300781 683.3125 674.027344 683.714844 676.847656 C 684.207031 680.839844 682.03125 683.339844 678.1875 683.390625 Z M 522.058594 516.828125 C 524.300781 516.957031 526.480469 517.394531 528.601562 518.136719 C 532.507812 519.347656 536.296875 520.859375 539.964844 522.667969 C 543.636719 524.476562 547.140625 526.5625 550.480469 528.921875 C 553.824219 531.28125 556.960938 533.886719 559.890625 536.742188 C 562.824219 539.59375 565.515625 542.660156 567.964844 545.9375 C 574.644531 555.070312 580.027344 564.90625 584.121094 575.453125 C 584.695312 576.773438 585.054688 578.144531 585.203125 579.574219 C 585.496094 583.222656 583.125 585.496094 579.542969 584.859375 C 578.023438 584.585938 576.550781 584.148438 575.128906 583.550781 C 565.503906 579.734375 556.457031 574.855469 547.980469 568.914062 C 544.535156 566.488281 541.304688 563.800781 538.289062 560.855469 C 535.277344 557.90625 532.519531 554.738281 530.019531 551.34375 C 527.515625 547.953125 525.304688 544.382812 523.378906 540.632812 C 521.453125 536.882812 519.84375 533.003906 518.542969 528.992188 C 517.78125 526.742188 517.261719 524.4375 516.992188 522.078125 C 516.746094 518.660156 518.578125 516.777344 522.058594 516.828125 Z M 700.789062 700.542969 C 701.101562 700.085938 700.789062 699.679688 700.609375 699.269531 C 696.472656 691.664062 693.105469 683.699219 689.75 675.734375 C 683.269531 660.089844 674.671875 645.710938 663.960938 632.59375 C 655.089844 621.757812 645.363281 611.75 634.785156 602.570312 C 622.375 591.917969 609.292969 582.171875 595.539062 573.328125 C 594.058594 572.660156 592.84375 571.667969 591.890625 570.351562 C 597.46875 568.355469 603.140625 568.929688 608.539062 568.71875 C 608.800781 567.980469 608.539062 567.703125 608.34375 567.457031 C 605.535156 564.785156 603.1875 561.757812 601.304688 558.371094 C 599.417969 554.988281 598.078125 551.398438 597.285156 547.605469 C 596.632812 544.921875 595.726562 542.328125 594.570312 539.820312 C 593.417969 537.3125 592.035156 534.9375 590.421875 532.695312 C 588.8125 530.453125 587 528.386719 584.992188 526.492188 C 582.984375 524.601562 580.8125 522.914062 578.480469 521.4375 C 572.265625 517.40625 565.707031 514.042969 558.808594 511.347656 C 546.664062 506.5625 534.222656 502.78125 521.472656 500 C 510.988281 497.578125 500.472656 495.09375 490.824219 490.105469 C 490.726562 490.105469 490.480469 490.300781 490.136719 490.480469 C 495.222656 499.703125 497.5625 509.859375 499.949219 520.015625 C 502.300781 530.777344 505.304688 541.351562 508.960938 551.742188 C 512.105469 560.84375 516.226562 569.476562 521.324219 577.644531 C 522.847656 580.058594 524.589844 582.300781 526.546875 584.378906 C 528.503906 586.457031 530.640625 588.324219 532.960938 589.992188 C 535.277344 591.65625 537.730469 593.082031 540.324219 594.273438 C 542.917969 595.464844 545.601562 596.398438 548.375 597.074219 C 549.289062 597.304688 550.203125 597.546875 551.121094 597.792969 C 554.054688 598.578125 556.839844 599.730469 559.46875 601.253906 C 562.097656 602.777344 564.484375 604.617188 566.625 606.773438 C 567.246094 607.410156 567.6875 608.40625 568.980469 608.539062 C 569.273438 602.863281 568.652344 597.089844 570.613281 591.53125 C 571.152344 591.859375 571.414062 591.9375 571.53125 592.121094 C 572.476562 593.476562 573.425781 594.851562 574.328125 596.222656 C 585.308594 613.46875 597.847656 629.492188 611.941406 644.304688 C 628.882812 661.785156 647.6875 676.765625 670.125 686.824219 C 680.167969 691.304688 690.421875 695.328125 700.152344 700.527344 C 700.300781 700.625 700.5625 700.542969 700.789062 700.542969 Z M 449.941406 626.019531 C 449.996094 624.90625 450.183594 623.816406 450.507812 622.746094 C 450.832031 621.679688 451.277344 620.664062 451.847656 619.707031 C 452.417969 618.746094 453.09375 617.871094 453.878906 617.078125 C 454.660156 616.285156 455.53125 615.597656 456.480469 615.015625 C 457.410156 614.378906 458.386719 613.828125 459.414062 613.367188 C 460.4375 612.902344 461.5 612.535156 462.589844 612.265625 C 463.683594 611.992188 464.792969 611.820312 465.914062 611.75 C 467.039062 611.675781 468.160156 611.703125 469.277344 611.832031 C 470.394531 611.960938 471.492188 612.191406 472.570312 612.515625 C 473.648438 612.84375 474.6875 613.261719 475.6875 613.777344 C 476.691406 614.289062 477.640625 614.886719 478.535156 615.570312 C 479.425781 616.253906 480.253906 617.011719 481.011719 617.84375 C 481.421875 618.289062 481.808594 618.757812 482.167969 619.25 C 482.523438 619.738281 482.855469 620.25 483.152344 620.777344 C 483.453125 621.304688 483.722656 621.847656 483.957031 622.40625 C 484.195312 622.964844 484.402344 623.539062 484.574219 624.121094 C 484.746094 624.703125 484.882812 625.292969 484.988281 625.890625 C 485.09375 626.488281 485.164062 627.089844 485.199219 627.695312 C 485.234375 628.304688 485.234375 628.910156 485.203125 629.515625 C 485.167969 630.121094 485.097656 630.726562 484.996094 631.324219 C 484.894531 631.921875 484.757812 632.511719 484.585938 633.09375 C 484.417969 633.679688 484.214844 634.25 483.976562 634.808594 C 483.742188 635.367188 483.476562 635.914062 483.175781 636.441406 C 482.878906 636.972656 482.550781 637.480469 482.195312 637.972656 C 481.839844 638.464844 481.453125 638.933594 481.042969 639.382812 C 480.632812 639.828125 480.199219 640.253906 479.742188 640.648438 C 479.28125 641.046875 478.800781 641.417969 478.300781 641.761719 C 477.800781 642.105469 477.28125 642.417969 476.742188 642.703125 C 464.953125 649.046875 449.972656 640.460938 449.941406 626.019531 Z M 436.511719 725.289062 C 435.988281 725.289062 435.464844 725.265625 434.945312 725.210938 C 434.425781 725.15625 433.90625 725.074219 433.394531 724.964844 C 432.882812 724.855469 432.378906 724.714844 431.878906 724.550781 C 431.382812 724.386719 430.894531 724.195312 430.417969 723.976562 C 429.941406 723.757812 429.480469 723.515625 429.027344 723.246094 C 428.578125 722.976562 428.144531 722.683594 427.726562 722.367188 C 427.308594 722.054688 426.910156 721.714844 426.527344 721.355469 C 426.144531 720.996094 425.785156 720.617188 425.445312 720.21875 C 425.105469 719.820312 424.785156 719.40625 424.492188 718.972656 C 424.195312 718.539062 423.925781 718.089844 423.679688 717.628906 C 423.433594 717.164062 423.210938 716.691406 423.015625 716.203125 C 422.820312 715.71875 422.652344 715.222656 422.511719 714.71875 C 422.371094 714.210938 422.257812 713.703125 422.171875 713.183594 C 422.089844 712.667969 422.03125 712.148438 422.003906 711.625 C 421.972656 711.101562 421.972656 710.578125 422 710.054688 C 422.03125 709.53125 422.085938 709.007812 422.171875 708.492188 C 423.234375 702.441406 428.515625 698.074219 435.335938 697.648438 C 438.234375 697.511719 441 698.058594 443.628906 699.285156 C 444.117188 699.476562 444.59375 699.699219 445.058594 699.949219 C 445.523438 700.199219 445.96875 700.476562 446.398438 700.78125 C 446.824219 701.085938 447.234375 701.417969 447.621094 701.773438 C 448.011719 702.128906 448.375 702.507812 448.71875 702.90625 C 449.058594 703.308594 449.375 703.730469 449.664062 704.167969 C 449.953125 704.609375 450.214844 705.0625 450.449219 705.535156 C 450.683594 706.007812 450.886719 706.492188 451.058594 706.988281 C 451.234375 707.488281 451.375 707.992188 451.488281 708.507812 C 451.597656 709.023438 451.679688 709.542969 451.726562 710.066406 C 451.773438 710.589844 451.789062 711.117188 451.769531 711.640625 C 451.753906 712.167969 451.703125 712.691406 451.621094 713.210938 C 451.539062 713.730469 451.425781 714.246094 451.277344 714.75 C 451.132812 715.257812 450.957031 715.753906 450.75 716.238281 C 450.542969 716.722656 450.308594 717.191406 450.042969 717.644531 C 449.78125 718.101562 449.488281 718.539062 449.171875 718.957031 C 448.851562 719.378906 448.507812 719.777344 448.140625 720.152344 C 447.40625 720.960938 446.59375 721.6875 445.703125 722.328125 C 444.816406 722.96875 443.871094 723.507812 442.871094 723.949219 C 441.871094 724.394531 440.832031 724.726562 439.761719 724.953125 C 438.691406 725.175781 437.609375 725.289062 436.511719 725.289062 Z M 381.972656 736.308594 C 382.496094 736.964844 383.265625 736.667969 383.902344 736.667969 C 411.378906 736.785156 438.851562 737.714844 466.34375 737.535156 C 546.3125 736.996094 626.28125 736.898438 706.234375 736.636719 L 710.472656 736.636719 C 709.609375 735.570312 708.519531 734.84375 707.199219 734.460938 C 698.320312 730.539062 689.441406 726.578125 680.558594 722.6875 C 669.167969 717.628906 657.476562 713.402344 645.480469 710.011719 C 636.128906 707.148438 626.5625 705.648438 616.78125 705.515625 C 612.597656 705.460938 608.53125 706.121094 604.582031 707.496094 C 602.644531 708.132812 600.890625 709.097656 599.316406 710.390625 C 597.335938 712.023438 597.105469 713.234375 598.253906 715.605469 C 598.449219 716.03125 598.757812 716.40625 598.5625 716.914062 C 598.363281 717.152344 598.109375 717.304688 597.808594 717.378906 C 597.507812 717.449219 597.214844 717.425781 596.925781 717.308594 C 592.625 716.359375 590.582031 711.960938 592.429688 707.496094 C 593.105469 706.027344 593.996094 704.703125 595.097656 703.527344 C 596.203125 702.347656 597.46875 701.375 598.890625 700.609375 C 603.472656 697.945312 608.414062 696.445312 613.707031 696.113281 C 624.597656 695.148438 635.210938 696.816406 645.726562 699.382812 C 662.300781 703.585938 678.371094 709.222656 693.9375 716.292969 C 695.179688 716.832031 696.457031 717.339844 698.386719 718.140625 C 697.34375 716.964844 696.121094 716.023438 694.722656 715.3125 C 682.980469 708.09375 670.644531 702.097656 657.714844 697.324219 C 644.898438 692.398438 631.636719 689.5625 617.925781 688.820312 C 607.839844 688.628906 597.804688 689.25 587.816406 690.683594 C 585.335938 691.039062 582.957031 691.730469 580.671875 692.761719 C 578.636719 693.617188 576.769531 694.757812 575.078125 696.179688 C 573.386719 697.601562 571.941406 699.242188 570.746094 701.101562 C 570.300781 701.734375 569.910156 702.398438 569.574219 703.09375 C 569.234375 703.785156 568.953125 704.503906 568.722656 705.242188 C 568.496094 705.980469 568.328125 706.730469 568.21875 707.496094 C 568.105469 708.261719 568.058594 709.03125 568.066406 709.800781 C 568.074219 710.574219 568.144531 711.34375 568.273438 712.105469 C 568.402344 712.867188 568.589844 713.613281 568.835938 714.34375 C 569.082031 715.078125 569.382812 715.789062 569.738281 716.472656 C 570.09375 717.160156 570.5 717.8125 570.957031 718.433594 C 571.785156 719.296875 572.328125 720.3125 572.59375 721.476562 C 566.132812 718.582031 560.164062 716.0625 555.046875 711.941406 C 549.863281 707.820312 545.796875 702.792969 542.84375 696.863281 C 533.621094 678.238281 540.539062 657.304688 559.050781 647.886719 C 561.804688 646.496094 564.671875 645.40625 567.652344 644.613281 C 567.925781 644.589844 568.175781 644.511719 568.410156 644.378906 C 568.648438 644.246094 568.84375 644.066406 569 643.847656 C 569.15625 643.628906 569.261719 643.382812 569.3125 643.117188 C 569.363281 642.851562 569.355469 642.585938 569.289062 642.324219 C 568.4375 634.476562 566.902344 626.871094 562.273438 620.230469 C 556.714844 612.234375 549.191406 608.375 539.378906 609.390625 C 523.351562 611.023438 511.675781 619.542969 503.597656 633.234375 C 502.597656 635 501.878906 636.875 501.4375 638.859375 C 499.589844 646.398438 501.027344 652.953125 507.210938 658.089844 C 508.304688 659.023438 509.523438 659.738281 510.871094 660.242188 C 512.214844 660.742188 513.609375 660.996094 515.042969 661 C 515.679688 661.003906 516.3125 660.945312 516.941406 660.832031 C 517.566406 660.71875 518.179688 660.546875 518.773438 660.324219 C 519.367188 660.097656 519.9375 659.816406 520.484375 659.488281 C 521.027344 659.15625 521.539062 658.777344 522.011719 658.355469 C 522.488281 657.929688 522.921875 657.464844 523.3125 656.960938 C 523.699219 656.457031 524.042969 655.921875 524.332031 655.355469 C 524.625 654.792969 524.863281 654.203125 525.046875 653.59375 C 525.230469 652.984375 525.359375 652.363281 525.429688 651.726562 C 526.050781 646.347656 523.644531 643.453125 517.53125 642.210938 C 515.992188 641.898438 515.648438 640.953125 516.761719 639.707031 C 517.605469 638.828125 518.605469 638.199219 519.765625 637.828125 C 520.925781 637.453125 522.105469 637.375 523.304688 637.597656 C 529.46875 638.105469 534.488281 643.371094 535.355469 650.175781 C 535.441406 650.878906 535.492188 651.585938 535.507812 652.296875 C 535.519531 653.007812 535.5 653.71875 535.441406 654.425781 C 535.386719 655.132812 535.292969 655.835938 535.164062 656.535156 C 535.035156 657.234375 534.871094 657.925781 534.671875 658.605469 C 534.472656 659.289062 534.238281 659.957031 533.972656 660.617188 C 533.703125 661.273438 533.40625 661.917969 533.074219 662.546875 C 532.738281 663.171875 532.375 663.78125 531.980469 664.375 C 531.589844 664.964844 531.164062 665.535156 530.710938 666.082031 C 530.261719 666.628906 529.78125 667.152344 529.277344 667.652344 C 528.769531 668.152344 528.242188 668.625 527.6875 669.070312 C 527.136719 669.515625 526.5625 669.929688 525.964844 670.320312 C 525.371094 670.707031 524.757812 671.0625 524.125 671.386719 C 523.492188 671.710938 522.847656 672.003906 522.183594 672.261719 C 521.523438 672.523438 520.851562 672.746094 520.164062 672.9375 C 519.480469 673.128906 518.789062 673.285156 518.089844 673.40625 C 517.390625 673.523438 516.683594 673.609375 515.976562 673.660156 C 513.898438 673.789062 511.839844 673.660156 509.84375 673.660156 C 509.683594 674.730469 509.8125 675.765625 510.234375 676.765625 C 511.441406 681.546875 511.621094 686.367188 510.777344 691.222656 C 510.609375 692.15625 510.402344 693.078125 510.160156 693.996094 C 509.914062 694.910156 509.632812 695.816406 509.3125 696.707031 C 508.992188 697.597656 508.632812 698.476562 508.238281 699.335938 C 507.84375 700.199219 507.414062 701.042969 506.949219 701.867188 C 506.484375 702.695312 505.984375 703.5 505.453125 704.28125 C 504.917969 705.066406 504.351562 705.824219 503.757812 706.5625 C 503.160156 707.296875 502.53125 708.007812 501.875 708.691406 C 501.21875 709.375 500.535156 710.027344 499.824219 710.652344 C 499.109375 711.277344 498.375 711.875 497.613281 712.4375 C 496.851562 713 496.066406 713.53125 495.257812 714.03125 C 494.453125 714.527344 493.628906 714.988281 492.78125 715.417969 C 491.9375 715.847656 491.074219 716.238281 490.195312 716.59375 C 489.316406 716.949219 488.425781 717.269531 487.519531 717.546875 C 486.617188 717.828125 485.699219 718.070312 484.773438 718.273438 C 483.847656 718.476562 482.917969 718.644531 481.976562 718.769531 C 481.039062 718.894531 480.09375 718.976562 479.148438 719.023438 C 476.050781 719.3125 473 719.050781 469.992188 718.242188 C 466.988281 717.4375 464.21875 716.132812 461.683594 714.332031 C 460.875 713.773438 460.125 713.148438 459.429688 712.453125 C 458.734375 711.761719 458.105469 711.011719 457.546875 710.203125 C 456.984375 709.398438 456.503906 708.550781 456.09375 707.65625 C 455.6875 706.761719 455.363281 705.839844 455.125 704.886719 C 454.882812 703.9375 454.730469 702.972656 454.660156 701.992188 C 454.59375 701.011719 454.617188 700.035156 454.726562 699.058594 C 454.832031 698.085938 455.027344 697.125 455.308594 696.1875 C 455.589844 695.246094 455.953125 694.339844 456.398438 693.464844 C 456.898438 692.339844 457.542969 691.308594 458.324219 690.363281 C 459.109375 689.414062 460.003906 688.59375 461.015625 687.890625 C 462.023438 687.191406 463.109375 686.640625 464.269531 686.234375 C 465.429688 685.832031 466.621094 685.59375 467.847656 685.515625 C 471.902344 685.167969 475.898438 685.511719 479.835938 686.546875 C 481.117188 686.851562 482.289062 687.398438 483.351562 688.179688 C 485.28125 689.667969 485.246094 690.519531 483.171875 691.925781 C 481.839844 692.722656 480.410156 693.265625 478.886719 693.5625 C 475.964844 694.125 473.152344 695.023438 470.449219 696.257812 C 469.640625 696.617188 468.984375 697.160156 468.476562 697.886719 C 467.972656 698.609375 467.6875 699.414062 467.632812 700.292969 C 467.574219 701.175781 467.746094 702.011719 468.152344 702.796875 C 468.558594 703.578125 469.136719 704.203125 469.890625 704.664062 C 471.800781 705.972656 473.910156 706.683594 476.21875 706.792969 C 476.929688 706.84375 477.640625 706.859375 478.347656 706.835938 C 479.058594 706.816406 479.769531 706.761719 480.472656 706.667969 C 481.175781 706.578125 481.875 706.453125 482.566406 706.289062 C 483.261719 706.128906 483.941406 705.933594 484.617188 705.703125 C 485.289062 705.472656 485.949219 705.210938 486.59375 704.914062 C 487.238281 704.621094 487.871094 704.292969 488.484375 703.933594 C 489.097656 703.574219 489.691406 703.183594 490.265625 702.765625 C 490.839844 702.347656 491.390625 701.902344 491.921875 701.425781 C 492.449219 700.953125 492.953125 700.453125 493.433594 699.929688 C 493.914062 699.402344 494.367188 698.855469 494.789062 698.285156 C 495.214844 697.71875 495.609375 697.128906 495.976562 696.515625 C 496.339844 695.90625 496.675781 695.28125 496.976562 694.636719 C 497.28125 693.996094 497.550781 693.339844 497.785156 692.667969 C 498.023438 692 498.226562 691.316406 498.394531 690.628906 C 498.5625 689.9375 498.695312 689.238281 498.796875 688.535156 C 498.894531 687.832031 498.957031 687.125 498.984375 686.414062 C 499.3125 675.621094 491.625 665.824219 480.441406 662.882812 C 476.953125 662.058594 473.425781 661.785156 469.851562 662.0625 C 466.28125 662.34375 462.839844 663.160156 459.523438 664.515625 C 451.816406 667.464844 444.785156 671.570312 438.425781 676.832031 C 430.722656 683.179688 423.773438 690.265625 417.574219 698.089844 C 413.09375 703.617188 408.746094 709.226562 404.28125 714.753906 C 397.933594 722.621094 391.117188 730.015625 382.496094 735.492188 C 382.1875 735.640625 381.910156 735.851562 381.972656 736.308594 Z M 177.273438 733.039062 C 175.015625 732.980469 172.816406 732.601562 170.667969 731.898438 C 168.523438 731.199219 166.523438 730.203125 164.664062 728.917969 C 155.195312 722.148438 155.671875 709.605469 165.597656 703.554688 C 166.519531 703.023438 167.476562 702.5625 168.46875 702.171875 C 169.460938 701.78125 170.472656 701.464844 171.511719 701.222656 C 172.550781 700.980469 173.597656 700.816406 174.660156 700.726562 C 175.722656 700.640625 176.785156 700.628906 177.847656 700.695312 C 178.910156 700.761719 179.960938 700.90625 181.003906 701.128906 C 182.046875 701.351562 183.066406 701.644531 184.066406 702.015625 C 185.0625 702.386719 186.03125 702.828125 186.964844 703.339844 C 187.898438 703.855469 188.789062 704.429688 189.636719 705.074219 C 191.191406 706.375 192.523438 707.875 193.636719 709.566406 C 194.75 711.257812 195.597656 713.078125 196.179688 715.015625 C 197.816406 720.003906 195.785156 725.304688 191.273438 728.835938 C 189.242188 730.304688 187.027344 731.398438 184.628906 732.121094 C 182.230469 732.84375 179.777344 733.15625 177.273438 733.054688 Z M 69.714844 766.726562 C 69.722656 767.4375 69.664062 768.140625 69.539062 768.839844 C 69.417969 769.539062 69.230469 770.222656 68.984375 770.886719 C 68.734375 771.550781 68.429688 772.1875 68.066406 772.796875 C 67.699219 773.40625 67.285156 773.976562 66.816406 774.511719 C 66.347656 775.042969 65.832031 775.527344 65.273438 775.96875 C 64.714844 776.40625 64.125 776.789062 63.496094 777.121094 C 62.867188 777.449219 62.214844 777.71875 61.535156 777.929688 C 60.859375 778.140625 60.167969 778.289062 59.460938 778.371094 C 58.414062 778.507812 57.371094 778.457031 56.339844 778.214844 C 55.308594 777.972656 54.355469 777.554688 53.476562 776.964844 C 52.832031 776.496094 52.234375 775.972656 51.6875 775.390625 C 51.140625 774.8125 50.648438 774.183594 50.21875 773.511719 C 49.789062 772.839844 49.421875 772.136719 49.125 771.394531 C 48.824219 770.65625 48.597656 769.894531 48.441406 769.113281 C 48.28125 768.332031 48.199219 767.539062 48.191406 766.742188 C 48.179688 765.945312 48.246094 765.152344 48.382812 764.367188 C 48.523438 763.582031 48.734375 762.8125 49.015625 762.066406 C 49.296875 761.320312 49.644531 760.605469 50.058594 759.925781 C 50.546875 759.089844 51.140625 758.339844 51.839844 757.671875 C 52.539062 757.003906 53.316406 756.445312 54.171875 755.996094 C 55.027344 755.546875 55.929688 755.222656 56.875 755.027344 C 57.820312 754.832031 58.777344 754.769531 59.742188 754.84375 C 60.703125 754.914062 61.640625 755.117188 62.546875 755.453125 C 63.453125 755.789062 64.296875 756.242188 65.074219 756.816406 C 65.855469 757.386719 66.539062 758.054688 67.132812 758.820312 C 67.722656 759.585938 68.195312 760.417969 68.554688 761.316406 C 69.382812 763.03125 69.769531 764.839844 69.714844 766.746094 Z M 487.78125 651.925781 C 487.667969 648.457031 487.015625 645.5625 487.226562 642.601562 C 487.519531 638.753906 488.34375 635.019531 489.703125 631.40625 C 491.058594 627.789062 492.894531 624.4375 495.207031 621.34375 C 498.546875 616.785156 502.441406 612.757812 506.882812 609.261719 C 511.324219 605.765625 516.15625 602.929688 521.375 600.753906 C 522.355469 600.328125 523.335938 599.9375 524.300781 599.496094 C 524.414062 599.496094 524.464844 599.332031 524.578125 599.21875 C 524.578125 598.398438 523.90625 598.070312 523.402344 597.582031 C 517.765625 592.746094 513.148438 587.082031 509.550781 580.589844 C 501.992188 567.507812 497.085938 553.246094 493.195312 538.660156 C 490.890625 529.84375 488.894531 520.949219 486.882812 512.050781 C 484.722656 502.632812 481.199219 493.757812 476.300781 485.425781 C 474.667969 482.648438 473.03125 479.917969 471.511719 477.121094 C 470.710938 475.667969 469.984375 474.179688 469.335938 472.65625 C 468.996094 472.144531 468.832031 471.582031 468.847656 470.964844 C 468.863281 470.351562 469.054688 469.796875 469.417969 469.304688 C 470.398438 468.222656 471.59375 468.699219 472.6875 469.171875 C 473.578125 469.503906 474.445312 469.886719 475.289062 470.316406 C 476.921875 471.132812 478.460938 471.953125 479.949219 472.902344 C 486.078125 476.761719 492.511719 480.007812 499.253906 482.648438 C 506 485.289062 512.929688 487.273438 520.046875 488.601562 C 535.109375 491.457031 549.765625 495.695312 564.023438 501.324219 C 566.640625 502.386719 569.257812 503.515625 571.839844 504.707031 C 582.128906 509.5 591.628906 515.4375 598.792969 524.464844 C 600.164062 523.925781 600.148438 522.699219 600.523438 521.796875 C 602.410156 517.210938 604.800781 512.90625 607.699219 508.882812 C 610.597656 504.859375 613.925781 501.226562 617.679688 497.988281 C 627.378906 489.597656 638.398438 485.28125 651.417969 487.539062 C 651.5 487.539062 651.613281 487.4375 651.710938 487.375 C 652.121094 486.980469 651.972656 486.507812 651.828125 486.066406 C 648.277344 475.597656 649.257812 465.296875 652.957031 455.089844 C 656.601562 445.472656 661.761719 436.75 668.441406 428.925781 C 675.667969 420.398438 683.703125 412.71875 692.546875 405.882812 C 698.304688 401.320312 704.125 396.824219 709.851562 392.226562 C 714.964844 388.332031 719.539062 383.878906 723.570312 378.867188 C 725.792969 376.085938 727.714844 373.105469 729.335938 369.933594 C 730.953125 366.761719 732.238281 363.457031 733.183594 360.023438 C 734.132812 356.589844 734.722656 353.09375 734.960938 349.539062 C 735.199219 345.984375 735.074219 342.445312 734.59375 338.914062 C 731.664062 317.882812 725.78125 297.714844 716.949219 278.40625 C 709.308594 261.203125 701.183594 244.210938 694.199219 226.710938 C 686.546875 207.445312 679.480469 187.96875 675 167.675781 C 671.300781 152.242188 669.972656 136.609375 671.027344 120.773438 C 672.417969 104.042969 676.878906 88.441406 687.378906 74.980469 C 690.191406 71.199219 693.453125 67.859375 697.167969 64.960938 C 700.878906 62.058594 704.910156 59.703125 709.261719 57.890625 C 713.546875 56.160156 717.863281 54.621094 722.164062 52.824219 C 727.746094 50.722656 732.902344 47.855469 737.632812 44.21875 C 745.320312 38.023438 749.964844 30.207031 750.046875 20.132812 C 750.0625 19.195312 750.003906 18.265625 749.867188 17.339844 C 749.734375 16.410156 749.523438 15.503906 749.238281 14.609375 C 748.957031 13.71875 748.601562 12.855469 748.175781 12.019531 C 747.753906 11.1875 747.265625 10.390625 746.710938 9.636719 C 746.15625 8.882812 745.546875 8.175781 744.875 7.519531 C 744.207031 6.867188 743.492188 6.269531 742.722656 5.730469 C 741.957031 5.191406 741.152344 4.71875 740.3125 4.3125 C 739.46875 3.90625 738.597656 3.570312 737.699219 3.304688 C 736.992188 3.21875 736.445312 2.878906 736.066406 2.273438 C 736.929688 0.492188 738.699219 0.277344 740.429688 0.164062 C 742.289062 0.0976562 744.105469 0.347656 745.878906 0.910156 C 747.652344 1.46875 749.28125 2.3125 750.765625 3.433594 C 757.308594 7.996094 760.234375 14.503906 760.578125 22.226562 C 760.6875 24.511719 760.59375 26.789062 760.292969 29.058594 C 759.992188 31.328125 759.496094 33.554688 758.796875 35.734375 C 758.097656 37.914062 757.210938 40.015625 756.136719 42.039062 C 755.0625 44.058594 753.820312 45.96875 752.402344 47.769531 C 749.289062 51.859375 745.609375 55.351562 741.363281 58.253906 C 740.300781 58.773438 739.390625 59.484375 738.632812 60.394531 C 738.632812 60.964844 739.121094 61.179688 739.566406 61.359375 C 752.238281 66.574219 761.855469 75.390625 769.769531 86.117188 C 778.847656 98.515625 784.71875 112.449219 788.984375 127.003906 C 792.027344 136.996094 794.21875 147.171875 795.558594 157.527344 C 796.902344 167.886719 797.375 178.285156 796.980469 188.722656 C 796.496094 197.605469 795.40625 206.414062 793.710938 215.148438 C 793.542969 215.949219 793.324219 216.734375 793.058594 217.503906 C 793.058594 217.652344 792.664062 217.683594 792.222656 217.878906 C 791.753906 216.6875 791.644531 215.460938 791.894531 214.199219 C 792.207031 207.464844 792.679688 200.726562 792.925781 193.988281 C 793.296875 182.816406 792.46875 171.734375 790.441406 160.742188 C 787.585938 143.835938 782.574219 127.597656 775.410156 112.023438 C 770.644531 101.46875 764.183594 92.074219 756.03125 83.84375 C 751.382812 79.199219 746.113281 75.421875 740.21875 72.511719 C 736.238281 70.601562 732.0625 69.335938 727.691406 68.71875 C 723.859375 68.148438 720.152344 68.601562 716.570312 70.074219 C 707.332031 73.753906 699.203125 78.808594 693.675781 87.378906 C 689.828125 93.273438 687.042969 99.636719 685.320312 106.460938 C 682.875 116.804688 682.035156 127.277344 682.800781 137.878906 C 684.140625 159.597656 690.027344 180.285156 697.09375 200.710938 C 703.636719 219.628906 711.453125 238.0625 719.449219 256.394531 C 726.660156 272.894531 733.855469 289.394531 738.191406 306.960938 C 738.191406 307.140625 738.484375 307.269531 739.023438 307.761719 C 739.382812 277 739.628906 246.546875 740.167969 216.097656 C 740.710938 185.648438 741.167969 155.179688 742.214844 124.515625 C 743.847656 124.925781 743.585938 125.890625 743.605469 126.625 C 743.882812 137.992188 744.175781 149.375 744.390625 160.742188 C 745.011719 192.828125 745.714844 224.929688 746.1875 257.03125 C 746.679688 290.3125 746.972656 323.609375 747.300781 356.902344 C 747.726562 401.8125 748.121094 446.710938 748.492188 491.609375 L 748.492188 494.472656 C 749.816406 494.585938 749.898438 493.554688 750.292969 492.949219 C 752.613281 489.328125 755.441406 486.160156 758.78125 483.449219 C 759.855469 482.554688 760.988281 481.75 762.1875 481.03125 C 763.382812 480.3125 764.628906 479.691406 765.921875 479.164062 C 767.21875 478.636719 768.542969 478.214844 769.902344 477.890625 C 771.261719 477.570312 772.636719 477.351562 774.027344 477.242188 C 775.421875 477.132812 776.8125 477.128906 778.207031 477.230469 C 779.597656 477.335938 780.972656 477.546875 782.335938 477.859375 C 783.695312 478.175781 785.023438 478.59375 786.320312 479.113281 C 787.613281 479.632812 788.863281 480.25 790.066406 480.964844 C 800.417969 486.867188 806.058594 496.140625 808.316406 507.621094 C 809.085938 511.367188 809.238281 515.140625 808.773438 518.9375 C 808.308594 522.734375 807.25 526.359375 805.601562 529.8125 C 804.300781 532.640625 802.539062 535.148438 800.320312 537.335938 C 799.820312 537.847656 799.289062 538.324219 798.726562 538.769531 C 798.167969 539.214844 797.578125 539.621094 796.964844 539.988281 C 796.351562 540.355469 795.71875 540.683594 795.0625 540.972656 C 794.40625 541.257812 793.734375 541.5 793.046875 541.703125 C 792.359375 541.902344 791.664062 542.058594 790.957031 542.167969 C 790.25 542.277344 789.539062 542.34375 788.824219 542.359375 C 788.105469 542.378906 787.394531 542.351562 786.679688 542.28125 C 785.96875 542.207031 785.265625 542.089844 784.570312 541.925781 C 783.871094 541.761719 783.1875 541.550781 782.519531 541.300781 C 781.847656 541.046875 781.199219 540.753906 780.566406 540.417969 C 779.933594 540.082031 779.324219 539.707031 778.742188 539.292969 C 778.160156 538.878906 777.605469 538.429688 777.078125 537.945312 C 776.550781 537.457031 776.058594 536.941406 775.601562 536.390625 C 775.140625 535.84375 774.71875 535.265625 774.335938 534.664062 C 773.949219 534.058594 773.605469 533.433594 773.300781 532.785156 C 772.996094 532.140625 772.734375 531.472656 772.515625 530.792969 C 771.65625 528.246094 771.203125 525.632812 771.164062 522.945312 C 771.125 520.257812 771.5 517.628906 772.289062 515.0625 C 773.285156 511.398438 774.578125 507.832031 775.753906 504.234375 C 776.597656 502 777.078125 499.6875 777.195312 497.300781 C 777.195312 494.585938 776.671875 491.984375 774.054688 490.59375 C 773.378906 490.15625 772.65625 489.816406 771.890625 489.570312 C 771.121094 489.324219 770.335938 489.183594 769.53125 489.148438 C 768.726562 489.109375 767.929688 489.179688 767.144531 489.359375 C 766.359375 489.535156 765.609375 489.808594 764.894531 490.1875 C 761.847656 492.058594 759.261719 494.433594 757.144531 497.316406 C 753.542969 502.09375 750.851562 507.339844 749.066406 513.050781 C 748.640625 514.789062 748.503906 516.546875 748.65625 518.332031 L 749.375 664.417969 C 749.375 671.289062 749.375 678.15625 749.375 685.023438 C 749.375 687.476562 749.375 687.542969 751.945312 687.527344 C 758.242188 687.527344 762.148438 691.335938 765.632812 695.851562 C 766.105469 696.457031 766.613281 697.324219 765.941406 698.125 C 765.65625 698.445312 765.308594 698.664062 764.890625 698.78125 C 764.476562 698.894531 764.066406 698.890625 763.652344 698.761719 C 762.28125 698.417969 760.9375 697.945312 759.566406 697.566406 C 758.097656 697.101562 756.605469 696.75 755.085938 696.503906 C 754.734375 696.453125 754.378906 696.4375 754.023438 696.460938 C 753.667969 696.484375 753.320312 696.546875 752.980469 696.644531 C 752.636719 696.742188 752.3125 696.878906 752 697.046875 C 751.6875 697.21875 751.398438 697.421875 751.128906 697.652344 C 750.859375 697.886719 750.621094 698.144531 750.410156 698.433594 C 750.195312 698.71875 750.015625 699.023438 749.871094 699.347656 C 749.726562 699.671875 749.617188 700.007812 749.542969 700.355469 C 749.472656 700.703125 749.4375 701.054688 749.441406 701.410156 C 749.328125 704.140625 749.554688 706.875 749.441406 709.589844 C 749.394531 710.214844 749.441406 710.832031 749.589844 711.441406 C 749.738281 712.050781 749.972656 712.621094 750.300781 713.15625 C 750.628906 713.691406 751.03125 714.160156 751.507812 714.566406 C 751.984375 714.976562 752.511719 715.300781 753.089844 715.539062 C 754.484375 716.238281 755.957031 716.65625 757.511719 716.792969 C 759.0625 716.933594 760.585938 716.78125 762.082031 716.34375 C 765.867188 715.378906 769.140625 713.515625 771.894531 710.75 C 774.753906 707.945312 777.097656 704.757812 778.921875 701.191406 C 780.746094 697.625 781.957031 693.859375 782.558594 689.898438 C 783.265625 686.039062 783.523438 682.148438 783.328125 678.230469 C 783.136719 674.308594 782.496094 670.464844 781.414062 666.691406 C 780.648438 664.0625 779.558594 661.578125 778.144531 659.234375 C 777.734375 658.546875 777.015625 657.714844 777.71875 656.996094 C 778.421875 656.273438 779.5 656.996094 780.234375 657.402344 C 782.585938 658.902344 784.445312 660.863281 785.8125 663.289062 C 787.789062 666.691406 789.269531 670.292969 790.253906 674.101562 C 791.234375 677.910156 791.6875 681.78125 791.601562 685.710938 C 791.675781 688.417969 791.507812 691.109375 791.09375 693.78125 C 790.679688 696.457031 790.027344 699.074219 789.140625 701.632812 C 788.253906 704.1875 787.144531 706.644531 785.816406 709 C 784.484375 711.359375 782.949219 713.578125 781.21875 715.65625 C 778.964844 718.527344 776.292969 720.9375 773.203125 722.886719 C 770.117188 724.835938 766.792969 726.207031 763.226562 727.003906 C 761.09375 727.449219 758.941406 727.605469 756.765625 727.472656 C 754.589844 727.34375 752.472656 726.929688 750.40625 726.234375 C 749.296875 726.839844 749.589844 727.757812 749.574219 728.527344 C 749.574219 732.546875 749.574219 736.589844 749.574219 740.609375 C 749.574219 742.148438 749.472656 743.683594 749.261719 745.207031 C 748.886719 747.5625 747.988281 748.476562 745.566406 748.789062 C 740.660156 749.574219 735.640625 748.933594 730.699219 749.277344 C 729.363281 749.160156 728.054688 749.300781 726.777344 749.703125 C 726.785156 750.183594 726.84375 750.660156 726.957031 751.125 C 729.390625 759.386719 727.347656 766.808594 722.65625 773.679688 C 719.378906 778.464844 715.199219 782.246094 710.113281 785.027344 C 708.542969 785.929688 706.929688 786.742188 705.269531 787.460938 C 703.609375 788.179688 701.914062 788.800781 700.183594 789.328125 C 698.453125 789.851562 696.695312 790.273438 694.917969 790.597656 C 693.136719 790.921875 691.34375 791.144531 689.539062 791.261719 C 687.734375 791.382812 685.929688 791.398438 684.121094 791.308594 C 682.3125 791.222656 680.519531 791.03125 678.734375 790.738281 C 676.949219 790.441406 675.1875 790.046875 673.445312 789.554688 C 671.707031 789.058594 670 788.464844 668.328125 787.773438 C 666.402344 787.109375 664.605469 786.191406 662.9375 785.019531 C 661.273438 783.851562 659.796875 782.472656 658.515625 780.890625 C 657.761719 779.910156 656.390625 778.585938 657.289062 777.523438 C 658.1875 776.457031 659.644531 777.78125 660.691406 778.371094 C 664.914062 780.667969 669.414062 782.039062 674.199219 782.492188 C 678.859375 783.203125 683.519531 783.21875 688.183594 782.539062 C 692.847656 781.859375 697.3125 780.511719 701.574219 778.503906 C 704.351562 777.246094 706.871094 775.597656 709.132812 773.554688 C 711.398438 771.515625 713.300781 769.179688 714.835938 766.546875 C 715.40625 765.675781 715.878906 764.753906 716.25 763.78125 C 716.625 762.808594 716.890625 761.808594 717.050781 760.777344 C 717.210938 759.75 717.261719 758.714844 717.203125 757.675781 C 717.144531 756.636719 716.976562 755.613281 716.703125 754.609375 C 715.476562 750.667969 713.660156 749.3125 709.488281 749.261719 C 707.003906 749.261719 704.503906 749.164062 702.03125 749.261719 C 701.644531 749.234375 701.261719 749.253906 700.878906 749.320312 C 700.5 749.386719 700.128906 749.496094 699.773438 749.648438 C 699.417969 749.800781 699.082031 749.992188 698.773438 750.222656 C 698.460938 750.453125 698.183594 750.71875 697.933594 751.015625 C 697.6875 751.3125 697.476562 751.636719 697.304688 751.984375 C 697.132812 752.328125 697.003906 752.691406 696.917969 753.070312 C 696.832031 753.449219 696.792969 753.832031 696.796875 754.21875 C 696.800781 754.605469 696.851562 754.988281 696.945312 755.363281 C 697.304688 757.457031 698.15625 759.449219 698.679688 761.511719 C 699.039062 762.949219 699.890625 764.78125 698.269531 765.699219 C 696.652344 766.613281 695.605469 765.125 694.574219 764.175781 C 690.78125 760.628906 687.445312 756.800781 688.035156 751.09375 C 688.179688 749.605469 687.414062 749.214844 686.152344 749.214844 C 684.894531 749.214844 684.027344 749.214844 682.882812 749.214844 C 628.140625 748.941406 573.40625 748.65625 518.675781 748.363281 C 515.6875 748.328125 512.808594 748.871094 510.039062 750 C 503.007812 752.828125 496.679688 756.539062 491.871094 762.625 C 490.945312 763.722656 490.296875 764.964844 489.921875 766.351562 C 489.550781 767.738281 489.492188 769.140625 489.746094 770.554688 C 489.773438 771.003906 489.84375 771.441406 489.957031 771.875 C 490.070312 772.308594 490.222656 772.730469 490.417969 773.132812 C 490.609375 773.539062 490.839844 773.917969 491.109375 774.277344 C 491.375 774.640625 491.675781 774.96875 492.003906 775.273438 C 492.335938 775.574219 492.691406 775.84375 493.074219 776.074219 C 493.457031 776.308594 493.859375 776.503906 494.28125 776.660156 C 494.699219 776.816406 495.128906 776.933594 495.574219 777.003906 C 496.015625 777.078125 496.460938 777.109375 496.90625 777.097656 C 499.066406 777.125 501.160156 776.765625 503.1875 776.015625 C 506.574219 774.921875 509.910156 773.726562 513.3125 772.746094 C 515.671875 771.921875 518.101562 771.414062 520.59375 771.210938 C 523.085938 771.011719 525.566406 771.132812 528.027344 771.570312 C 535.125 773.023438 540.148438 777.015625 542.027344 784.113281 C 543.828125 790.949219 541.570312 796.738281 536.335938 801.347656 C 534.050781 803.355469 531.507812 804.964844 528.714844 806.175781 C 525.921875 807.382812 523.011719 808.136719 519.984375 808.429688 C 518.449219 808.636719 516.910156 808.75 515.367188 808.773438 C 513.820312 808.796875 512.277344 808.730469 510.738281 808.570312 C 509.203125 808.414062 507.679688 808.164062 506.167969 807.828125 C 504.660156 807.488281 503.175781 807.066406 501.71875 806.550781 C 500.257812 806.039062 498.835938 805.441406 497.449219 804.761719 C 496.058594 804.082031 494.714844 803.320312 493.417969 802.484375 C 492.117188 801.644531 490.875 800.730469 489.683594 799.746094 C 488.492188 798.761719 487.363281 797.707031 486.292969 796.589844 C 483.84375 794.121094 481.894531 791.308594 480.441406 788.152344 C 479.867188 787.027344 479.378906 785.867188 478.972656 784.671875 C 478.5625 783.480469 478.238281 782.261719 478 781.023438 C 477.761719 779.785156 477.609375 778.535156 477.546875 777.277344 C 477.484375 776.015625 477.507812 774.757812 477.621094 773.5 C 477.730469 772.242188 477.929688 771 478.214844 769.773438 C 478.503906 768.542969 478.871094 767.339844 479.328125 766.164062 C 479.78125 764.988281 480.316406 763.847656 480.929688 762.746094 C 481.542969 761.640625 482.230469 760.585938 482.992188 759.582031 C 485.589844 755.992188 488.746094 752.988281 492.460938 750.570312 C 493.570312 750.039062 494.464844 749.261719 495.140625 748.230469 C 371.507812 747.152344 248.199219 746.515625 125.023438 743.128906 C 125.140625 741.332031 126.300781 741.707031 127.117188 741.691406 C 132.90625 741.558594 138.730469 741.460938 144.519531 741.347656 C 173.546875 740.773438 202.558594 740.136719 231.585938 739.710938 C 255.855469 739.304688 280.140625 739.105469 304.441406 738.796875 C 305.609375 738.929688 306.765625 738.859375 307.90625 738.582031 C 307.644531 737.863281 306.976562 737.832031 306.46875 737.699219 C 291.570312 734.019531 277.457031 728.183594 263.425781 722.097656 C 242.574219 713.054688 221.738281 703.929688 200.203125 696.539062 C 184.042969 691.011719 167.707031 686.167969 150.75 683.796875 C 136.324219 681.785156 121.933594 681.507812 107.640625 684.8125 C 100.429688 686.554688 93.730469 689.472656 87.542969 693.5625 C 84.585938 695.472656 81.9375 697.742188 79.597656 700.367188 C 77.253906 702.992188 75.300781 705.878906 73.738281 709.03125 C 72.886719 710.667969 72.203125 712.5 71.300781 714.152344 C 68.128906 720.070312 68.324219 726.21875 70.027344 732.46875 C 71.902344 739.042969 75.003906 744.980469 79.332031 750.277344 C 85.273438 757.632812 92.296875 763.757812 100.394531 768.640625 C 113.902344 777.046875 128.6875 782.363281 143.976562 786.449219 C 161.9375 791.40625 180.21875 793.453125 198.828125 792.582031 C 203.898438 792.304688 208.984375 791.929688 214.070312 791.636719 C 215.585938 791.371094 217.0625 791.507812 218.503906 792.042969 C 217.613281 792.980469 216.523438 793.488281 215.230469 793.566406 C 202.6875 796.015625 190.027344 797.101562 177.25 796.824219 C 164.476562 796.550781 151.875 794.917969 139.449219 791.929688 C 126.792969 789.125 114.601562 784.953125 102.882812 779.417969 C 93.171875 774.816406 84.449219 768.789062 76.714844 761.332031 C 70.296875 755.1875 65.332031 748.035156 61.816406 739.875 C 61.644531 739.269531 61.308594 738.78125 60.804688 738.402344 C 59.558594 739.171875 59.054688 740.5625 58.234375 741.675781 C 51.398438 751.207031 42.570312 757.75 30.84375 759.890625 C 28.101562 760.472656 25.332031 760.667969 22.539062 760.472656 C 19.742188 760.28125 17.027344 759.710938 14.390625 758.765625 C 12.78125 758.222656 11.261719 757.496094 9.832031 756.578125 C 8.398438 755.664062 7.101562 754.589844 5.933594 753.359375 C 4.765625 752.125 3.765625 750.769531 2.929688 749.289062 C 2.09375 747.8125 1.449219 746.253906 0.996094 744.617188 C 0.566406 743.371094 0.375 742.085938 0.433594 740.769531 C 0.488281 739.449219 0.785156 738.1875 1.324219 736.980469 C 1.570312 736.457031 1.914062 735.886719 2.582031 735.949219 C 3.253906 736.015625 3.386719 736.671875 3.582031 737.242188 C 7.097656 747.054688 15.390625 751.46875 25.871094 749.246094 C 29.320312 748.511719 32.558594 747.234375 35.574219 745.40625 C 38.59375 743.582031 41.230469 741.3125 43.484375 738.601562 C 47.152344 734.195312 50.0625 729.339844 52.21875 724.027344 C 53.589844 720.757812 54.964844 717.488281 56.09375 714.101562 C 61.832031 696.882812 73.835938 685.628906 89.960938 678.304688 C 100.5 673.691406 111.519531 671.140625 123.011719 670.648438 C 143.75 669.375 163.898438 673.003906 183.652344 678.746094 C 208.609375 685.988281 232.597656 695.800781 256.230469 706.546875 C 269.164062 712.433594 282.035156 718.46875 295.363281 723.457031 C 311.429688 729.4375 327.992188 733.289062 345.046875 735.019531 C 348.5 735.15625 351.902344 734.804688 355.25 733.957031 C 358.089844 733.476562 360.875 732.769531 363.597656 731.839844 C 366.324219 730.910156 368.953125 729.761719 371.492188 728.402344 C 374.03125 727.042969 376.441406 725.488281 378.726562 723.738281 C 381.011719 721.984375 383.140625 720.058594 385.113281 717.960938 C 389.980469 712.757812 394.554688 707.304688 398.835938 701.609375 C 405.691406 692.378906 413.144531 683.65625 421.191406 675.441406 C 429.011719 667.539062 437.867188 661.042969 447.75 655.949219 C 453.59375 652.964844 459.753906 650.929688 466.226562 649.847656 C 469.851562 649.296875 473.488281 649.199219 477.132812 649.550781 C 480.78125 649.902344 484.332031 650.695312 487.78125 651.925781 Z M 487.78125 651.925781 " fill-opacity="1" fill-rule="nonzero"/></svg>