<svg xmlns="http://www.w3.org/2000/svg" xmlns:xlink="http://www.w3.org/1999/xlink" width="1080" zoomAndPan="magnify" viewBox="0 0 810 809.999993" height="1080" preserveAspectRatio="xMidYMid meet" version="1.0"><defs><clipPath id="6428bef77a"><path d="M 0 145.582031 L 342 145.582031 L 342 311 L 0 311 Z M 0 145.582031 " clip-rule="nonzero"/></clipPath><clipPath id="65686ed2f8"><path d="M 463 145.582031 L 806 145.582031 L 806 311 L 463 311 Z M 463 145.582031 " clip-rule="nonzero"/></clipPath><clipPath id="538ced49ec"><path d="M 490 388 L 579.441406 388 L 579.441406 398 L 490 398 Z M 490 388 " clip-rule="nonzero"/></clipPath><clipPath id="13020543de"><path d="M 450 380.136719 L 467 380.136719 L 467 391 L 450 391 Z M 450 380.136719 " clip-rule="nonzero"/></clipPath><clipPath id="a2fb524f3f"><path d="M 251.75 388 L 335 388 L 335 398 L 251.75 398 Z M 251.75 388 " clip-rule="nonzero"/></clipPath><clipPath id="e2dd7a7c5f"><path d="M 358 380.136719 L 375 380.136719 L 375 391 L 358 391 Z M 358 380.136719 " clip-rule="nonzero"/></clipPath></defs><path fill="#4a2354" d="M 444.558594 367.632812 L 433.421875 367.632812 C 435.3125 365.371094 437.0625 363.007812 438.679688 360.546875 C 440.292969 358.082031 441.761719 355.535156 443.085938 352.902344 C 444.40625 350.269531 445.574219 347.570312 446.585938 344.804688 C 447.59375 342.035156 448.445312 339.21875 449.128906 336.355469 C 449.816406 333.492188 450.335938 330.59375 450.6875 327.671875 C 451.039062 324.746094 451.222656 321.8125 451.234375 318.863281 C 451.25 315.917969 451.09375 312.980469 450.769531 310.054688 C 450.445312 307.125 449.953125 304.226562 449.292969 301.355469 C 449.292969 301.355469 462.050781 323.175781 444.558594 367.632812 Z M 444.558594 367.632812 " fill-opacity="1" fill-rule="nonzero"/><g clip-path="url(#6428bef77a)"><path fill="#4a2354" d="M 333.375 310.191406 C 333.375 310.191406 325.082031 271.101562 341.71875 262.808594 C 341.71875 262.808594 290.996094 250.003906 289.328125 224.214844 C 287.660156 198.425781 305.964844 202.121094 305.964844 202.121094 C 305.964844 202.121094 281.03125 182.148438 145.546875 177.144531 C 10.0625 172.140625 0.0546875 145.582031 0.0546875 145.582031 C 0.0546875 145.582031 11.6875 179.667969 130.804688 190.667969 C 249.921875 201.671875 252.988281 212.265625 252.988281 212.265625 C 240.714844 211.828125 228.527344 212.652344 216.421875 214.746094 C 216.421875 214.746094 285.042969 217.226562 300.375 264.070312 C 293.230469 264.519531 286.273438 265.902344 279.5 268.21875 C 279.5 268.21875 312.636719 262.808594 333.375 310.191406 Z M 333.375 310.191406 " fill-opacity="1" fill-rule="nonzero"/></g><path fill="#4a2354" d="M 209.523438 214.023438 C 209.523438 214.023438 163.628906 206.628906 127.875 214.023438 C 92.121094 221.417969 78.007812 223.988281 53.074219 223.042969 C 66.066406 226.558594 79.273438 228.808594 92.699219 229.789062 C 106.121094 230.765625 119.515625 230.457031 132.878906 228.855469 C 179.40625 223.851562 204.699219 241.210938 204.699219 241.210938 C 196.992188 240.625 162.320312 237.46875 101.273438 262.085938 C 101.273438 262.085938 121.246094 253.070312 160.289062 262.085938 C 199.335938 271.101562 235.992188 271.101562 249.335938 266.144531 C 249.335938 266.144531 204.25 280.390625 197.710938 302.84375 C 197.710938 302.84375 243.429688 271.285156 282.519531 302.84375 C 276.953125 304.101562 271.585938 305.9375 266.414062 308.355469 C 261.246094 310.773438 256.394531 313.714844 251.859375 317.179688 C 251.859375 317.179688 298.390625 304.738281 332.476562 361.230469 C 332.476562 361.230469 323.457031 275.117188 240.183594 280.347656 C 242.777344 279.039062 245.25 277.527344 247.589844 275.808594 C 249.933594 274.089844 252.117188 272.1875 254.144531 270.105469 C 256.171875 268.023438 258.007812 265.785156 259.660156 263.394531 C 261.3125 261.003906 262.757812 258.496094 263.988281 255.863281 C 263.988281 255.863281 223.90625 268.488281 192.796875 254.015625 C 192.796875 254.015625 220.253906 249.011719 239.371094 252.347656 C 239.371094 252.347656 215.25 225.746094 157.902344 219.929688 C 157.855469 219.929688 173.183594 212.21875 209.523438 214.023438 Z M 209.523438 214.023438 " fill-opacity="1" fill-rule="nonzero"/><g clip-path="url(#65686ed2f8)"><path fill="#4a2354" d="M 471.972656 310.191406 C 471.972656 310.191406 480.265625 271.101562 463.765625 262.808594 C 463.765625 262.808594 514.488281 250.003906 516.15625 224.214844 C 517.824219 198.425781 499.519531 202.121094 499.519531 202.121094 C 499.519531 202.121094 524.316406 182.148438 659.84375 177.144531 C 795.375 172.140625 805.292969 145.582031 805.292969 145.582031 C 805.292969 145.582031 793.570312 179.667969 674.769531 190.667969 C 555.96875 201.671875 552.585938 212.265625 552.585938 212.265625 C 564.859375 211.828125 577.046875 212.652344 589.152344 214.746094 C 589.152344 214.746094 520.574219 217.226562 505.199219 264.070312 C 512.34375 264.519531 519.300781 265.902344 526.074219 268.21875 C 526.074219 268.21875 492.710938 262.808594 471.972656 310.191406 Z M 471.972656 310.191406 " fill-opacity="1" fill-rule="nonzero"/></g><path fill="#4a2354" d="M 595.824219 214.023438 C 595.824219 214.023438 641.722656 206.628906 677.472656 214.023438 C 713.226562 221.417969 727.339844 223.988281 752.273438 223.042969 C 739.28125 226.558594 726.074219 228.808594 712.652344 229.789062 C 699.226562 230.765625 685.832031 230.457031 672.46875 228.855469 C 625.941406 223.851562 600.648438 241.210938 600.648438 241.210938 C 608.355469 240.625 643.027344 237.46875 704.074219 262.085938 C 704.074219 262.085938 684.101562 253.070312 645.058594 262.085938 C 606.011719 271.101562 569.359375 271.101562 556.011719 266.144531 C 556.011719 266.144531 601.097656 280.390625 607.636719 302.84375 C 607.636719 302.84375 561.917969 271.285156 522.828125 302.84375 C 528.40625 304.0625 533.789062 305.855469 538.980469 308.226562 C 544.171875 310.597656 549.050781 313.492188 553.621094 316.910156 C 553.621094 316.910156 507.046875 304.691406 472.78125 361.183594 C 472.78125 361.183594 481.800781 275.070312 565.074219 280.300781 C 562.464844 279.003906 559.980469 277.503906 557.621094 275.789062 C 555.261719 274.078125 553.0625 272.183594 551.019531 270.105469 C 548.980469 268.023438 547.125 265.789062 545.457031 263.398438 C 543.792969 261.011719 542.335938 258.496094 541.089844 255.863281 C 541.089844 255.863281 581.171875 268.488281 612.28125 254.015625 C 612.28125 254.015625 584.820312 249.011719 565.707031 252.347656 C 565.707031 252.347656 589.828125 225.746094 647.175781 219.929688 C 647.535156 219.929688 632.164062 212.21875 595.824219 214.023438 Z M 595.824219 214.023438 " fill-opacity="1" fill-rule="nonzero"/><path fill="#4a2354" d="M 450.238281 222.90625 C 449.761719 222.734375 449.265625 222.644531 448.753906 222.640625 C 448.246094 222.632812 447.746094 222.714844 447.265625 222.878906 C 446.78125 223.042969 446.339844 223.28125 445.9375 223.59375 C 445.535156 223.910156 445.195312 224.28125 444.917969 224.710938 C 438.96875 235.035156 434.550781 233.367188 434.550781 233.367188 C 434.550781 233.367188 438.246094 233.367188 440.953125 227.414062 C 444.917969 218.984375 446.09375 220.199219 446.09375 220.199219 C 445.753906 219.570312 445.367188 218.972656 444.921875 218.410156 C 444.480469 217.847656 443.992188 217.332031 443.457031 216.855469 C 442.921875 216.382812 442.347656 215.957031 441.738281 215.585938 C 441.125 215.214844 440.488281 214.898438 439.820312 214.640625 C 439.152344 214.378906 438.46875 214.183594 437.765625 214.046875 C 437.066406 213.910156 436.355469 213.835938 435.640625 213.828125 C 434.925781 213.816406 434.214844 213.871094 433.507812 213.984375 C 432.804688 214.101562 432.113281 214.28125 431.4375 214.519531 L 429.546875 215.285156 L 427.515625 214.382812 C 419.402344 211.09375 409.03125 210.507812 391.449219 218.894531 C 372.152344 227.910156 385.136719 259.472656 385.136719 259.472656 C 354.070312 285.171875 363.3125 362.582031 363.3125 362.582031 C 357.679688 345.894531 354.671875 328.75 354.296875 311.140625 C 353.753906 285.171875 370.300781 252.527344 371.65625 238.414062 C 371.738281 237.453125 371.738281 236.492188 371.65625 235.527344 C 371.574219 234.566406 371.410156 233.617188 371.167969 232.683594 C 370.921875 231.75 370.597656 230.84375 370.195312 229.964844 C 369.792969 229.089844 369.316406 228.25 368.769531 227.453125 C 368.222656 226.660156 367.609375 225.914062 366.9375 225.226562 C 366.261719 224.535156 365.53125 223.90625 364.746094 223.34375 C 363.964844 222.777344 363.136719 222.285156 362.269531 221.863281 C 361.398438 221.441406 360.5 221.097656 359.570312 220.832031 C 359.570312 220.832031 349.832031 222.679688 389.914062 211.816406 C 419.492188 203.925781 428.375 207.53125 430.492188 210.867188 C 434.199219 210.136719 437.835938 210.390625 441.402344 211.632812 C 441.863281 211.816406 442.296875 212.039062 442.710938 212.3125 L 443.929688 213.078125 C 446.875 215.8125 448.980469 219.089844 450.238281 222.90625 Z M 450.238281 222.90625 " fill-opacity="1" fill-rule="nonzero"/><path fill="#4a2354" d="M 394.152344 268.804688 C 394.152344 268.804688 362.1875 320.335938 405.832031 367.632812 L 376.523438 367.632812 C 373.824219 358.796875 372.269531 349.761719 371.859375 340.53125 C 371.445312 331.300781 372.1875 322.164062 374.089844 313.125 C 375.527344 305.015625 377.945312 297.207031 381.339844 289.703125 C 384.738281 282.203125 389.007812 275.234375 394.152344 268.804688 Z M 394.152344 268.804688 " fill-opacity="1" fill-rule="nonzero"/><g clip-path="url(#538ced49ec)"><path fill="#4a2354" d="M 524.375 391.625 C 520.191406 391.625 515.976562 391.8125 511.820312 391.304688 C 510.347656 391.113281 508.816406 390.894531 507.503906 390.195312 C 507.445312 390.152344 507.371094 390.105469 507.3125 390.0625 C 507.253906 390.019531 507.179688 389.976562 507.125 389.945312 L 506.890625 389.816406 L 506.773438 389.742188 L 506.65625 389.683594 L 506.421875 389.554688 L 506.191406 389.4375 L 505.957031 389.320312 C 505.882812 389.277344 505.796875 389.246094 505.707031 389.203125 L 505.460938 389.101562 C 505.140625 388.96875 504.804688 388.839844 504.46875 388.734375 C 504.308594 388.679688 504.132812 388.632812 503.957031 388.589844 L 503.695312 388.53125 L 503.566406 388.503906 L 503.433594 388.472656 C 502.53125 388.285156 501.597656 388.195312 500.664062 388.226562 C 499.730469 388.253906 498.796875 388.371094 497.890625 388.589844 C 496.070312 389.027344 494.320312 389.828125 492.746094 390.894531 C 491.957031 391.433594 491.214844 392.03125 490.527344 392.6875 L 490.484375 392.730469 L 490.527344 392.777344 C 491.214844 393.433594 491.957031 394.03125 492.746094 394.570312 C 494.320312 395.632812 496.070312 396.4375 497.890625 396.875 C 498.8125 397.09375 499.730469 397.222656 500.664062 397.238281 C 501.597656 397.265625 502.515625 397.179688 503.433594 396.988281 L 503.566406 396.960938 L 503.695312 396.933594 L 503.957031 396.875 C 504.132812 396.828125 504.292969 396.785156 504.46875 396.726562 C 504.804688 396.625 505.140625 396.507812 505.460938 396.378906 L 505.707031 396.277344 C 505.796875 396.246094 505.871094 396.203125 505.957031 396.160156 L 506.191406 396.042969 L 506.421875 395.925781 L 506.65625 395.792969 L 506.773438 395.734375 L 506.890625 395.664062 L 507.125 395.53125 C 507.125 395.53125 507.238281 395.460938 507.3125 395.414062 C 507.386719 395.371094 507.445312 395.3125 507.515625 395.269531 C 508.828125 394.585938 510.359375 394.367188 511.820312 394.175781 C 515.976562 393.664062 520.203125 393.855469 524.375 393.855469 C 579.132812 393.8125 776.996094 393.855469 776.996094 393.855469 L 776.996094 391.667969 C 776.996094 391.667969 579.132812 391.695312 524.375 391.667969 Z M 524.375 391.625 " fill-opacity="1" fill-rule="nonzero"/></g><path fill="#4a2354" d="M 466.742188 397.078125 C 466.683594 396.640625 466.597656 396.21875 466.496094 395.792969 C 466.394531 395.371094 466.246094 394.964844 466.085938 394.570312 C 466.070312 394.527344 466.058594 394.496094 466.042969 394.453125 C 465.851562 394.640625 465.648438 394.832031 465.445312 395.007812 C 465.023438 395.355469 464.554688 395.679688 464.058594 395.941406 C 463.5625 396.203125 463.039062 396.421875 462.5 396.566406 C 461.960938 396.714844 461.421875 396.816406 460.867188 396.875 C 460.328125 396.917969 459.773438 396.917969 459.234375 396.875 C 458.691406 396.828125 458.167969 396.742188 457.644531 396.625 C 457.117188 396.507812 456.609375 396.347656 456.113281 396.171875 C 455.617188 395.984375 455.132812 395.78125 454.667969 395.53125 C 454.433594 395.414062 454.203125 395.285156 453.984375 395.136719 L 453.808594 395.035156 L 453.648438 394.933594 C 453.546875 394.859375 453.429688 394.789062 453.328125 394.714844 C 452.976562 394.480469 452.640625 394.21875 452.304688 393.957031 C 452.101562 394.175781 451.910156 394.410156 451.707031 394.640625 C 451.328125 395.109375 450.980469 395.589844 450.65625 396.101562 C 452.015625 397.355469 453.269531 398.667969 454.492188 399.964844 C 455.148438 400.664062 455.804688 401.351562 456.476562 402.019531 L 456.722656 402.269531 L 456.957031 402.503906 C 457.046875 402.574219 457.117188 402.664062 457.207031 402.734375 L 457.453125 402.953125 C 457.789062 403.246094 458.140625 403.523438 458.488281 403.785156 C 458.839844 404.046875 459.203125 404.28125 459.582031 404.484375 C 459.960938 404.691406 460.339844 404.863281 460.71875 404.996094 C 461.097656 405.128906 461.476562 405.214844 461.859375 405.257812 L 462.132812 405.257812 C 462.132812 405.257812 462.179688 405.289062 462.207031 405.289062 L 462.542969 405.289062 C 462.542969 405.289062 462.628906 405.273438 462.675781 405.257812 L 462.804688 405.257812 C 462.804688 405.257812 462.847656 405.230469 462.863281 405.230469 L 462.921875 405.230469 C 463.273438 405.140625 463.609375 405.011719 463.914062 404.835938 C 463.929688 404.835938 463.957031 404.820312 463.972656 404.808594 L 464.03125 404.761719 L 464.148438 404.691406 C 464.148438 404.691406 464.191406 404.660156 464.207031 404.644531 L 464.265625 404.601562 L 464.378906 404.515625 C 464.378906 404.515625 464.425781 404.484375 464.4375 404.472656 L 464.496094 404.425781 L 464.613281 404.339844 L 464.714844 404.238281 L 464.773438 404.195312 L 464.933594 404.035156 L 465.035156 403.917969 L 465.082031 403.859375 L 465.125 403.800781 L 465.226562 403.683594 L 465.3125 403.566406 L 465.359375 403.507812 L 465.488281 403.332031 L 465.578125 403.203125 C 465.796875 402.867188 465.984375 402.503906 466.144531 402.125 C 466.304688 401.746094 466.4375 401.335938 466.539062 400.925781 C 466.640625 400.519531 466.714844 400.097656 466.757812 399.660156 C 466.800781 399.234375 466.816406 398.796875 466.816406 398.359375 C 466.816406 398.140625 466.800781 397.921875 466.785156 397.703125 C 466.773438 397.484375 466.742188 397.265625 466.714844 397.0625 Z M 466.742188 397.078125 " fill-opacity="1" fill-rule="nonzero"/><path fill="#4a2354" d="M 462.964844 390.835938 C 462.617188 390.648438 462.238281 390.5 461.859375 390.382812 C 461.476562 390.265625 461.070312 390.195312 460.660156 390.164062 C 460.253906 390.136719 459.832031 390.136719 459.40625 390.164062 C 458.984375 390.195312 458.5625 390.265625 458.152344 390.355469 C 457.320312 390.542969 456.503906 390.851562 455.734375 391.246094 C 455.542969 391.347656 455.351562 391.449219 455.164062 391.566406 L 455.03125 391.652344 L 454.902344 391.742188 C 454.8125 391.796875 454.710938 391.855469 454.625 391.914062 C 454.421875 392.0625 454.214844 392.207031 454.011719 392.351562 C 454.214844 392.511719 454.421875 392.660156 454.625 392.789062 C 454.710938 392.847656 454.8125 392.90625 454.902344 392.964844 L 455.03125 393.054688 L 455.164062 393.140625 C 455.351562 393.257812 455.542969 393.359375 455.734375 393.460938 C 456.503906 393.855469 457.320312 394.175781 458.152344 394.351562 C 458.578125 394.4375 458.984375 394.511719 459.40625 394.539062 C 459.832031 394.570312 460.238281 394.570312 460.660156 394.539062 C 461.070312 394.496094 461.476562 394.421875 461.859375 394.320312 C 462.25 394.21875 462.617188 394.058594 462.964844 393.871094 C 463.316406 393.679688 463.652344 393.460938 463.957031 393.199219 C 464.265625 392.9375 464.554688 392.644531 464.816406 392.339844 C 464.554688 392.015625 464.277344 391.726562 463.957031 391.476562 C 463.652344 391.214844 463.316406 390.996094 462.964844 390.808594 Z M 462.964844 390.835938 " fill-opacity="1" fill-rule="nonzero"/><g clip-path="url(#13020543de)"><path fill="#4a2354" d="M 452.304688 390.792969 C 452.640625 390.53125 452.976562 390.265625 453.328125 390.035156 C 453.429688 389.960938 453.546875 389.886719 453.648438 389.816406 L 453.808594 389.714844 L 453.984375 389.609375 C 454.203125 389.480469 454.433594 389.347656 454.667969 389.21875 C 455.136719 388.96875 455.617188 388.765625 456.113281 388.574219 C 456.609375 388.386719 457.117188 388.242188 457.644531 388.125 C 458.167969 388.007812 458.691406 387.917969 459.234375 387.875 C 459.773438 387.832031 460.3125 387.832031 460.867188 387.875 C 461.421875 387.917969 461.960938 388.023438 462.5 388.183594 C 463.039062 388.328125 463.5625 388.546875 464.058594 388.808594 C 464.554688 389.070312 465.023438 389.390625 465.445312 389.742188 C 465.648438 389.917969 465.851562 390.105469 466.042969 390.296875 C 466.058594 390.253906 466.070312 390.222656 466.085938 390.179688 C 466.246094 389.785156 466.378906 389.363281 466.496094 388.953125 C 466.597656 388.53125 466.683594 388.109375 466.742188 387.671875 L 466.773438 387.511719 L 466.773438 387.351562 L 466.800781 387.261719 L 466.800781 387.191406 C 466.800781 387.191406 466.816406 387.089844 466.816406 387.03125 C 466.832031 386.824219 466.832031 386.605469 466.832031 386.402344 C 466.832031 385.980469 466.785156 385.570312 466.714844 385.148438 C 466.566406 384.316406 466.304688 383.515625 465.910156 382.785156 C 465.519531 382.058594 465.007812 381.429688 464.394531 380.964844 C 464.089844 380.730469 463.769531 380.539062 463.417969 380.410156 C 463.066406 380.277344 462.71875 380.191406 462.339844 380.160156 C 462.148438 380.148438 461.960938 380.148438 461.769531 380.160156 C 461.582031 380.160156 461.390625 380.191406 461.203125 380.234375 C 461.011719 380.261719 460.820312 380.308594 460.617188 380.367188 C 460.574219 380.367188 460.515625 380.394531 460.472656 380.410156 C 460.429688 380.425781 460.382812 380.4375 460.328125 380.453125 C 460.222656 380.496094 460.121094 380.527344 460.019531 380.570312 C 459.21875 380.875 458.460938 381.300781 457.714844 381.808594 C 456.972656 382.304688 456.273438 382.886719 455.570312 383.5 C 454.871094 384.113281 454.1875 384.769531 453.488281 385.425781 C 453.136719 385.761719 452.785156 386.097656 452.421875 386.417969 C 452.335938 386.503906 452.246094 386.578125 452.144531 386.664062 C 452.058594 386.753906 451.957031 386.824219 451.867188 386.914062 L 451.328125 387.394531 C 451.023438 387.671875 450.703125 387.933594 450.394531 388.210938 C 450.789062 388.867188 451.226562 389.507812 451.707031 390.105469 C 451.898438 390.339844 452.101562 390.574219 452.304688 390.792969 Z M 452.304688 390.792969 " fill-opacity="1" fill-rule="nonzero"/></g><path fill="#4a2354" d="M 448.628906 389.726562 C 447.640625 390.558594 446.617188 391.390625 445.582031 392.179688 C 445.613281 392.191406 445.640625 392.207031 445.65625 392.222656 C 446.472656 392.761719 447.273438 393.328125 448.0625 393.914062 C 448.25 394.058594 448.457031 394.21875 448.660156 394.367188 C 448.746094 394.4375 448.835938 394.496094 448.921875 394.570312 C 449.242188 394.089844 449.578125 393.636719 449.941406 393.183594 C 450.175781 392.90625 450.410156 392.628906 450.644531 392.367188 C 450.394531 392.105469 450.160156 391.828125 449.941406 391.550781 C 449.476562 390.96875 449.039062 390.355469 448.644531 389.726562 Z M 448.628906 389.726562 " fill-opacity="1" fill-rule="nonzero"/><path fill="#4a2354" d="M 482.507812 390.210938 C 481.953125 389.640625 481.414062 388.953125 480.917969 388.136719 C 480.667969 387.730469 480.421875 387.292969 480.1875 386.824219 C 479.96875 386.359375 479.75 385.863281 479.5625 385.339844 C 479.519531 385.222656 479.472656 385.089844 479.429688 384.972656 L 479.402344 384.972656 L 479.226562 384.945312 C 479.109375 384.929688 478.992188 384.902344 478.863281 384.886719 C 478.378906 384.8125 477.882812 384.753906 477.386719 384.726562 C 477.257812 384.726562 477.140625 384.710938 477.007812 384.695312 C 476.878906 384.695312 476.761719 384.695312 476.628906 384.695312 L 475.871094 384.695312 C 475.363281 384.695312 474.867188 384.726562 474.355469 384.785156 C 474.121094 384.8125 473.886719 384.84375 473.65625 384.871094 L 473.449219 385.628906 C 473.128906 386.839844 472.691406 387.964844 472.152344 389 C 471.671875 389.902344 471.132812 390.675781 470.550781 391.332031 C 470.082031 391.855469 469.570312 392.339844 469.03125 392.746094 L 469.0625 392.746094 C 469.0625 392.746094 469.089844 392.789062 469.105469 392.804688 C 469.25 392.90625 469.382812 393.023438 469.484375 393.109375 C 469.511719 393.140625 469.558594 393.167969 469.585938 393.199219 L 469.617188 393.199219 L 469.644531 393.242188 C 469.90625 393.476562 470.242188 393.796875 470.5625 394.175781 C 471.148438 394.832031 471.6875 395.605469 472.167969 396.507812 C 472.707031 397.542969 473.144531 398.667969 473.464844 399.878906 L 473.667969 400.636719 C 473.902344 400.664062 474.136719 400.695312 474.371094 400.722656 C 474.867188 400.78125 475.375 400.796875 475.886719 400.8125 C 476.398438 400.8125 476.894531 400.8125 477.386719 400.765625 C 477.882812 400.738281 478.378906 400.679688 478.863281 400.605469 C 478.976562 400.59375 479.109375 400.5625 479.226562 400.546875 L 479.402344 400.519531 L 479.429688 400.519531 C 479.472656 400.386719 479.515625 400.269531 479.5625 400.15625 C 479.75 399.628906 479.96875 399.132812 480.1875 398.667969 C 480.421875 398.199219 480.65625 397.761719 480.917969 397.355469 C 481.429688 396.539062 481.96875 395.851562 482.507812 395.285156 C 483.601562 394.148438 484.722656 393.503906 485.671875 393.15625 C 486.460938 392.863281 487.144531 392.777344 487.640625 392.761719 C 487.128906 392.730469 486.460938 392.644531 485.671875 392.351562 C 484.722656 392.015625 483.601562 391.359375 482.507812 390.222656 Z M 482.507812 390.210938 " fill-opacity="1" fill-rule="nonzero"/><g clip-path="url(#a2fb524f3f)"><path fill="#4a2354" d="M 332.082031 390.894531 C 330.507812 389.828125 328.757812 389.027344 326.933594 388.589844 C 326.015625 388.371094 325.082031 388.242188 324.164062 388.226562 C 323.230469 388.195312 322.3125 388.285156 321.410156 388.472656 L 321.277344 388.503906 L 321.144531 388.53125 L 320.882812 388.589844 C 320.707031 388.632812 320.546875 388.679688 320.371094 388.734375 C 320.039062 388.839844 319.703125 388.953125 319.382812 389.101562 L 319.132812 389.203125 C 319.046875 389.230469 318.972656 389.277344 318.898438 389.320312 L 318.785156 389.378906 L 318.433594 389.554688 L 318.199219 389.683594 L 318.082031 389.742188 L 317.964844 389.816406 L 317.734375 389.945312 C 317.734375 389.945312 317.617188 390.019531 317.542969 390.0625 C 317.484375 390.105469 317.425781 390.152344 317.355469 390.195312 C 316.027344 390.894531 314.496094 391.113281 313.039062 391.304688 C 308.882812 391.8125 304.652344 391.625 300.480469 391.625 C 245.722656 391.667969 47.859375 391.625 47.859375 391.625 L 47.859375 393.8125 C 47.859375 393.8125 245.722656 393.78125 300.480469 393.8125 C 304.667969 393.8125 308.882812 393.621094 313.039062 394.132812 C 314.496094 394.308594 316.011719 394.539062 317.339844 395.226562 C 317.414062 395.285156 317.472656 395.328125 317.542969 395.371094 C 317.601562 395.414062 317.675781 395.460938 317.734375 395.488281 L 317.964844 395.621094 L 318.082031 395.691406 L 318.199219 395.75 L 318.433594 395.882812 L 318.785156 396.058594 L 318.898438 396.117188 C 318.988281 396.160156 319.058594 396.1875 319.132812 396.230469 L 319.382812 396.335938 C 319.703125 396.464844 320.039062 396.597656 320.371094 396.683594 C 320.535156 396.742188 320.707031 396.785156 320.882812 396.828125 L 321.144531 396.886719 L 321.277344 396.917969 L 321.410156 396.945312 C 322.3125 397.136719 323.246094 397.222656 324.179688 397.195312 C 325.113281 397.164062 326.046875 397.046875 326.949219 396.828125 C 328.773438 396.390625 330.523438 395.589844 332.097656 394.527344 C 332.886719 393.984375 333.628906 393.386719 334.3125 392.730469 L 334.359375 392.6875 L 334.3125 392.644531 C 333.628906 391.988281 332.886719 391.390625 332.097656 390.851562 Z M 332.082031 390.894531 " fill-opacity="1" fill-rule="nonzero"/></g><path fill="#4a2354" d="M 372.535156 393.957031 C 372.199219 394.21875 371.867188 394.480469 371.515625 394.714844 C 371.414062 394.789062 371.296875 394.859375 371.195312 394.933594 L 371.035156 395.035156 L 370.859375 395.136719 C 370.640625 395.269531 370.40625 395.402344 370.175781 395.53125 C 369.707031 395.78125 369.226562 395.984375 368.730469 396.171875 C 368.234375 396.363281 367.722656 396.507812 367.199219 396.625 C 366.675781 396.742188 366.148438 396.828125 365.609375 396.875 C 365.070312 396.917969 364.53125 396.917969 363.976562 396.875 C 363.421875 396.828125 362.882812 396.726562 362.34375 396.566406 C 361.804688 396.421875 361.277344 396.203125 360.78125 395.941406 C 360.285156 395.679688 359.820312 395.355469 359.398438 395.007812 C 359.191406 394.832031 358.988281 394.640625 358.800781 394.453125 C 358.785156 394.496094 358.769531 394.527344 358.753906 394.570312 C 358.59375 394.964844 358.464844 395.386719 358.347656 395.792969 C 358.246094 396.21875 358.15625 396.640625 358.097656 397.078125 C 358.070312 397.296875 358.039062 397.515625 358.027344 397.71875 C 358.011719 397.9375 357.996094 398.15625 357.996094 398.375 C 357.996094 398.8125 357.996094 399.25 358.054688 399.671875 C 358.097656 400.097656 358.171875 400.519531 358.273438 400.941406 C 358.375 401.351562 358.507812 401.757812 358.667969 402.136719 C 358.828125 402.515625 359.019531 402.882812 359.238281 403.21875 L 359.324219 403.347656 L 359.410156 403.464844 L 359.457031 403.523438 L 359.585938 403.699219 L 359.6875 403.816406 L 359.734375 403.875 L 359.777344 403.933594 L 359.878906 404.046875 L 359.980469 404.152344 L 360.039062 404.207031 L 360.097656 404.253906 L 360.199219 404.355469 L 360.375 404.484375 C 360.375 404.484375 360.417969 404.515625 360.433594 404.53125 L 360.609375 404.660156 C 360.609375 404.660156 360.652344 404.691406 360.664062 404.703125 L 360.78125 404.777344 L 360.839844 404.820312 C 360.839844 404.820312 360.882812 404.851562 360.898438 404.851562 C 361.21875 405.027344 361.539062 405.15625 361.890625 405.230469 L 361.949219 405.230469 C 361.949219 405.230469 361.992188 405.246094 362.007812 405.257812 L 362.136719 405.257812 C 362.136719 405.257812 362.226562 405.289062 362.269531 405.289062 L 362.605469 405.289062 C 362.605469 405.289062 362.648438 405.289062 362.679688 405.289062 L 362.957031 405.289062 C 363.335938 405.230469 363.714844 405.140625 364.09375 404.996094 C 364.472656 404.863281 364.851562 404.691406 365.230469 404.484375 C 365.609375 404.28125 365.972656 404.046875 366.324219 403.785156 C 366.675781 403.523438 367.023438 403.246094 367.359375 402.953125 L 367.605469 402.734375 C 367.695312 402.664062 367.769531 402.589844 367.855469 402.503906 L 368.089844 402.269531 L 368.335938 402.019531 C 369.007812 401.351562 369.664062 400.664062 370.320312 399.964844 C 371.558594 398.667969 372.796875 397.355469 374.15625 396.101562 C 373.835938 395.589844 373.484375 395.109375 373.105469 394.640625 C 372.914062 394.410156 372.710938 394.175781 372.507812 393.957031 Z M 372.535156 393.957031 " fill-opacity="1" fill-rule="nonzero"/><path fill="#4a2354" d="M 369.808594 391.652344 L 369.679688 391.566406 C 369.488281 391.449219 369.300781 391.347656 369.109375 391.246094 C 368.335938 390.851562 367.519531 390.53125 366.6875 390.355469 C 366.265625 390.265625 365.855469 390.195312 365.433594 390.164062 C 365.011719 390.136719 364.601562 390.136719 364.179688 390.164062 C 363.773438 390.210938 363.363281 390.28125 362.984375 390.382812 C 362.605469 390.484375 362.226562 390.648438 361.875 390.835938 C 361.527344 391.027344 361.191406 391.246094 360.882812 391.507812 C 360.578125 391.769531 360.285156 392.0625 360.023438 392.367188 C 360.285156 392.6875 360.5625 392.980469 360.882812 393.226562 C 361.191406 393.492188 361.527344 393.710938 361.875 393.898438 C 362.226562 394.089844 362.605469 394.234375 362.984375 394.351562 C 363.378906 394.46875 363.773438 394.539062 364.179688 394.570312 C 364.589844 394.597656 365.011719 394.597656 365.433594 394.570312 C 365.855469 394.539062 366.28125 394.46875 366.6875 394.378906 C 367.519531 394.191406 368.335938 393.882812 369.109375 393.492188 C 369.300781 393.386719 369.488281 393.285156 369.679688 393.167969 L 369.808594 393.082031 L 369.941406 392.996094 C 370.027344 392.9375 370.128906 392.878906 370.21875 392.820312 C 370.421875 392.671875 370.625 392.527344 370.832031 392.382812 C 370.625 392.222656 370.421875 392.074219 370.21875 391.945312 C 370.128906 391.886719 370.027344 391.828125 369.941406 391.769531 L 369.808594 391.683594 Z M 369.808594 391.652344 " fill-opacity="1" fill-rule="nonzero"/><g clip-path="url(#e2dd7a7c5f)"><path fill="#4a2354" d="M 358.039062 387.191406 L 358.039062 387.351562 L 358.070312 387.511719 L 358.097656 387.671875 C 358.15625 388.109375 358.246094 388.53125 358.347656 388.953125 C 358.449219 389.378906 358.59375 389.785156 358.753906 390.179688 C 358.769531 390.222656 358.785156 390.253906 358.800781 390.296875 C 358.988281 390.105469 359.191406 389.917969 359.398438 389.742188 C 359.820312 389.390625 360.285156 389.070312 360.78125 388.808594 C 361.277344 388.546875 361.804688 388.328125 362.34375 388.183594 C 362.882812 388.035156 363.421875 387.933594 363.976562 387.875 C 364.515625 387.832031 365.070312 387.832031 365.609375 387.875 C 366.148438 387.917969 366.675781 388.007812 367.199219 388.125 C 367.722656 388.242188 368.234375 388.402344 368.730469 388.574219 C 369.226562 388.765625 369.707031 388.96875 370.175781 389.21875 C 370.40625 389.335938 370.640625 389.464844 370.859375 389.609375 L 371.035156 389.714844 L 371.195312 389.816406 C 371.296875 389.886719 371.414062 389.960938 371.515625 390.035156 C 371.867188 390.265625 372.199219 390.53125 372.535156 390.792969 C 372.742188 390.574219 372.929688 390.339844 373.132812 390.105469 C 373.617188 389.507812 374.054688 388.882812 374.460938 388.210938 C 374.140625 387.933594 373.835938 387.671875 373.527344 387.394531 L 372.988281 386.914062 C 372.902344 386.824219 372.800781 386.753906 372.710938 386.664062 C 372.625 386.578125 372.523438 386.503906 372.433594 386.417969 C 372.070312 386.082031 371.71875 385.746094 371.371094 385.425781 C 370.667969 384.769531 369.984375 384.113281 369.285156 383.5 C 368.585938 382.886719 367.871094 382.304688 367.140625 381.808594 C 366.398438 381.3125 365.640625 380.875 364.835938 380.570312 C 364.734375 380.527344 364.632812 380.496094 364.53125 380.453125 C 364.488281 380.4375 364.429688 380.425781 364.382812 380.410156 C 364.339844 380.394531 364.28125 380.378906 364.238281 380.367188 C 364.050781 380.308594 363.859375 380.261719 363.65625 380.234375 C 363.464844 380.207031 363.277344 380.175781 363.085938 380.160156 C 362.898438 380.160156 362.707031 380.160156 362.519531 380.160156 C 362.152344 380.191406 361.789062 380.277344 361.4375 380.410156 C 361.089844 380.539062 360.769531 380.730469 360.460938 380.964844 C 359.847656 381.429688 359.339844 382.058594 358.945312 382.785156 C 358.550781 383.515625 358.289062 384.316406 358.144531 385.148438 C 358.070312 385.558594 358.027344 385.980469 358.027344 386.402344 C 358.027344 386.605469 358.027344 386.824219 358.039062 387.03125 C 358.039062 387.089844 358.039062 387.132812 358.039062 387.191406 Z M 358.039062 387.191406 " fill-opacity="1" fill-rule="nonzero"/></g><path fill="#4a2354" d="M 374.914062 391.550781 C 374.679688 391.828125 374.445312 392.105469 374.214844 392.367188 C 374.460938 392.628906 374.695312 392.90625 374.914062 393.183594 C 375.277344 393.636719 375.613281 394.089844 375.933594 394.570312 C 376.023438 394.496094 376.109375 394.4375 376.195312 394.367188 C 376.402344 394.21875 376.589844 394.058594 376.792969 393.914062 C 377.582031 393.328125 378.382812 392.761719 379.199219 392.222656 L 379.273438 392.179688 C 378.222656 391.390625 377.21875 390.574219 376.226562 389.726562 C 375.832031 390.355469 375.394531 390.96875 374.929688 391.550781 Z M 374.914062 391.550781 " fill-opacity="1" fill-rule="nonzero"/><path fill="#4a2354" d="M 354.292969 391.316406 C 353.710938 390.660156 353.171875 389.875 352.6875 388.984375 C 352.148438 387.949219 351.710938 386.824219 351.390625 385.617188 L 351.1875 384.855469 C 350.953125 384.828125 350.71875 384.796875 350.488281 384.769531 C 349.992188 384.710938 349.480469 384.695312 348.96875 384.683594 L 348.210938 384.683594 C 348.082031 384.683594 347.964844 384.683594 347.832031 384.695312 C 347.703125 384.695312 347.585938 384.710938 347.453125 384.726562 C 346.957031 384.753906 346.460938 384.8125 345.980469 384.886719 C 345.863281 384.902344 345.734375 384.929688 345.617188 384.945312 L 345.441406 384.972656 L 345.410156 384.972656 C 345.367188 385.105469 345.324219 385.222656 345.28125 385.339844 C 345.089844 385.863281 344.871094 386.359375 344.652344 386.824219 C 344.421875 387.292969 344.1875 387.730469 343.9375 388.136719 C 343.429688 388.953125 342.890625 389.640625 342.347656 390.210938 C 341.253906 391.347656 340.132812 391.988281 339.183594 392.339844 C 338.398438 392.628906 337.710938 392.71875 337.214844 392.730469 C 337.726562 392.761719 338.398438 392.847656 339.183594 393.140625 C 340.132812 393.476562 341.253906 394.132812 342.347656 395.269531 C 342.902344 395.839844 343.441406 396.523438 343.9375 397.339844 C 344.1875 397.75 344.433594 398.1875 344.652344 398.652344 C 344.871094 399.121094 345.089844 399.613281 345.28125 400.140625 C 345.324219 400.257812 345.367188 400.386719 345.410156 400.503906 L 345.441406 400.503906 L 345.617188 400.535156 C 345.734375 400.546875 345.863281 400.578125 345.980469 400.59375 C 346.460938 400.664062 346.957031 400.722656 347.453125 400.753906 C 347.949219 400.796875 348.460938 400.796875 348.957031 400.796875 C 349.464844 400.78125 349.960938 400.753906 350.472656 400.707031 C 350.707031 400.679688 350.9375 400.652344 351.171875 400.621094 L 351.375 399.863281 C 351.695312 398.652344 352.132812 397.53125 352.675781 396.507812 C 353.15625 395.605469 353.695312 394.816406 354.277344 394.175781 C 354.613281 393.796875 354.949219 393.476562 355.195312 393.242188 L 355.226562 393.214844 L 355.253906 393.214844 C 355.253906 393.214844 355.328125 393.140625 355.359375 393.109375 C 355.460938 393.023438 355.589844 392.90625 355.738281 392.804688 C 355.75 392.804688 355.765625 392.777344 355.78125 392.777344 L 355.808594 392.777344 C 355.253906 392.351562 354.746094 391.871094 354.292969 391.347656 Z M 354.292969 391.316406 " fill-opacity="1" fill-rule="nonzero"/><path fill="#4a2354" d="M 381.007812 392.164062 L 412.421875 393.460938 L 443.832031 392.164062 L 412.421875 390.851562 Z M 381.007812 392.164062 " fill-opacity="1" fill-rule="nonzero"/><path fill="#4a2354" d="M 496.097656 664.414062 C 496.097656 664.414062 415.707031 663.648438 386.945312 586.550781 C 386.945312 586.550781 375.988281 564.773438 377.925781 517.480469 C 377.925781 517.480469 377.925781 603.144531 455.925781 635.875 C 454.304688 630.164062 453.15625 624.363281 452.484375 618.464844 C 451.808594 612.566406 451.613281 606.652344 451.902344 600.726562 C 452.1875 594.796875 452.953125 588.929688 454.195312 583.125 C 455.4375 577.320312 457.140625 571.65625 459.308594 566.128906 C 459.308594 566.128906 451.011719 641.152344 496.097656 664.414062 " fill-opacity="1" fill-rule="nonzero"/><path fill="#4a2354" d="M 487.621094 413.058594 C 487.621094 413.058594 483.113281 447.28125 506.648438 487.273438 C 506.648438 487.273438 468.957031 451.203125 462.734375 431.546875 C 467.074219 436.894531 472.050781 441.566406 477.65625 445.566406 C 477.65625 445.566406 481.398438 422.484375 487.621094 413.058594 Z M 487.621094 413.058594 " fill-opacity="1" fill-rule="nonzero"/><path fill="#4a2354" d="M 329.277344 413.058594 C 329.277344 413.058594 333.789062 447.28125 310.253906 487.273438 C 310.253906 487.273438 347.945312 451.203125 354.167969 431.546875 C 349.851562 436.886719 344.90625 441.5625 339.332031 445.566406 C 339.332031 445.566406 335.589844 422.484375 329.277344 413.058594 Z M 329.277344 413.058594 " fill-opacity="1" fill-rule="nonzero"/><path fill="#4a2354" d="M 389.332031 412.699219 C 389.332031 412.699219 374.363281 504.628906 419.992188 549.265625 C 419.992188 549.265625 449.972656 524.289062 431.355469 420.90625 C 431.355469 420.90625 475.808594 468.335938 457.773438 522.035156 C 457.773438 522.035156 464.71875 484.386719 444.96875 466.621094 C 444.96875 466.621094 458.855469 531.230469 424.230469 582.71875 C 424.230469 582.71875 386.71875 553.910156 381.398438 466.621094 C 381.398438 466.621094 354.03125 507.199219 363.363281 557.785156 C 361.632812 551.664062 360.253906 545.460938 359.226562 539.183594 C 358.199219 532.902344 357.53125 526.585938 357.21875 520.230469 C 356.90625 513.875 356.953125 507.523438 357.359375 501.175781 C 357.765625 494.824219 358.53125 488.519531 359.652344 482.253906 C 360.773438 475.992188 362.242188 469.8125 364.066406 463.714844 C 365.886719 457.617188 368.042969 451.644531 370.542969 445.792969 C 373.039062 439.9375 375.859375 434.246094 379 428.714844 C 382.144531 423.179688 385.585938 417.84375 389.332031 412.699219 Z M 389.332031 412.699219 " fill-opacity="1" fill-rule="nonzero"/></svg>