<svg xmlns="http://www.w3.org/2000/svg" xmlns:xlink="http://www.w3.org/1999/xlink" width="1080" zoomAndPan="magnify" viewBox="0 0 810 809.999993" height="1080" preserveAspectRatio="xMidYMid meet" version="1.0"><defs><g/><clipPath id="78a8a9f747"><path d="M 384 522 L 494 522 L 494 657.25 L 384 657.25 Z M 384 522 " clip-rule="nonzero"/></clipPath><clipPath id="dc5af091d9"><path d="M 490 396 L 579.5 396 L 579.5 406 L 490 406 Z M 490 396 " clip-rule="nonzero"/></clipPath><clipPath id="454f6f6780"><path d="M 450 402 L 467 402 L 467 413.808594 L 450 413.808594 Z M 450 402 " clip-rule="nonzero"/></clipPath><clipPath id="10f41fc8fa"><path d="M 450 388.308594 L 467 388.308594 L 467 399 L 450 399 Z M 450 388.308594 " clip-rule="nonzero"/></clipPath><clipPath id="a94e8cc1b4"><path d="M 251.75 396 L 335 396 L 335 406 L 251.75 406 Z M 251.75 396 " clip-rule="nonzero"/></clipPath><clipPath id="9cc1968fea"><path d="M 358 402 L 375 402 L 375 413.808594 L 358 413.808594 Z M 358 402 " clip-rule="nonzero"/></clipPath><clipPath id="67e5741eae"><path d="M 358 388.308594 L 375 388.308594 L 375 399 L 358 399 Z M 358 388.308594 " clip-rule="nonzero"/></clipPath><clipPath id="28832a93ad"><path d="M 0 152.476562 L 344 152.476562 L 344 319 L 0 319 Z M 0 152.476562 " clip-rule="nonzero"/></clipPath><clipPath id="47365431f7"><path d="M 466 152.476562 L 810 152.476562 L 810 319 L 466 319 Z M 466 152.476562 " clip-rule="nonzero"/></clipPath></defs><g clip-path="url(#78a8a9f747)"><path fill="#31c1db" d="M 493.390625 657.519531 C 493.390625 657.519531 419.6875 656.816406 393.316406 586.128906 C 393.316406 586.128906 383.269531 566.164062 385.046875 522.800781 C 385.046875 522.800781 385.046875 601.339844 456.5625 631.351562 C 455.074219 626.117188 454.023438 620.792969 453.402344 615.386719 C 452.785156 609.980469 452.605469 604.558594 452.871094 599.125 C 453.132812 593.6875 453.835938 588.308594 454.976562 582.988281 C 456.113281 577.664062 457.675781 572.46875 459.660156 567.402344 C 459.660156 567.402344 452.054688 636.1875 493.390625 657.519531 " fill-opacity="1" fill-rule="nonzero"/></g><path fill="#31c1db" d="M 485.621094 427.0625 C 485.621094 427.0625 481.488281 458.4375 503.066406 495.105469 C 503.066406 495.105469 468.507812 462.035156 462.804688 444.011719 C 466.785156 448.914062 471.34375 453.199219 476.484375 456.867188 C 476.484375 456.867188 479.917969 435.703125 485.621094 427.0625 Z M 485.621094 427.0625 " fill-opacity="1" fill-rule="nonzero"/><path fill="#31c1db" d="M 340.445312 427.0625 C 340.445312 427.0625 344.578125 458.4375 323 495.105469 C 323 495.105469 357.558594 462.035156 363.261719 444.011719 C 359.308594 448.910156 354.773438 453.195312 349.664062 456.867188 C 349.664062 456.867188 346.230469 435.703125 340.445312 427.0625 Z M 340.445312 427.0625 " fill-opacity="1" fill-rule="nonzero"/><path fill="#31c1db" d="M 395.503906 426.734375 C 395.503906 426.734375 381.78125 511.019531 423.613281 551.941406 C 423.613281 551.941406 451.105469 529.042969 434.03125 434.253906 C 434.03125 434.253906 474.789062 477.742188 458.253906 526.976562 C 458.253906 526.976562 464.621094 492.457031 446.515625 476.171875 C 446.515625 476.171875 459.246094 535.40625 427.5 582.613281 C 427.5 582.613281 393.109375 556.199219 388.230469 476.171875 C 388.230469 476.171875 363.140625 513.375 371.695312 559.753906 C 370.109375 554.140625 368.84375 548.457031 367.902344 542.699219 C 366.960938 536.941406 366.347656 531.148438 366.058594 525.324219 C 365.773438 519.496094 365.816406 513.671875 366.191406 507.851562 C 366.5625 502.027344 367.265625 496.246094 368.292969 490.503906 C 369.320312 484.761719 370.667969 479.09375 372.339844 473.503906 C 374.007812 467.914062 375.988281 462.4375 378.277344 457.074219 C 380.566406 451.707031 383.152344 446.488281 386.03125 441.414062 C 388.914062 436.34375 392.070312 431.449219 395.503906 426.734375 Z M 395.503906 426.734375 " fill-opacity="1" fill-rule="nonzero"/><g clip-path="url(#dc5af091d9)"><path fill="#31c1db" d="M 524.390625 399.824219 C 520.203125 399.824219 515.992188 400.011719 511.835938 399.5 C 510.359375 399.3125 508.828125 399.09375 507.515625 398.394531 C 507.460938 398.351562 507.386719 398.304688 507.328125 398.261719 C 507.269531 398.21875 507.195312 398.175781 507.136719 398.144531 L 506.90625 398.015625 L 506.789062 397.941406 L 506.671875 397.882812 L 506.4375 397.75 L 506.203125 397.636719 L 506.089844 397.578125 L 505.972656 397.519531 C 505.898438 397.476562 505.8125 397.445312 505.722656 397.402344 L 505.476562 397.300781 C 505.15625 397.167969 504.820312 397.039062 504.484375 396.933594 C 504.324219 396.875 504.148438 396.832031 503.972656 396.789062 L 503.710938 396.730469 L 503.578125 396.703125 L 503.449219 396.671875 C 502.542969 396.484375 501.609375 396.394531 500.679688 396.425781 C 499.746094 396.453125 498.8125 396.570312 497.90625 396.789062 C 496.085938 397.226562 494.332031 398.027344 492.757812 399.09375 C 491.972656 399.632812 491.226562 400.230469 490.542969 400.886719 L 490.5 400.929688 L 490.542969 400.976562 C 491.226562 401.632812 491.972656 402.230469 492.757812 402.769531 C 494.332031 403.832031 496.085938 404.636719 497.90625 405.074219 C 498.824219 405.292969 499.746094 405.421875 500.679688 405.4375 C 501.609375 405.464844 502.53125 405.378906 503.449219 405.191406 L 503.578125 405.160156 L 503.710938 405.132812 L 503.972656 405.074219 C 504.148438 405.027344 504.308594 404.984375 504.484375 404.925781 C 504.820312 404.824219 505.15625 404.707031 505.476562 404.578125 L 505.722656 404.476562 C 505.8125 404.445312 505.882812 404.402344 505.972656 404.359375 L 506.089844 404.300781 L 506.203125 404.242188 L 506.4375 404.125 L 506.671875 403.992188 L 506.789062 403.933594 L 506.90625 403.863281 L 507.136719 403.730469 C 507.136719 403.730469 507.253906 403.660156 507.328125 403.613281 C 507.402344 403.570312 507.460938 403.511719 507.53125 403.46875 C 508.84375 402.78125 510.375 402.5625 511.835938 402.375 C 515.992188 401.863281 520.21875 402.054688 524.390625 402.054688 C 579.152344 402.011719 777.019531 402.054688 777.019531 402.054688 L 777.019531 399.867188 C 777.019531 399.867188 579.152344 399.894531 524.390625 399.867188 Z M 524.390625 399.824219 " fill-opacity="1" fill-rule="nonzero"/></g><g clip-path="url(#454f6f6780)"><path fill="#31c1db" d="M 466.757812 405.277344 C 466.699219 404.839844 466.609375 404.417969 466.507812 403.992188 C 466.40625 403.570312 466.261719 403.164062 466.101562 402.769531 C 466.085938 402.726562 466.070312 402.695312 466.054688 402.652344 C 465.867188 402.839844 465.664062 403.03125 465.457031 403.207031 C 465.035156 403.554688 464.570312 403.878906 464.074219 404.140625 C 463.578125 404.402344 463.050781 404.621094 462.511719 404.765625 C 461.972656 404.914062 461.433594 405.015625 460.878906 405.074219 C 460.339844 405.117188 459.785156 405.117188 459.246094 405.074219 C 458.707031 405.027344 458.179688 404.941406 457.65625 404.824219 C 457.132812 404.707031 456.621094 404.546875 456.125 404.371094 C 455.628906 404.183594 455.148438 403.980469 454.679688 403.730469 C 454.449219 403.613281 454.214844 403.484375 453.996094 403.335938 L 453.820312 403.234375 L 453.660156 403.132812 C 453.558594 403.058594 453.441406 402.988281 453.339844 402.914062 C 452.988281 402.679688 452.652344 402.417969 452.320312 402.15625 C 452.113281 402.375 451.925781 402.609375 451.722656 402.839844 C 451.339844 403.308594 450.992188 403.789062 450.671875 404.300781 C 452.027344 405.554688 453.28125 406.867188 454.507812 408.164062 C 455.164062 408.863281 455.820312 409.550781 456.488281 410.222656 L 456.738281 410.46875 L 456.972656 410.703125 C 457.058594 410.773438 457.132812 410.863281 457.21875 410.933594 L 457.46875 411.152344 C 457.800781 411.445312 458.152344 411.722656 458.503906 411.984375 C 458.851562 412.246094 459.21875 412.480469 459.597656 412.683594 C 459.976562 412.890625 460.355469 413.066406 460.734375 413.195312 C 461.113281 413.328125 461.492188 413.414062 461.871094 413.457031 L 462.148438 413.457031 C 462.148438 413.457031 462.191406 413.488281 462.222656 413.488281 L 462.554688 413.488281 C 462.554688 413.488281 462.644531 413.472656 462.6875 413.457031 L 462.820312 413.457031 C 462.820312 413.457031 462.863281 413.429688 462.878906 413.429688 L 462.9375 413.429688 C 463.285156 413.339844 463.621094 413.210938 463.925781 413.035156 C 463.941406 413.035156 463.972656 413.019531 463.984375 413.007812 L 464.042969 412.960938 L 464.160156 412.890625 C 464.160156 412.890625 464.203125 412.859375 464.21875 412.847656 L 464.277344 412.800781 L 464.394531 412.714844 C 464.394531 412.714844 464.4375 412.683594 464.453125 412.671875 L 464.511719 412.628906 L 464.628906 412.539062 L 464.730469 412.4375 L 464.789062 412.394531 L 464.949219 412.234375 L 465.050781 412.117188 L 465.136719 412 L 465.238281 411.882812 L 465.328125 411.765625 L 465.414062 411.648438 L 465.503906 411.535156 L 465.589844 411.402344 C 465.808594 411.066406 466 410.703125 466.160156 410.324219 C 466.320312 409.945312 466.449219 409.535156 466.550781 409.128906 C 466.65625 408.71875 466.726562 408.296875 466.769531 407.859375 C 466.816406 407.433594 466.828125 406.996094 466.828125 406.558594 C 466.828125 406.339844 466.816406 406.121094 466.800781 405.902344 C 466.785156 405.683594 466.757812 405.464844 466.726562 405.261719 Z M 466.757812 405.277344 " fill-opacity="1" fill-rule="nonzero"/></g><path fill="#31c1db" d="M 462.980469 399.035156 C 462.628906 398.84375 462.25 398.699219 461.871094 398.582031 C 461.492188 398.464844 461.082031 398.394531 460.675781 398.363281 C 460.265625 398.335938 459.84375 398.335938 459.421875 398.363281 C 459 398.394531 458.574219 398.464844 458.167969 398.554688 C 457.335938 398.742188 456.519531 399.050781 455.746094 399.445312 C 455.554688 399.546875 455.367188 399.648438 455.175781 399.765625 L 455.046875 399.851562 L 454.914062 399.9375 C 454.828125 399.996094 454.726562 400.054688 454.636719 400.113281 C 454.433594 400.261719 454.230469 400.40625 454.023438 400.550781 C 454.230469 400.710938 454.433594 400.859375 454.636719 400.988281 C 454.726562 401.046875 454.828125 401.105469 454.914062 401.164062 L 455.046875 401.25 L 455.175781 401.339844 C 455.367188 401.457031 455.554688 401.558594 455.746094 401.660156 C 456.519531 402.054688 457.335938 402.375 458.167969 402.550781 C 458.589844 402.636719 459 402.710938 459.421875 402.738281 C 459.84375 402.769531 460.253906 402.769531 460.675781 402.738281 C 461.082031 402.695312 461.492188 402.621094 461.871094 402.519531 C 462.265625 402.417969 462.628906 402.257812 462.980469 402.070312 C 463.328125 401.878906 463.664062 401.660156 463.972656 401.398438 C 464.277344 401.136719 464.570312 400.84375 464.832031 400.539062 C 464.570312 400.214844 464.292969 399.925781 463.972656 399.675781 C 463.664062 399.414062 463.328125 399.195312 462.980469 399.007812 Z M 462.980469 399.035156 " fill-opacity="1" fill-rule="nonzero"/><g clip-path="url(#10f41fc8fa)"><path fill="#31c1db" d="M 452.320312 398.992188 C 452.652344 398.730469 452.988281 398.464844 453.339844 398.234375 C 453.441406 398.160156 453.558594 398.085938 453.660156 398.015625 L 453.820312 397.914062 L 453.996094 397.808594 C 454.214844 397.679688 454.449219 397.546875 454.679688 397.417969 C 455.148438 397.167969 455.628906 396.964844 456.125 396.773438 C 456.621094 396.585938 457.132812 396.4375 457.65625 396.324219 C 458.179688 396.207031 458.707031 396.117188 459.246094 396.074219 C 459.785156 396.03125 460.324219 396.03125 460.878906 396.074219 C 461.433594 396.117188 461.972656 396.21875 462.511719 396.382812 C 463.050781 396.527344 463.578125 396.746094 464.074219 397.007812 C 464.570312 397.269531 465.035156 397.589844 465.457031 397.941406 C 465.664062 398.117188 465.867188 398.304688 466.054688 398.496094 C 466.070312 398.453125 466.085938 398.421875 466.101562 398.378906 C 466.261719 397.984375 466.390625 397.5625 466.507812 397.152344 C 466.609375 396.730469 466.699219 396.308594 466.757812 395.871094 L 466.785156 395.710938 L 466.785156 395.550781 L 466.816406 395.460938 L 466.816406 395.390625 C 466.816406 395.390625 466.828125 395.289062 466.828125 395.230469 C 466.84375 395.023438 466.84375 394.804688 466.84375 394.601562 C 466.84375 394.179688 466.800781 393.769531 466.726562 393.347656 C 466.582031 392.515625 466.320312 391.714844 465.925781 390.984375 C 465.53125 390.257812 465.019531 389.628906 464.410156 389.164062 C 464.101562 388.929688 463.78125 388.738281 463.429688 388.609375 C 463.082031 388.476562 462.730469 388.390625 462.351562 388.359375 C 462.164062 388.34375 461.972656 388.34375 461.785156 388.359375 C 461.59375 388.359375 461.40625 388.390625 461.214844 388.433594 C 461.023438 388.460938 460.835938 388.507812 460.632812 388.5625 C 460.585938 388.5625 460.53125 388.59375 460.484375 388.609375 C 460.441406 388.621094 460.398438 388.636719 460.339844 388.652344 C 460.238281 388.695312 460.136719 388.726562 460.035156 388.769531 C 459.230469 389.074219 458.472656 389.496094 457.730469 390.007812 C 456.984375 390.503906 456.285156 391.085938 455.585938 391.699219 C 454.886719 392.3125 454.199219 392.96875 453.5 393.625 C 453.148438 393.960938 452.800781 394.296875 452.433594 394.617188 C 452.347656 394.703125 452.261719 394.777344 452.160156 394.863281 C 452.070312 394.953125 451.96875 395.023438 451.882812 395.113281 L 451.339844 395.59375 C 451.035156 395.871094 450.714844 396.132812 450.410156 396.410156 C 450.800781 397.066406 451.238281 397.707031 451.722656 398.304688 C 451.910156 398.539062 452.113281 398.773438 452.320312 398.992188 Z M 452.320312 398.992188 " fill-opacity="1" fill-rule="nonzero"/></g><path fill="#31c1db" d="M 448.644531 397.925781 C 447.652344 398.757812 446.632812 399.589844 445.597656 400.375 C 445.625 400.390625 445.652344 400.40625 445.667969 400.421875 C 446.484375 400.960938 447.289062 401.527344 448.074219 402.113281 C 448.265625 402.257812 448.46875 402.417969 448.671875 402.5625 C 448.761719 402.636719 448.847656 402.695312 448.933594 402.769531 C 449.257812 402.289062 449.589844 401.835938 449.957031 401.382812 C 450.191406 401.105469 450.421875 400.828125 450.65625 400.566406 C 450.410156 400.304688 450.175781 400.027344 449.957031 399.75 C 449.488281 399.167969 449.050781 398.554688 448.660156 397.925781 Z M 448.644531 397.925781 " fill-opacity="1" fill-rule="nonzero"/><path fill="#31c1db" d="M 482.519531 398.40625 C 481.96875 397.839844 481.425781 397.152344 480.933594 396.335938 C 480.683594 395.929688 480.4375 395.492188 480.203125 395.023438 C 479.984375 394.558594 479.765625 394.0625 479.574219 393.539062 C 479.53125 393.421875 479.488281 393.289062 479.445312 393.171875 L 479.414062 393.171875 L 479.238281 393.144531 C 479.125 393.128906 479.007812 393.101562 478.875 393.085938 C 478.394531 393.011719 477.898438 392.953125 477.402344 392.925781 C 477.269531 392.925781 477.15625 392.910156 477.023438 392.894531 C 476.890625 392.894531 476.773438 392.894531 476.644531 392.894531 L 475.886719 392.894531 C 475.375 392.894531 474.878906 392.925781 474.367188 392.984375 C 474.136719 393.011719 473.902344 393.042969 473.667969 393.070312 L 473.464844 393.828125 C 473.144531 395.039062 472.707031 396.164062 472.167969 397.199219 C 471.6875 398.101562 471.144531 398.875 470.5625 399.53125 C 470.097656 400.054688 469.585938 400.539062 469.046875 400.945312 L 469.074219 400.945312 C 469.074219 400.945312 469.105469 400.988281 469.117188 401.003906 C 469.265625 401.105469 469.394531 401.222656 469.5 401.308594 C 469.527344 401.339844 469.570312 401.367188 469.601562 401.398438 L 469.628906 401.398438 L 469.660156 401.441406 C 469.921875 401.675781 470.257812 401.996094 470.578125 402.375 C 471.160156 403.03125 471.699219 403.804688 472.179688 404.707031 C 472.722656 405.742188 473.160156 406.867188 473.480469 408.078125 L 473.683594 408.835938 C 473.917969 408.863281 474.148438 408.894531 474.382812 408.921875 C 474.878906 408.980469 475.390625 408.996094 475.898438 409.011719 C 476.410156 409.011719 476.90625 409.011719 477.402344 408.964844 C 477.898438 408.9375 478.394531 408.878906 478.875 408.804688 C 478.992188 408.792969 479.125 408.761719 479.238281 408.746094 L 479.414062 408.71875 L 479.445312 408.71875 C 479.488281 408.585938 479.53125 408.472656 479.574219 408.355469 C 479.765625 407.828125 479.984375 407.332031 480.203125 406.867188 C 480.4375 406.398438 480.667969 405.960938 480.929688 405.554688 C 481.441406 404.738281 481.980469 404.050781 482.519531 403.484375 C 483.613281 402.34375 484.738281 401.703125 485.6875 401.355469 C 486.472656 401.0625 487.160156 400.976562 487.65625 400.960938 C 487.144531 400.929688 486.472656 400.84375 485.6875 400.550781 C 484.738281 400.214844 483.613281 399.558594 482.519531 398.421875 Z M 482.519531 398.40625 " fill-opacity="1" fill-rule="nonzero"/><g clip-path="url(#a94e8cc1b4)"><path fill="#31c1db" d="M 332.09375 399.09375 C 330.515625 398.027344 328.765625 397.226562 326.945312 396.789062 C 326.027344 396.570312 325.09375 396.4375 324.171875 396.425781 C 323.238281 396.394531 322.320312 396.484375 321.417969 396.671875 L 321.285156 396.703125 L 321.15625 396.730469 L 320.890625 396.789062 C 320.71875 396.832031 320.558594 396.875 320.382812 396.933594 C 320.046875 397.039062 319.710938 397.152344 319.390625 397.300781 L 319.140625 397.402344 C 319.054688 397.429688 318.980469 397.476562 318.910156 397.519531 L 318.675781 397.636719 L 318.441406 397.75 L 318.207031 397.882812 L 318.09375 397.941406 L 317.976562 398.015625 L 317.742188 398.144531 C 317.742188 398.144531 317.625 398.21875 317.550781 398.261719 C 317.496094 398.304688 317.4375 398.351562 317.363281 398.394531 C 316.035156 399.09375 314.503906 399.3125 313.046875 399.5 C 308.890625 400.011719 304.660156 399.824219 300.488281 399.824219 C 245.730469 399.867188 47.859375 399.824219 47.859375 399.824219 L 47.859375 402.011719 C 47.859375 402.011719 245.730469 401.980469 300.488281 402.011719 C 304.675781 402.011719 308.890625 401.820312 313.046875 402.332031 C 314.503906 402.507812 316.019531 402.738281 317.347656 403.425781 C 317.421875 403.484375 317.480469 403.527344 317.550781 403.570312 C 317.609375 403.613281 317.683594 403.660156 317.742188 403.6875 L 317.976562 403.820312 L 318.09375 403.890625 L 318.207031 403.949219 L 318.441406 404.082031 L 318.910156 404.316406 C 318.996094 404.359375 319.070312 404.386719 319.140625 404.429688 L 319.390625 404.535156 C 319.710938 404.664062 320.046875 404.796875 320.382812 404.882812 C 320.542969 404.941406 320.71875 404.984375 320.890625 405.027344 L 321.15625 405.085938 L 321.285156 405.117188 L 321.417969 405.144531 C 322.320312 405.335938 323.253906 405.421875 324.1875 405.394531 C 325.121094 405.363281 326.054688 405.246094 326.957031 405.027344 C 328.78125 404.589844 330.53125 403.789062 332.105469 402.726562 C 332.894531 402.183594 333.636719 401.585938 334.324219 400.929688 L 334.367188 400.886719 L 334.324219 400.84375 C 333.636719 400.1875 332.894531 399.589844 332.105469 399.050781 Z M 332.09375 399.09375 " fill-opacity="1" fill-rule="nonzero"/></g><g clip-path="url(#9cc1968fea)"><path fill="#31c1db" d="M 372.546875 402.15625 C 372.210938 402.417969 371.875 402.679688 371.527344 402.914062 C 371.425781 402.988281 371.308594 403.058594 371.207031 403.132812 L 371.042969 403.234375 L 370.871094 403.335938 C 370.652344 403.46875 370.417969 403.601562 370.183594 403.730469 C 369.71875 403.980469 369.238281 404.183594 368.742188 404.371094 C 368.246094 404.5625 367.734375 404.707031 367.210938 404.824219 C 366.683594 404.941406 366.160156 405.027344 365.621094 405.074219 C 365.082031 405.117188 364.539062 405.117188 363.988281 405.074219 C 363.433594 405.027344 362.894531 404.925781 362.351562 404.765625 C 361.8125 404.621094 361.289062 404.402344 360.792969 404.140625 C 360.296875 403.878906 359.832031 403.554688 359.40625 403.207031 C 359.203125 403.03125 359 402.839844 358.808594 402.652344 C 358.792969 402.695312 358.78125 402.726562 358.765625 402.769531 C 358.605469 403.164062 358.472656 403.585938 358.355469 403.992188 C 358.253906 404.417969 358.167969 404.839844 358.109375 405.277344 C 358.082031 405.496094 358.050781 405.714844 358.035156 405.917969 C 358.023438 406.136719 358.007812 406.355469 358.007812 406.574219 C 358.007812 407.011719 358.007812 407.449219 358.066406 407.871094 C 358.109375 408.296875 358.183594 408.71875 358.285156 409.140625 C 358.386719 409.550781 358.519531 409.957031 358.679688 410.335938 C 358.839844 410.714844 359.027344 411.082031 359.246094 411.417969 L 359.335938 411.546875 L 359.507812 411.78125 L 359.597656 411.898438 L 359.699219 412.015625 L 359.785156 412.132812 L 359.886719 412.246094 L 360.050781 412.410156 L 360.105469 412.453125 L 360.210938 412.554688 L 360.324219 412.640625 L 360.382812 412.683594 C 360.382812 412.683594 360.429688 412.714844 360.441406 412.730469 L 360.617188 412.859375 C 360.617188 412.859375 360.660156 412.890625 360.675781 412.902344 L 360.792969 412.976562 L 360.851562 413.019531 C 360.851562 413.019531 360.894531 413.050781 360.910156 413.050781 C 361.230469 413.226562 361.550781 413.355469 361.902344 413.429688 L 361.960938 413.429688 C 361.960938 413.429688 362.003906 413.445312 362.019531 413.457031 L 362.148438 413.457031 C 362.148438 413.457031 362.238281 413.488281 362.28125 413.488281 L 362.617188 413.488281 C 362.617188 413.488281 362.660156 413.488281 362.6875 413.488281 L 362.964844 413.488281 C 363.34375 413.429688 363.722656 413.339844 364.101562 413.195312 C 364.480469 413.066406 364.863281 412.890625 365.242188 412.683594 C 365.621094 412.480469 365.984375 412.246094 366.335938 411.984375 C 366.683594 411.722656 367.035156 411.445312 367.371094 411.152344 L 367.617188 410.933594 C 367.707031 410.863281 367.777344 410.789062 367.867188 410.703125 L 367.980469 410.585938 L 368.097656 410.46875 L 368.347656 410.222656 C 369.019531 409.550781 369.675781 408.863281 370.332031 408.164062 C 371.570312 406.867188 372.808594 405.554688 374.164062 404.300781 C 373.84375 403.789062 373.496094 403.308594 373.117188 402.839844 C 372.925781 402.609375 372.722656 402.375 372.519531 402.15625 Z M 372.546875 402.15625 " fill-opacity="1" fill-rule="nonzero"/></g><path fill="#31c1db" d="M 369.820312 399.851562 L 369.6875 399.765625 C 369.5 399.648438 369.308594 399.546875 369.121094 399.445312 C 368.347656 399.050781 367.53125 398.730469 366.699219 398.554688 C 366.277344 398.464844 365.867188 398.394531 365.445312 398.363281 C 365.023438 398.335938 364.613281 398.335938 364.191406 398.363281 C 363.78125 398.40625 363.375 398.480469 362.996094 398.582031 C 362.617188 398.683594 362.238281 398.84375 361.886719 399.035156 C 361.535156 399.226562 361.199219 399.445312 360.894531 399.707031 C 360.589844 399.96875 360.296875 400.261719 360.035156 400.566406 C 360.296875 400.886719 360.574219 401.179688 360.894531 401.425781 C 361.199219 401.6875 361.535156 401.90625 361.886719 402.097656 C 362.238281 402.289062 362.617188 402.433594 362.996094 402.550781 C 363.386719 402.667969 363.78125 402.738281 364.191406 402.769531 C 364.597656 402.796875 365.023438 402.796875 365.445312 402.769531 C 365.867188 402.738281 366.289062 402.667969 366.699219 402.578125 C 367.53125 402.390625 368.347656 402.082031 369.121094 401.6875 C 369.308594 401.585938 369.5 401.484375 369.6875 401.367188 L 369.820312 401.28125 L 369.949219 401.195312 C 370.039062 401.136719 370.140625 401.078125 370.226562 401.019531 C 370.433594 400.871094 370.636719 400.726562 370.839844 400.582031 C 370.636719 400.421875 370.433594 400.273438 370.226562 400.144531 C 370.140625 400.085938 370.039062 400.027344 369.949219 399.96875 L 369.820312 399.882812 Z M 369.820312 399.851562 " fill-opacity="1" fill-rule="nonzero"/><g clip-path="url(#67e5741eae)"><path fill="#31c1db" d="M 358.050781 395.390625 L 358.050781 395.550781 L 358.082031 395.710938 L 358.109375 395.871094 C 358.167969 396.308594 358.253906 396.730469 358.355469 397.152344 C 358.460938 397.578125 358.605469 397.984375 358.765625 398.378906 C 358.78125 398.421875 358.792969 398.453125 358.808594 398.496094 C 359 398.304688 359.203125 398.117188 359.40625 397.941406 C 359.832031 397.589844 360.296875 397.269531 360.792969 397.007812 C 361.289062 396.746094 361.8125 396.527344 362.351562 396.382812 C 362.894531 396.234375 363.433594 396.132812 363.988281 396.074219 C 364.527344 396.03125 365.082031 396.03125 365.621094 396.074219 C 366.160156 396.117188 366.683594 396.207031 367.210938 396.324219 C 367.734375 396.4375 368.246094 396.601562 368.742188 396.773438 C 369.238281 396.964844 369.71875 397.167969 370.183594 397.417969 C 370.417969 397.53125 370.652344 397.664062 370.871094 397.808594 L 371.042969 397.914062 L 371.207031 398.015625 C 371.308594 398.085938 371.425781 398.160156 371.527344 398.234375 C 371.875 398.464844 372.210938 398.730469 372.546875 398.992188 C 372.75 398.773438 372.941406 398.539062 373.144531 398.304688 C 373.625 397.707031 374.0625 397.082031 374.472656 396.410156 C 374.152344 396.132812 373.84375 395.871094 373.539062 395.59375 L 373 395.113281 C 372.910156 395.023438 372.808594 394.953125 372.722656 394.863281 C 372.632812 394.777344 372.53125 394.703125 372.445312 394.617188 C 372.082031 394.28125 371.730469 393.945312 371.378906 393.625 C 370.679688 392.96875 369.996094 392.3125 369.292969 391.699219 C 368.59375 391.085938 367.878906 390.503906 367.152344 390.007812 C 366.40625 389.511719 365.648438 389.074219 364.847656 388.769531 C 364.746094 388.726562 364.644531 388.695312 364.539062 388.652344 C 364.496094 388.636719 364.4375 388.621094 364.394531 388.609375 C 364.351562 388.59375 364.292969 388.578125 364.25 388.5625 C 364.058594 388.507812 363.871094 388.460938 363.664062 388.433594 C 363.476562 388.402344 363.285156 388.375 363.097656 388.359375 C 362.90625 388.359375 362.71875 388.359375 362.527344 388.359375 C 362.164062 388.390625 361.800781 388.476562 361.449219 388.609375 C 361.097656 388.738281 360.777344 388.929688 360.472656 389.164062 C 359.859375 389.628906 359.347656 390.257812 358.957031 390.984375 C 358.5625 391.714844 358.300781 392.515625 358.152344 393.347656 C 358.082031 393.757812 358.035156 394.179688 358.035156 394.601562 C 358.035156 394.804688 358.035156 395.023438 358.050781 395.230469 C 358.050781 395.289062 358.050781 395.332031 358.050781 395.390625 Z M 358.050781 395.390625 " fill-opacity="1" fill-rule="nonzero"/></g><path fill="#31c1db" d="M 374.925781 399.75 C 374.691406 400.027344 374.457031 400.304688 374.222656 400.566406 C 374.472656 400.828125 374.707031 401.105469 374.925781 401.382812 C 375.289062 401.835938 375.625 402.289062 375.945312 402.769531 C 376.03125 402.695312 376.121094 402.636719 376.207031 402.5625 C 376.410156 402.417969 376.601562 402.257812 376.804688 402.113281 C 377.59375 401.527344 378.394531 400.960938 379.210938 400.421875 L 379.285156 400.375 C 378.234375 399.589844 377.226562 398.773438 376.238281 397.925781 C 375.84375 398.554688 375.40625 399.167969 374.9375 399.75 Z M 374.925781 399.75 " fill-opacity="1" fill-rule="nonzero"/><path fill="#31c1db" d="M 354.304688 399.515625 C 353.71875 398.859375 353.179688 398.074219 352.699219 397.183594 C 352.160156 396.148438 351.722656 395.023438 351.402344 393.8125 L 351.195312 393.054688 C 350.964844 393.027344 350.730469 392.996094 350.496094 392.96875 C 350 392.910156 349.492188 392.894531 348.980469 392.882812 L 348.222656 392.882812 C 348.089844 392.882812 347.972656 392.882812 347.84375 392.894531 C 347.710938 392.894531 347.59375 392.910156 347.464844 392.925781 C 346.96875 392.953125 346.472656 393.011719 345.992188 393.085938 C 345.875 393.101562 345.742188 393.128906 345.625 393.144531 L 345.449219 393.171875 L 345.421875 393.171875 C 345.378906 393.304688 345.335938 393.421875 345.289062 393.539062 C 345.101562 394.0625 344.882812 394.558594 344.664062 395.023438 C 344.429688 395.492188 344.195312 395.929688 343.949219 396.335938 C 343.4375 397.152344 342.898438 397.839844 342.359375 398.40625 C 341.265625 399.546875 340.140625 400.1875 339.195312 400.539062 C 338.40625 400.828125 337.722656 400.917969 337.226562 400.929688 C 337.734375 400.960938 338.40625 401.046875 339.195312 401.339844 C 340.140625 401.675781 341.265625 402.332031 342.359375 403.46875 C 342.914062 404.039062 343.453125 404.722656 343.949219 405.539062 C 344.195312 405.949219 344.445312 406.386719 344.664062 406.851562 C 344.882812 407.320312 345.101562 407.816406 345.289062 408.339844 C 345.335938 408.457031 345.378906 408.585938 345.421875 408.703125 L 345.449219 408.703125 L 345.625 408.734375 C 345.742188 408.746094 345.875 408.777344 345.992188 408.792969 C 346.472656 408.863281 346.96875 408.921875 347.464844 408.953125 C 347.960938 408.996094 348.46875 408.996094 348.964844 408.996094 C 349.476562 408.980469 349.972656 408.953125 350.480469 408.910156 C 350.714844 408.878906 350.949219 408.851562 351.183594 408.820312 L 351.386719 408.0625 C 351.707031 406.851562 352.144531 405.730469 352.683594 404.707031 C 353.164062 403.804688 353.707031 403.015625 354.289062 402.375 C 354.625 401.996094 354.960938 401.675781 355.207031 401.441406 L 355.238281 401.414062 L 355.265625 401.414062 C 355.265625 401.414062 355.339844 401.339844 355.367188 401.308594 C 355.46875 401.222656 355.601562 401.105469 355.746094 401.003906 C 355.761719 401.003906 355.777344 400.976562 355.789062 400.976562 L 355.820312 400.976562 C 355.265625 400.550781 354.753906 400.070312 354.304688 399.546875 Z M 354.304688 399.515625 " fill-opacity="1" fill-rule="nonzero"/><path fill="#31c1db" d="M 381.019531 400.363281 L 412.433594 401.660156 L 443.847656 400.363281 L 412.433594 399.050781 Z M 381.019531 400.363281 " fill-opacity="1" fill-rule="nonzero"/><path fill="#31c1db" d="M 447.125 375.792969 L 435.925781 375.792969 C 437.824219 373.519531 439.585938 371.144531 441.210938 368.667969 C 442.835938 366.1875 444.3125 363.625 445.640625 360.980469 C 446.972656 358.332031 448.144531 355.617188 449.160156 352.832031 C 450.175781 350.050781 451.03125 347.21875 451.71875 344.335938 C 452.410156 341.457031 452.933594 338.542969 453.285156 335.601562 C 453.640625 332.660156 453.824219 329.710938 453.839844 326.746094 C 453.851562 323.785156 453.695312 320.832031 453.371094 317.886719 C 453.042969 314.941406 452.546875 312.027344 451.886719 309.136719 C 451.886719 309.136719 464.71875 331.085938 447.125 375.792969 Z M 447.125 375.792969 " fill-opacity="1" fill-rule="nonzero"/><g clip-path="url(#28832a93ad)"><path fill="#31c1db" d="M 335.308594 318.027344 C 335.308594 318.027344 326.964844 278.710938 343.695312 270.371094 C 343.695312 270.371094 292.683594 257.492188 291.007812 231.554688 C 289.328125 205.617188 307.738281 209.335938 307.738281 209.335938 C 307.738281 209.335938 282.664062 189.25 146.40625 184.214844 C 10.148438 179.183594 0.0820312 152.476562 0.0820312 152.476562 C 0.0820312 152.476562 11.78125 186.757812 131.578125 197.820312 C 251.375 208.882812 254.460938 219.539062 254.460938 219.539062 C 242.113281 219.097656 229.855469 219.929688 217.6875 222.03125 C 217.6875 222.03125 286.699219 224.527344 302.117188 271.640625 C 294.929688 272.09375 287.933594 273.484375 281.121094 275.8125 C 281.121094 275.8125 314.449219 270.371094 335.308594 318.027344 Z M 335.308594 318.027344 " fill-opacity="1" fill-rule="nonzero"/></g><path fill="#31c1db" d="M 210.75 221.308594 C 210.75 221.308594 164.589844 213.871094 128.632812 221.308594 C 92.671875 228.742188 78.480469 231.328125 53.40625 230.375 C 66.472656 233.914062 79.753906 236.175781 93.253906 237.160156 C 106.753906 238.144531 120.222656 237.832031 133.664062 236.226562 C 180.457031 231.191406 205.894531 248.648438 205.894531 248.648438 C 198.144531 248.058594 163.273438 244.886719 101.878906 269.644531 C 101.878906 269.644531 121.964844 260.574219 161.234375 269.644531 C 200.5 278.710938 237.363281 278.710938 250.785156 273.726562 C 250.785156 273.726562 205.441406 288.054688 198.867188 310.632812 C 198.867188 310.632812 244.847656 278.894531 284.160156 310.632812 C 278.5625 311.898438 273.160156 313.746094 267.960938 316.175781 C 262.761719 318.609375 257.882812 321.566406 253.324219 325.054688 C 253.324219 325.054688 300.121094 312.539062 334.398438 369.355469 C 334.398438 369.355469 325.332031 282.75 241.582031 288.007812 C 244.191406 286.695312 246.675781 285.171875 249.03125 283.445312 C 251.386719 281.714844 253.585938 279.804688 255.621094 277.710938 C 257.660156 275.613281 259.507812 273.367188 261.171875 270.960938 C 262.832031 268.558594 264.28125 266.03125 265.523438 263.386719 C 265.523438 263.386719 225.210938 276.082031 193.925781 261.527344 C 193.925781 261.527344 221.539062 256.496094 240.765625 259.851562 C 240.765625 259.851562 216.507812 233.097656 158.828125 227.246094 C 158.785156 227.246094 174.203125 219.492188 210.75 221.308594 Z M 210.75 221.308594 " fill-opacity="1" fill-rule="nonzero"/><g clip-path="url(#47365431f7)"><path fill="#31c1db" d="M 474.691406 318.027344 C 474.691406 318.027344 483.035156 278.710938 466.441406 270.371094 C 466.441406 270.371094 517.453125 257.492188 519.128906 231.554688 C 520.808594 205.617188 502.398438 209.335938 502.398438 209.335938 C 502.398438 209.335938 527.335938 189.25 663.640625 184.214844 C 799.941406 179.183594 809.917969 152.476562 809.917969 152.476562 C 809.917969 152.476562 798.128906 186.757812 678.648438 197.820312 C 559.167969 208.882812 555.765625 219.539062 555.765625 219.539062 C 568.113281 219.097656 580.371094 219.929688 592.539062 222.03125 C 592.539062 222.03125 523.574219 224.527344 508.109375 271.640625 C 515.296875 272.09375 522.292969 273.484375 529.105469 275.8125 C 529.105469 275.8125 495.550781 270.371094 474.691406 318.027344 Z M 474.691406 318.027344 " fill-opacity="1" fill-rule="nonzero"/></g><path fill="#31c1db" d="M 599.25 221.308594 C 599.25 221.308594 645.410156 213.871094 681.367188 221.308594 C 717.328125 228.742188 731.519531 231.328125 756.59375 230.375 C 743.527344 233.914062 730.246094 236.175781 716.746094 237.160156 C 703.246094 238.144531 689.777344 237.832031 676.335938 236.226562 C 629.542969 231.191406 604.101562 248.648438 604.101562 248.648438 C 611.855469 248.058594 646.726562 244.886719 708.121094 269.644531 C 708.121094 269.644531 688.035156 260.574219 648.765625 269.644531 C 609.5 278.710938 572.636719 278.710938 559.214844 273.726562 C 559.214844 273.726562 604.558594 288.054688 611.132812 310.632812 C 611.132812 310.632812 565.152344 278.894531 525.839844 310.632812 C 531.449219 311.859375 536.863281 313.664062 542.082031 316.046875 C 547.304688 318.433594 552.214844 321.34375 556.808594 324.78125 C 556.808594 324.78125 509.96875 312.492188 475.507812 369.308594 C 475.507812 369.308594 484.578125 282.703125 568.328125 287.960938 C 565.703125 286.660156 563.203125 285.148438 560.832031 283.425781 C 558.460938 281.707031 556.246094 279.800781 554.195312 277.707031 C 552.140625 275.617188 550.277344 273.371094 548.601562 270.964844 C 546.921875 268.5625 545.457031 266.035156 544.203125 263.386719 C 544.203125 263.386719 584.515625 276.082031 615.800781 261.527344 C 615.800781 261.527344 588.1875 256.496094 568.960938 259.851562 C 568.960938 259.851562 593.222656 233.097656 650.898438 227.246094 C 651.261719 227.246094 635.796875 219.492188 599.25 221.308594 Z M 599.25 221.308594 " fill-opacity="1" fill-rule="nonzero"/><path fill="#31c1db" d="M 452.835938 230.242188 C 452.355469 230.066406 451.855469 229.976562 451.34375 229.972656 C 450.832031 229.96875 450.332031 230.046875 449.84375 230.210938 C 449.359375 230.375 448.914062 230.617188 448.507812 230.933594 C 448.105469 231.25 447.765625 231.621094 447.488281 232.054688 C 441.5 242.4375 437.058594 240.761719 437.058594 240.761719 C 437.058594 240.761719 440.777344 240.761719 443.496094 234.773438 C 447.488281 226.296875 448.664062 227.519531 448.664062 227.519531 C 448.328125 226.886719 447.933594 226.285156 447.488281 225.71875 C 447.042969 225.15625 446.554688 224.632812 446.015625 224.15625 C 445.476562 223.679688 444.898438 223.253906 444.285156 222.878906 C 443.671875 222.503906 443.027344 222.1875 442.359375 221.925781 C 441.6875 221.667969 441 221.46875 440.292969 221.332031 C 439.585938 221.191406 438.875 221.121094 438.15625 221.109375 C 437.433594 221.097656 436.71875 221.152344 436.011719 221.269531 C 435.300781 221.386719 434.605469 221.566406 433.929688 221.804688 L 432.023438 222.578125 L 429.984375 221.671875 C 421.824219 218.359375 411.394531 217.769531 393.710938 226.203125 C 374.300781 235.273438 387.359375 267.015625 387.359375 267.015625 C 356.121094 292.859375 365.414062 370.714844 365.414062 370.714844 C 359.75 353.933594 356.726562 336.6875 356.347656 318.976562 C 355.800781 292.859375 372.441406 260.03125 373.804688 245.839844 C 373.886719 244.871094 373.890625 243.902344 373.808594 242.933594 C 373.722656 241.96875 373.558594 241.015625 373.3125 240.074219 C 373.066406 239.136719 372.738281 238.222656 372.335938 237.339844 C 371.929688 236.457031 371.453125 235.617188 370.902344 234.816406 C 370.351562 234.015625 369.738281 233.265625 369.058594 232.574219 C 368.378906 231.878906 367.644531 231.246094 366.855469 230.679688 C 366.066406 230.113281 365.238281 229.617188 364.363281 229.191406 C 363.488281 228.769531 362.585938 228.421875 361.652344 228.15625 C 361.652344 228.15625 351.855469 230.011719 392.167969 219.085938 C 421.914062 211.152344 430.847656 214.777344 432.976562 218.132812 C 436.703125 217.398438 440.363281 217.65625 443.949219 218.90625 C 444.410156 219.085938 444.851562 219.3125 445.265625 219.585938 L 446.488281 220.355469 C 449.453125 223.105469 451.570312 226.402344 452.835938 230.242188 Z M 452.835938 230.242188 " fill-opacity="1" fill-rule="nonzero"/><path fill="#31c1db" d="M 396.429688 276.398438 C 396.429688 276.398438 364.28125 328.226562 408.175781 375.792969 L 378.699219 375.792969 C 375.988281 366.90625 374.421875 357.820312 374.007812 348.539062 C 373.59375 339.253906 374.339844 330.066406 376.253906 320.972656 C 377.699219 312.816406 380.128906 304.964844 383.546875 297.421875 C 386.960938 289.875 391.257812 282.867188 396.429688 276.398438 Z M 396.429688 276.398438 " fill-opacity="1" fill-rule="nonzero"/><g fill="#31c1db" fill-opacity="1"><g transform="translate(451.151525, 572.285178)"><g><path d="M 53.296875 0.609375 C 50.441406 0.0351562 40.210938 -0.25 22.609375 -0.25 C 13.972656 -0.25 8.351562 -0.164062 5.75 0 L 5.75 -4.40625 C 17.238281 -14.101562 25.832031 -22.617188 31.53125 -29.953125 C 37.238281 -37.285156 40.09375 -43.722656 40.09375 -49.265625 C 40.09375 -54.972656 37.035156 -58.316406 30.921875 -59.296875 C 28.566406 -58.960938 25.535156 -57.898438 21.828125 -56.109375 C 18.117188 -54.316406 14.429688 -52.117188 10.765625 -49.515625 C 9.859375 -50.816406 9.078125 -52.609375 8.421875 -54.890625 C 7.773438 -57.171875 7.453125 -59.207031 7.453125 -61 C 9.171875 -62.226562 12.289062 -63.25 16.8125 -64.0625 C 21.332031 -64.875 25.753906 -65.28125 30.078125 -65.28125 C 37.242188 -65.28125 42.679688 -64.054688 46.390625 -61.609375 C 50.097656 -59.171875 51.953125 -55.546875 51.953125 -50.734375 C 51.953125 -45.765625 49.320312 -39.9375 44.0625 -33.25 C 38.8125 -26.570312 30.5625 -18.707031 19.3125 -9.65625 C 24.039062 -8.925781 29.257812 -8.5625 34.96875 -8.5625 C 39.039062 -8.5625 42.96875 -8.84375 46.75 -9.40625 C 50.539062 -9.976562 53.582031 -10.753906 55.875 -11.734375 C 55.875 -9.367188 55.628906 -6.960938 55.140625 -4.515625 C 54.648438 -2.078125 54.035156 -0.367188 53.296875 0.609375 Z M 53.296875 0.609375 "/></g></g></g><g fill="#31c1db" fill-opacity="1"><g transform="translate(512.766871, 572.285178)"><g><path d="M 33.125 1.34375 C 27.414062 1.34375 22.398438 0.0195312 18.078125 -2.625 C 13.765625 -5.269531 10.40625 -9 8 -13.8125 C 5.59375 -18.625 4.390625 -24.207031 4.390625 -30.5625 C 4.390625 -37.25 5.835938 -43.21875 8.734375 -48.46875 C 11.628906 -53.726562 15.679688 -57.820312 20.890625 -60.75 C 26.109375 -63.6875 32.019531 -65.15625 38.625 -65.15625 C 44.082031 -65.15625 48.910156 -63.847656 53.109375 -61.234375 C 57.304688 -58.628906 60.566406 -54.984375 62.890625 -50.296875 C 65.210938 -45.617188 66.375 -40.179688 66.375 -33.984375 C 66.375 -27.140625 64.96875 -21.023438 62.15625 -15.640625 C 59.34375 -10.265625 55.410156 -6.085938 50.359375 -3.109375 C 45.304688 -0.140625 39.5625 1.34375 33.125 1.34375 Z M 34.953125 -7.703125 C 41.066406 -7.703125 45.957031 -9.941406 49.625 -14.421875 C 53.289062 -18.910156 55.125 -24.984375 55.125 -32.640625 C 55.125 -39.648438 53.515625 -45.5 50.296875 -50.1875 C 47.078125 -54.875 42.65625 -57.742188 37.03125 -58.796875 C 33.039062 -58.796875 29.414062 -57.695312 26.15625 -55.5 C 22.894531 -53.300781 20.347656 -50.285156 18.515625 -46.453125 C 16.679688 -42.617188 15.765625 -38.257812 15.765625 -33.375 C 15.765625 -28.320312 16.554688 -23.835938 18.140625 -19.921875 C 19.734375 -16.015625 21.976562 -13 24.875 -10.875 C 27.769531 -8.757812 31.128906 -7.703125 34.953125 -7.703125 Z M 34.953125 -7.703125 "/></g></g></g><g fill="#31c1db" fill-opacity="1"><g transform="translate(583.795662, 572.285178)"><g><path d="M 53.296875 0.609375 C 50.441406 0.0351562 40.210938 -0.25 22.609375 -0.25 C 13.972656 -0.25 8.351562 -0.164062 5.75 0 L 5.75 -4.40625 C 17.238281 -14.101562 25.832031 -22.617188 31.53125 -29.953125 C 37.238281 -37.285156 40.09375 -43.722656 40.09375 -49.265625 C 40.09375 -54.972656 37.035156 -58.316406 30.921875 -59.296875 C 28.566406 -58.960938 25.535156 -57.898438 21.828125 -56.109375 C 18.117188 -54.316406 14.429688 -52.117188 10.765625 -49.515625 C 9.859375 -50.816406 9.078125 -52.609375 8.421875 -54.890625 C 7.773438 -57.171875 7.453125 -59.207031 7.453125 -61 C 9.171875 -62.226562 12.289062 -63.25 16.8125 -64.0625 C 21.332031 -64.875 25.753906 -65.28125 30.078125 -65.28125 C 37.242188 -65.28125 42.679688 -64.054688 46.390625 -61.609375 C 50.097656 -59.171875 51.953125 -55.546875 51.953125 -50.734375 C 51.953125 -45.765625 49.320312 -39.9375 44.0625 -33.25 C 38.8125 -26.570312 30.5625 -18.707031 19.3125 -9.65625 C 24.039062 -8.925781 29.257812 -8.5625 34.96875 -8.5625 C 39.039062 -8.5625 42.96875 -8.84375 46.75 -9.40625 C 50.539062 -9.976562 53.582031 -10.753906 55.875 -11.734375 C 55.875 -9.367188 55.628906 -6.960938 55.140625 -4.515625 C 54.648438 -2.078125 54.035156 -0.367188 53.296875 0.609375 Z M 53.296875 0.609375 "/></g></g></g><g fill="#31c1db" fill-opacity="1"><g transform="translate(645.411008, 572.285178)"><g><path d="M 26.65625 1.34375 C 18.34375 1.34375 11.171875 -0.53125 5.140625 -4.28125 C 5.140625 -5.90625 5.300781 -7.367188 5.625 -8.671875 C 5.945312 -9.984375 6.476562 -11.375 7.21875 -12.84375 C 9.164062 -10.550781 11.8125 -8.734375 15.15625 -7.390625 C 18.5 -6.046875 22.085938 -5.375 25.921875 -5.375 C 30.972656 -5.375 34.921875 -6.578125 37.765625 -8.984375 C 40.617188 -11.390625 42.046875 -14.789062 42.046875 -19.1875 C 42.046875 -25.957031 38.582031 -30.929688 31.65625 -34.109375 C 29.625 -34.109375 27.140625 -33.554688 24.203125 -32.453125 C 21.265625 -31.359375 18.207031 -29.832031 15.03125 -27.875 C 13.726562 -28.039062 12.503906 -28.304688 11.359375 -28.671875 C 10.222656 -29.035156 9.65625 -29.335938 9.65625 -29.578125 L 12.109375 -64.421875 C 13.898438 -63.929688 16.054688 -63.582031 18.578125 -63.375 C 21.109375 -63.175781 24.53125 -63.078125 28.84375 -63.078125 C 39.851562 -63.078125 47.269531 -63.523438 51.09375 -64.421875 C 51.09375 -62.546875 50.890625 -60.445312 50.484375 -58.125 C 50.078125 -55.800781 49.550781 -53.785156 48.90625 -52.078125 C 47.519531 -52.890625 45.847656 -53.457031 43.890625 -53.78125 C 41.929688 -54.113281 39.238281 -54.28125 35.8125 -54.28125 C 31.738281 -54.28125 28.070312 -54.238281 24.8125 -54.15625 L 17 -53.90625 L 15.53125 -34.59375 C 20.820312 -37.9375 26.484375 -39.609375 32.515625 -39.609375 C 38.796875 -39.609375 43.890625 -37.710938 47.796875 -33.921875 C 51.710938 -30.128906 53.671875 -25.21875 53.671875 -19.1875 C 53.671875 -12.425781 51.382812 -7.3125 46.8125 -3.84375 C 42.25 -0.382812 35.53125 1.34375 26.65625 1.34375 Z M 26.65625 1.34375 "/></g></g></g></svg>