<svg xmlns="http://www.w3.org/2000/svg" xmlns:xlink="http://www.w3.org/1999/xlink" width="1080" zoomAndPan="magnify" viewBox="0 0 810 809.999993" height="1080" preserveAspectRatio="xMidYMid meet" version="1.0"><defs><g/><clipPath id="94b19b4442"><path d="M 376 581 L 492 581 L 492 724.351562 L 376 724.351562 Z M 376 581 " clip-rule="nonzero"/></clipPath><clipPath id="0586789d21"><path d="M 482 399 L 566.402344 399 L 566.402344 409 L 482 409 Z M 482 399 " clip-rule="nonzero"/></clipPath><clipPath id="44a4d14995"><path d="M 444 405 L 461 405 L 461 416.265625 L 444 416.265625 Z M 444 405 " clip-rule="nonzero"/></clipPath><clipPath id="e7e44f6e4a"><path d="M 444 392.265625 L 461 392.265625 L 461 403 L 444 403 Z M 444 392.265625 " clip-rule="nonzero"/></clipPath><clipPath id="e03b4d7308"><path d="M 257.402344 399 L 336 399 L 336 409 L 257.402344 409 Z M 257.402344 399 " clip-rule="nonzero"/></clipPath><clipPath id="dbb159062d"><path d="M 357 405 L 373 405 L 373 416.265625 L 357 416.265625 Z M 357 405 " clip-rule="nonzero"/></clipPath><clipPath id="0171ae19f4"><path d="M 357 392.265625 L 374 392.265625 L 374 403 L 357 403 Z M 357 392.265625 " clip-rule="nonzero"/></clipPath></defs><path fill="#2fa8bd" d="M 447.125 304.316406 L 435.925781 304.316406 C 437.824219 302.042969 439.585938 299.667969 441.210938 297.191406 C 442.835938 294.710938 444.3125 292.148438 445.640625 289.503906 C 446.972656 286.855469 448.144531 284.140625 449.160156 281.355469 C 450.175781 278.574219 451.03125 275.742188 451.71875 272.859375 C 452.410156 269.980469 452.933594 267.070312 453.285156 264.128906 C 453.640625 261.1875 453.824219 258.234375 453.839844 255.269531 C 453.851562 252.308594 453.695312 249.355469 453.371094 246.410156 C 453.042969 243.464844 452.546875 240.550781 451.886719 237.660156 C 451.886719 237.660156 464.71875 259.609375 447.125 304.316406 Z M 447.125 304.316406 " fill-opacity="1" fill-rule="nonzero"/><path fill="#2fa8bd" d="M 335.308594 246.550781 C 335.308594 246.550781 326.964844 207.238281 343.695312 198.894531 C 343.695312 198.894531 292.683594 186.015625 291.007812 160.078125 C 289.328125 134.144531 307.738281 137.859375 307.738281 137.859375 C 307.738281 137.859375 282.664062 117.773438 146.40625 112.742188 C 10.148438 107.707031 0.0820312 81 0.0820312 81 C 0.0820312 81 11.78125 115.28125 131.578125 126.34375 C 251.375 137.40625 254.460938 148.0625 254.460938 148.0625 C 242.113281 147.621094 229.855469 148.453125 217.6875 150.558594 C 217.6875 150.558594 286.699219 153.050781 302.117188 200.164062 C 294.929688 200.617188 287.933594 202.007812 281.121094 204.335938 C 281.121094 204.335938 314.449219 198.894531 335.308594 246.550781 Z M 335.308594 246.550781 " fill-opacity="1" fill-rule="nonzero"/><path fill="#2fa8bd" d="M 210.75 149.832031 C 210.75 149.832031 164.589844 142.394531 128.632812 149.832031 C 92.671875 157.269531 78.480469 159.851562 53.40625 158.898438 C 66.472656 162.441406 79.753906 164.699219 93.253906 165.683594 C 106.753906 166.667969 120.222656 166.355469 133.664062 164.75 C 180.457031 159.714844 205.894531 177.171875 205.894531 177.171875 C 198.144531 176.585938 163.273438 173.410156 101.878906 198.167969 C 101.878906 198.167969 121.964844 189.097656 161.234375 198.167969 C 200.5 207.238281 237.363281 207.238281 250.785156 202.25 C 250.785156 202.25 205.441406 216.578125 198.867188 239.160156 C 198.867188 239.160156 244.847656 207.417969 284.160156 239.160156 C 278.5625 240.421875 273.160156 242.269531 267.960938 244.699219 C 262.761719 247.132812 257.882812 250.089844 253.324219 253.578125 C 253.324219 253.578125 300.121094 241.0625 334.398438 297.878906 C 334.398438 297.878906 325.332031 211.273438 241.582031 216.53125 C 244.191406 215.21875 246.675781 213.695312 249.03125 211.96875 C 251.386719 210.242188 253.585938 208.328125 255.621094 206.234375 C 257.660156 204.140625 259.507812 201.890625 261.171875 199.484375 C 262.832031 197.082031 264.28125 194.554688 265.523438 191.910156 C 265.523438 191.910156 225.210938 204.605469 193.925781 190.050781 C 193.925781 190.050781 221.539062 185.019531 240.765625 188.375 C 240.765625 188.375 216.507812 161.621094 158.828125 155.773438 C 158.785156 155.773438 174.203125 148.019531 210.75 149.832031 Z M 210.75 149.832031 " fill-opacity="1" fill-rule="nonzero"/><path fill="#2fa8bd" d="M 474.691406 246.550781 C 474.691406 246.550781 483.035156 207.238281 466.441406 198.894531 C 466.441406 198.894531 517.453125 186.015625 519.128906 160.078125 C 520.808594 134.144531 502.398438 137.859375 502.398438 137.859375 C 502.398438 137.859375 527.335938 117.773438 663.640625 112.742188 C 799.941406 107.707031 809.917969 81 809.917969 81 C 809.917969 81 798.128906 115.28125 678.648438 126.34375 C 559.167969 137.40625 555.765625 148.0625 555.765625 148.0625 C 568.113281 147.621094 580.371094 148.453125 592.539062 150.558594 C 592.539062 150.558594 523.574219 153.050781 508.109375 200.164062 C 515.296875 200.617188 522.292969 202.007812 529.105469 204.335938 C 529.105469 204.335938 495.550781 198.894531 474.691406 246.550781 Z M 474.691406 246.550781 " fill-opacity="1" fill-rule="nonzero"/><path fill="#2fa8bd" d="M 599.25 149.832031 C 599.25 149.832031 645.410156 142.394531 681.367188 149.832031 C 717.328125 157.269531 731.519531 159.851562 756.59375 158.898438 C 743.527344 162.441406 730.246094 164.699219 716.746094 165.683594 C 703.246094 166.667969 689.777344 166.355469 676.335938 164.75 C 629.542969 159.714844 604.101562 177.171875 604.101562 177.171875 C 611.855469 176.585938 646.726562 173.410156 708.121094 198.167969 C 708.121094 198.167969 688.035156 189.097656 648.765625 198.167969 C 609.5 207.238281 572.636719 207.238281 559.214844 202.25 C 559.214844 202.25 604.558594 216.578125 611.132812 239.160156 C 611.132812 239.160156 565.152344 207.417969 525.839844 239.160156 C 531.449219 240.382812 536.863281 242.1875 542.082031 244.574219 C 547.304688 246.957031 552.214844 249.867188 556.808594 253.304688 C 556.808594 253.304688 509.96875 241.015625 475.507812 297.832031 C 475.507812 297.832031 484.578125 211.226562 568.328125 216.488281 C 565.703125 215.183594 563.203125 213.671875 560.832031 211.949219 C 558.460938 210.230469 556.246094 208.324219 554.195312 206.230469 C 552.140625 204.140625 550.277344 201.894531 548.601562 199.488281 C 546.921875 197.085938 545.457031 194.558594 544.203125 191.910156 C 544.203125 191.910156 584.515625 204.605469 615.800781 190.050781 C 615.800781 190.050781 588.1875 185.019531 568.960938 188.375 C 568.960938 188.375 593.222656 161.621094 650.898438 155.773438 C 651.261719 155.773438 635.796875 148.019531 599.25 149.832031 Z M 599.25 149.832031 " fill-opacity="1" fill-rule="nonzero"/><path fill="#2fa8bd" d="M 452.835938 158.765625 C 452.355469 158.589844 451.855469 158.5 451.34375 158.496094 C 450.832031 158.492188 450.332031 158.570312 449.84375 158.734375 C 449.359375 158.902344 448.914062 159.140625 448.507812 159.457031 C 448.105469 159.773438 447.765625 160.144531 447.488281 160.578125 C 441.5 170.960938 437.058594 169.285156 437.058594 169.285156 C 437.058594 169.285156 440.777344 169.285156 443.496094 163.296875 C 447.488281 154.820312 448.664062 156.042969 448.664062 156.042969 C 448.328125 155.410156 447.933594 154.808594 447.488281 154.242188 C 447.042969 153.679688 446.554688 153.15625 446.015625 152.679688 C 445.476562 152.203125 444.898438 151.777344 444.285156 151.402344 C 443.671875 151.027344 443.027344 150.710938 442.359375 150.449219 C 441.6875 150.191406 441 149.992188 440.292969 149.855469 C 439.585938 149.71875 438.875 149.644531 438.15625 149.632812 C 437.433594 149.621094 436.71875 149.675781 436.011719 149.792969 C 435.300781 149.910156 434.605469 150.089844 433.929688 150.332031 L 432.023438 151.101562 L 429.984375 150.195312 C 421.824219 146.882812 411.394531 146.292969 393.710938 154.730469 C 374.300781 163.796875 387.359375 195.539062 387.359375 195.539062 C 356.121094 221.382812 365.414062 299.238281 365.414062 299.238281 C 359.75 282.457031 356.726562 265.210938 356.347656 247.5 C 355.800781 221.382812 372.441406 188.554688 373.804688 174.363281 C 373.886719 173.394531 373.890625 172.425781 373.808594 171.460938 C 373.722656 170.492188 373.558594 169.539062 373.3125 168.597656 C 373.066406 167.660156 372.738281 166.746094 372.335938 165.863281 C 371.929688 164.980469 371.453125 164.140625 370.902344 163.339844 C 370.351562 162.539062 369.738281 161.792969 369.058594 161.097656 C 368.378906 160.402344 367.644531 159.769531 366.855469 159.203125 C 366.066406 158.636719 365.238281 158.140625 364.363281 157.714844 C 363.488281 157.292969 362.585938 156.945312 361.652344 156.679688 C 361.652344 156.679688 351.855469 158.539062 392.167969 147.609375 C 421.914062 139.675781 430.847656 143.300781 432.976562 146.65625 C 436.703125 145.921875 440.363281 146.179688 443.949219 147.429688 C 444.410156 147.609375 444.851562 147.835938 445.265625 148.109375 L 446.488281 148.878906 C 449.453125 151.628906 451.570312 154.925781 452.835938 158.765625 Z M 452.835938 158.765625 " fill-opacity="1" fill-rule="nonzero"/><path fill="#2fa8bd" d="M 396.429688 204.925781 C 396.429688 204.925781 364.28125 256.75 408.175781 304.316406 L 378.699219 304.316406 C 375.988281 295.429688 374.421875 286.34375 374.007812 277.0625 C 373.59375 267.777344 374.339844 258.589844 376.253906 249.496094 C 377.699219 241.339844 380.128906 233.492188 383.546875 225.945312 C 386.960938 218.398438 391.257812 211.390625 396.429688 204.925781 Z M 396.429688 204.925781 " fill-opacity="1" fill-rule="nonzero"/><g clip-path="url(#94b19b4442)"><path fill="#2fa8bd" d="M 491.34375 724.269531 C 491.34375 724.269531 413.191406 723.523438 385.230469 648.574219 C 385.230469 648.574219 374.578125 627.40625 376.464844 581.429688 C 376.464844 581.429688 376.464844 664.703125 452.289062 696.527344 C 450.714844 690.972656 449.597656 685.332031 448.941406 679.597656 C 448.285156 673.867188 448.097656 668.117188 448.375 662.355469 C 448.65625 656.589844 449.398438 650.886719 450.609375 645.242188 C 451.816406 639.601562 453.472656 634.09375 455.578125 628.71875 C 455.578125 628.71875 447.511719 701.652344 491.34375 724.269531 " fill-opacity="1" fill-rule="nonzero"/></g><path fill="#2fa8bd" d="M 483.101562 479.917969 C 483.101562 479.917969 478.71875 513.183594 501.597656 552.0625 C 501.597656 552.0625 464.957031 517 458.90625 497.886719 C 463.128906 503.085938 467.964844 507.628906 473.414062 511.519531 C 473.414062 511.519531 477.054688 489.078125 483.101562 479.917969 Z M 483.101562 479.917969 " fill-opacity="1" fill-rule="nonzero"/><path fill="#2fa8bd" d="M 329.171875 479.917969 C 329.171875 479.917969 333.554688 513.183594 310.675781 552.0625 C 310.675781 552.0625 347.316406 517 353.367188 497.886719 C 349.171875 503.082031 344.363281 507.625 338.945312 511.519531 C 338.945312 511.519531 335.308594 489.078125 329.171875 479.917969 Z M 329.171875 479.917969 " fill-opacity="1" fill-rule="nonzero"/><path fill="#2fa8bd" d="M 387.554688 479.566406 C 387.554688 479.566406 373 568.9375 417.355469 612.328125 C 417.355469 612.328125 446.503906 588.046875 428.402344 487.542969 C 428.402344 487.542969 471.617188 533.652344 454.085938 585.855469 C 454.085938 585.855469 460.835938 549.257812 441.640625 531.988281 C 441.640625 531.988281 455.136719 594.796875 421.476562 644.851562 C 421.476562 644.851562 385.011719 616.84375 379.839844 531.988281 C 379.839844 531.988281 353.234375 571.433594 362.308594 620.613281 C 360.625 614.660156 359.285156 608.632812 358.285156 602.527344 C 357.285156 596.421875 356.636719 590.28125 356.332031 584.101562 C 356.027344 577.925781 356.074219 571.75 356.46875 565.578125 C 356.867188 559.402344 357.609375 553.273438 358.699219 547.183594 C 359.789062 541.09375 361.21875 535.085938 362.988281 529.160156 C 364.757812 523.234375 366.855469 517.425781 369.285156 511.738281 C 371.710938 506.046875 374.453125 500.515625 377.507812 495.136719 C 380.5625 489.757812 383.910156 484.566406 387.554688 479.566406 Z M 387.554688 479.566406 " fill-opacity="1" fill-rule="nonzero"/><g fill="#002257" fill-opacity="1"><g transform="translate(194.477221, 468.485305)"><g><path d="M 5.5625 0.25 C 6 -6.625 6.257812 -11.300781 6.34375 -13.78125 C 6.425781 -16.269531 6.46875 -19.914062 6.46875 -24.71875 C 6.46875 -34.757812 6.003906 -40.898438 5.078125 -43.140625 C 6.546875 -43.460938 8.046875 -43.625 9.578125 -43.625 C 10.941406 -43.625 12.523438 -43.460938 14.328125 -43.140625 C 14.054688 -40.191406 13.835938 -36.34375 13.671875 -31.59375 C 13.503906 -26.84375 13.421875 -22.503906 13.421875 -18.578125 C 13.421875 -12.898438 13.53125 -8.945312 13.75 -6.71875 C 16.207031 -6.21875 19.046875 -5.96875 22.265625 -5.96875 C 24.234375 -5.96875 26.1875 -6.171875 28.125 -6.578125 C 30.0625 -6.992188 31.679688 -7.53125 32.984375 -8.1875 C 32.984375 -6.550781 32.789062 -4.882812 32.40625 -3.1875 C 32.03125 -1.5 31.625 -0.351562 31.1875 0.25 C 27.582031 -0.132812 23.378906 -0.328125 18.578125 -0.328125 C 12.796875 -0.328125 8.457031 -0.132812 5.5625 0.25 Z M 5.5625 0.25 "/></g></g></g><g fill="#002257" fill-opacity="1"><g transform="translate(225.747719, 468.485305)"><g><path d="M 2.703125 -26.265625 C 3.515625 -27.359375 4.15625 -28.65625 4.625 -30.15625 C 5.09375 -31.65625 5.328125 -33.195312 5.328125 -34.78125 C 5.328125 -37.457031 4.859375 -39.859375 3.921875 -41.984375 C 4.859375 -42.535156 6.003906 -43 7.359375 -43.375 C 8.722656 -43.757812 9.925781 -43.953125 10.96875 -43.953125 L 12.859375 -41.90625 C 12.640625 -38.738281 11.722656 -35.734375 10.109375 -32.890625 C 8.492188 -30.054688 6.328125 -27.523438 3.609375 -25.296875 Z M 2.703125 -26.265625 "/></g></g></g><g fill="#002257" fill-opacity="1"><g transform="translate(240.482179, 468.485305)"><g><path d="M 5.5625 0.25 C 5.945312 -5.425781 6.191406 -9.722656 6.296875 -12.640625 C 6.410156 -15.566406 6.46875 -19.539062 6.46875 -24.5625 C 6.46875 -33.5625 6.003906 -39.753906 5.078125 -43.140625 C 7.960938 -42.753906 12.351562 -42.5625 18.25 -42.5625 C 25.507812 -42.5625 31.132812 -42.753906 35.125 -43.140625 C 35.125 -41.660156 34.957031 -40.078125 34.625 -38.390625 C 34.300781 -36.703125 33.894531 -35.53125 33.40625 -34.875 C 32.09375 -35.582031 30.398438 -36.125 28.328125 -36.5 C 26.253906 -36.882812 24.125 -37.078125 21.9375 -37.078125 C 19.039062 -37.078125 16.367188 -36.859375 13.921875 -36.421875 C 13.703125 -31.835938 13.5625 -27.75 13.5 -24.15625 L 15.546875 -24.0625 C 17.617188 -23.957031 19.175781 -23.90625 20.21875 -23.90625 C 22.84375 -23.90625 24.847656 -23.972656 26.234375 -24.109375 C 27.628906 -24.242188 29.171875 -24.472656 30.859375 -24.796875 C 31.078125 -23.710938 31.1875 -22.707031 31.1875 -21.78125 C 31.1875 -21.007812 31.078125 -19.96875 30.859375 -18.65625 C 24.859375 -19.039062 20.164062 -19.234375 16.78125 -19.234375 C 15.195312 -19.234375 14.078125 -19.207031 13.421875 -19.15625 C 13.421875 -13.207031 13.53125 -9.03125 13.75 -6.625 C 16.375 -6.082031 19.238281 -5.8125 22.34375 -5.8125 C 24.75 -5.8125 27.148438 -6 29.546875 -6.375 C 31.953125 -6.757812 33.914062 -7.304688 35.4375 -8.015625 C 35.4375 -6.546875 35.273438 -4.953125 34.953125 -3.234375 C 34.628906 -1.515625 34.21875 -0.351562 33.71875 0.25 C 30.226562 -0.132812 25.207031 -0.328125 18.65625 -0.328125 C 12.820312 -0.328125 8.457031 -0.132812 5.5625 0.25 Z M 5.5625 0.25 "/></g></g></g><g fill="#002257" fill-opacity="1"><g transform="translate(276.909934, 468.485305)"><g><path d="M 18.015625 0.734375 C 16.367188 0.734375 14.972656 0.0820312 13.828125 -1.21875 C 12.679688 -2.53125 11.726562 -4.171875 10.96875 -6.140625 C 10.207031 -8.109375 9.28125 -10.863281 8.1875 -14.40625 C 6.875 -18.71875 5.671875 -22.222656 4.578125 -24.921875 C 3.492188 -27.628906 2.101562 -30.019531 0.40625 -32.09375 C 1.9375 -32.75 3.410156 -33.195312 4.828125 -33.4375 C 6.242188 -33.6875 7.851562 -33.8125 9.65625 -33.8125 C 10.207031 -30.863281 11.628906 -25.828125 13.921875 -18.703125 C 16.210938 -11.578125 18.09375 -6.84375 19.5625 -4.5 C 22.238281 -12.851562 24.066406 -18.882812 25.046875 -22.59375 C 26.023438 -26.300781 26.515625 -28.972656 26.515625 -30.609375 C 26.515625 -31.429688 26.378906 -32.195312 26.109375 -32.90625 C 28.296875 -33.507812 30.726562 -33.8125 33.40625 -33.8125 C 30.289062 -26.28125 26.878906 -15.742188 23.171875 -2.203125 Z M 18.015625 0.734375 "/></g></g></g><g fill="#002257" fill-opacity="1"><g transform="translate(308.180432, 468.485305)"><g><path d="M 17.03125 0.90625 C 12.664062 0.90625 9.320312 -0.523438 7 -3.390625 C 4.675781 -6.253906 3.515625 -10.335938 3.515625 -15.640625 C 3.515625 -19.234375 4.222656 -22.4375 5.640625 -25.25 C 7.066406 -28.0625 9.046875 -30.257812 11.578125 -31.84375 C 14.117188 -33.425781 17.023438 -34.21875 20.296875 -34.21875 C 24.660156 -34.21875 27.972656 -32.785156 30.234375 -29.921875 C 32.503906 -27.054688 33.640625 -22.835938 33.640625 -17.265625 C 30.753906 -16.554688 27.265625 -15.941406 23.171875 -15.421875 C 19.078125 -14.910156 15.035156 -14.597656 11.046875 -14.484375 C 11.378906 -11.160156 12.296875 -8.75 13.796875 -7.25 C 15.296875 -5.75 17.492188 -5 20.390625 -5 C 22.617188 -5 24.726562 -5.253906 26.71875 -5.765625 C 28.71875 -6.285156 30.425781 -7.007812 31.84375 -7.9375 L 32.421875 -6.390625 C 30.722656 -4.203125 28.46875 -2.4375 25.65625 -1.09375 C 22.851562 0.238281 19.976562 0.90625 17.03125 0.90625 Z M 10.890625 -17.109375 C 13.617188 -17.378906 16.289062 -17.828125 18.90625 -18.453125 C 21.53125 -19.085938 23.601562 -19.785156 25.125 -20.546875 C 25.070312 -23.441406 24.238281 -25.816406 22.625 -27.671875 C 21.019531 -29.523438 18.960938 -30.453125 16.453125 -30.453125 C 14.765625 -29.472656 13.414062 -27.78125 12.40625 -25.375 C 11.394531 -22.976562 10.890625 -20.222656 10.890625 -17.109375 Z M 10.890625 -17.109375 "/></g></g></g><g fill="#002257" fill-opacity="1"><g transform="translate(343.134677, 468.485305)"><g><path d="M 10.71875 0.734375 C 9.132812 0.734375 8.015625 0.242188 7.359375 -0.734375 C 6.710938 -1.710938 6.390625 -3.457031 6.390625 -5.96875 C 6.390625 -7.988281 6.441406 -10.859375 6.546875 -14.578125 C 6.660156 -18.066406 6.71875 -20.628906 6.71875 -22.265625 C 6.71875 -24.503906 6.578125 -26.5625 6.296875 -28.4375 C 6.023438 -30.320312 5.617188 -31.675781 5.078125 -32.5 C 6.609375 -33.101562 8.066406 -33.523438 9.453125 -33.765625 C 10.847656 -34.015625 12.414062 -34.140625 14.15625 -34.140625 C 13.882812 -32.554688 13.648438 -30.113281 13.453125 -26.8125 C 13.265625 -23.507812 13.171875 -19.8125 13.171875 -15.71875 C 13.171875 -12.71875 13.265625 -10.425781 13.453125 -8.84375 C 13.648438 -7.257812 13.953125 -6.003906 14.359375 -5.078125 C 14.773438 -4.148438 15.445312 -3.191406 16.375 -2.203125 C 15.5 -1.222656 14.539062 -0.488281 13.5 0 C 12.46875 0.488281 11.539062 0.734375 10.71875 0.734375 Z M 9.75 -39.296875 C 8.269531 -41.097656 6.601562 -42.789062 4.75 -44.375 C 6.382812 -46.382812 8.050781 -48.070312 9.75 -49.4375 C 11.269531 -47.582031 12.957031 -45.894531 14.8125 -44.375 C 13.289062 -42.507812 11.601562 -40.816406 9.75 -39.296875 Z M 9.75 -39.296875 "/></g></g></g><g fill="#002257" fill-opacity="1"><g transform="translate(360.570571, 468.485305)"><g><path d="M 10.890625 0.734375 C 9.253906 0.734375 8.109375 0.257812 7.453125 -0.6875 C 6.796875 -1.644531 6.46875 -3.40625 6.46875 -5.96875 C 6.46875 -7.664062 6.519531 -10.367188 6.625 -14.078125 C 6.738281 -18.222656 6.796875 -21.632812 6.796875 -24.3125 C 6.796875 -33.09375 6.273438 -39.367188 5.234375 -43.140625 C 6.765625 -43.742188 8.222656 -44.164062 9.609375 -44.40625 C 11.003906 -44.65625 12.550781 -44.78125 14.25 -44.78125 C 13.59375 -38.007812 13.265625 -28.320312 13.265625 -15.71875 C 13.265625 -12.769531 13.359375 -10.488281 13.546875 -8.875 C 13.734375 -7.269531 14.046875 -6.003906 14.484375 -5.078125 C 14.921875 -4.148438 15.601562 -3.191406 16.53125 -2.203125 C 15.65625 -1.222656 14.695312 -0.488281 13.65625 0 C 12.625 0.488281 11.703125 0.734375 10.890625 0.734375 Z M 10.890625 0.734375 "/></g></g></g><g fill="#002257" fill-opacity="1"><g transform="translate(378.088317, 468.485305)"><g/></g></g><g fill="#002257" fill-opacity="1"><g transform="translate(396.424697, 468.485305)"><g><path d="M 17.28125 0.984375 C 12.851562 0.984375 9.503906 -0.472656 7.234375 -3.390625 C 4.972656 -6.316406 3.84375 -10.644531 3.84375 -16.375 C 3.84375 -22.269531 5.003906 -26.71875 7.328125 -29.71875 C 9.648438 -32.71875 13.101562 -34.21875 17.6875 -34.21875 C 21.289062 -34.21875 24.59375 -33.125 27.59375 -30.9375 C 27.257812 -36.394531 26.738281 -40.460938 26.03125 -43.140625 C 27.613281 -43.742188 29.097656 -44.164062 30.484375 -44.40625 C 31.878906 -44.65625 33.425781 -44.78125 35.125 -44.78125 C 34.46875 -37.957031 34.140625 -26.441406 34.140625 -10.234375 C 34.140625 -8.328125 34.359375 -6.8125 34.796875 -5.6875 C 35.234375 -4.570312 36.078125 -3.359375 37.328125 -2.046875 C 35.472656 -0.410156 33.289062 0.570312 30.78125 0.90625 C 29.3125 -0.1875 28.273438 -1.71875 27.671875 -3.6875 C 26.203125 -2.207031 24.550781 -1.054688 22.71875 -0.234375 C 20.894531 0.578125 19.082031 0.984375 17.28125 0.984375 Z M 19.328125 -3.03125 C 20.578125 -3.195312 21.894531 -3.601562 23.28125 -4.25 C 24.675781 -4.90625 26.003906 -5.695312 27.265625 -6.625 C 27.265625 -8.320312 27.316406 -11.1875 27.421875 -15.21875 C 27.535156 -19.695312 27.59375 -23.21875 27.59375 -25.78125 C 25.457031 -27.144531 22.945312 -27.828125 20.0625 -27.828125 C 17.21875 -27.828125 15.03125 -26.816406 13.5 -24.796875 C 11.976562 -22.785156 11.21875 -19.867188 11.21875 -16.046875 C 11.21875 -12.273438 11.925781 -9.269531 13.34375 -7.03125 C 14.757812 -4.800781 16.753906 -3.46875 19.328125 -3.03125 Z M 19.328125 -3.03125 "/></g></g></g><g fill="#002257" fill-opacity="1"><g transform="translate(434.817117, 468.485305)"><g><path d="M 17.03125 0.90625 C 12.664062 0.90625 9.320312 -0.523438 7 -3.390625 C 4.675781 -6.253906 3.515625 -10.335938 3.515625 -15.640625 C 3.515625 -19.234375 4.222656 -22.4375 5.640625 -25.25 C 7.066406 -28.0625 9.046875 -30.257812 11.578125 -31.84375 C 14.117188 -33.425781 17.023438 -34.21875 20.296875 -34.21875 C 24.660156 -34.21875 27.972656 -32.785156 30.234375 -29.921875 C 32.503906 -27.054688 33.640625 -22.835938 33.640625 -17.265625 C 30.753906 -16.554688 27.265625 -15.941406 23.171875 -15.421875 C 19.078125 -14.910156 15.035156 -14.597656 11.046875 -14.484375 C 11.378906 -11.160156 12.296875 -8.75 13.796875 -7.25 C 15.296875 -5.75 17.492188 -5 20.390625 -5 C 22.617188 -5 24.726562 -5.253906 26.71875 -5.765625 C 28.71875 -6.285156 30.425781 -7.007812 31.84375 -7.9375 L 32.421875 -6.390625 C 30.722656 -4.203125 28.46875 -2.4375 25.65625 -1.09375 C 22.851562 0.238281 19.976562 0.90625 17.03125 0.90625 Z M 10.890625 -17.109375 C 13.617188 -17.378906 16.289062 -17.828125 18.90625 -18.453125 C 21.53125 -19.085938 23.601562 -19.785156 25.125 -20.546875 C 25.070312 -23.441406 24.238281 -25.816406 22.625 -27.671875 C 21.019531 -29.523438 18.960938 -30.453125 16.453125 -30.453125 C 14.765625 -29.472656 13.414062 -27.78125 12.40625 -25.375 C 11.394531 -22.976562 10.890625 -20.222656 10.890625 -17.109375 Z M 10.890625 -17.109375 "/></g></g></g><g fill="#002257" fill-opacity="1"><g transform="translate(469.771349, 468.485305)"><g/></g></g><g fill="#002257" fill-opacity="1"><g transform="translate(488.107743, 468.485305)"><g><path d="M 22.109375 0.90625 C 16.097656 0.90625 11.484375 -0.863281 8.265625 -4.40625 C 5.046875 -7.957031 3.4375 -13.066406 3.4375 -19.734375 C 3.4375 -24.367188 4.347656 -28.5 6.171875 -32.125 C 8.003906 -35.757812 10.570312 -38.582031 13.875 -40.59375 C 17.175781 -42.613281 20.957031 -43.625 25.21875 -43.625 C 30.175781 -43.625 34.429688 -42.972656 37.984375 -41.671875 C 37.984375 -40.523438 37.765625 -39.1875 37.328125 -37.65625 C 36.890625 -36.125 36.367188 -34.894531 35.765625 -33.96875 C 33.316406 -35.550781 30.710938 -36.890625 27.953125 -37.984375 C 25.203125 -39.078125 23.003906 -39.625 21.359375 -39.625 C 19.554688 -39.1875 17.878906 -38.078125 16.328125 -36.296875 C 14.773438 -34.523438 13.535156 -32.367188 12.609375 -29.828125 C 11.679688 -27.296875 11.21875 -24.691406 11.21875 -22.015625 C 11.21875 -15.847656 12.320312 -11.414062 14.53125 -8.71875 C 16.738281 -6.019531 20.378906 -4.671875 25.453125 -4.671875 C 27.742188 -4.671875 29.789062 -4.941406 31.59375 -5.484375 C 31.59375 -14.378906 31.15625 -19.863281 30.28125 -21.9375 C 31.707031 -22.257812 33.070312 -22.421875 34.375 -22.421875 C 35.738281 -22.421875 37.296875 -22.257812 39.046875 -21.9375 C 38.554688 -16.425781 38.3125 -10.695312 38.3125 -4.75 C 36.507812 -3.050781 34.117188 -1.679688 31.140625 -0.640625 C 28.171875 0.390625 25.160156 0.90625 22.109375 0.90625 Z M 22.109375 0.90625 "/></g></g></g><g fill="#002257" fill-opacity="1"><g transform="translate(529.037891, 468.485305)"><g><path d="M 10.484375 0.90625 C 8.515625 0.90625 6.859375 0.179688 5.515625 -1.265625 C 4.179688 -2.710938 3.515625 -4.554688 3.515625 -6.796875 C 3.515625 -13.398438 9.957031 -17.109375 22.84375 -17.921875 C 22.84375 -21.523438 22.320312 -24.035156 21.28125 -25.453125 C 20.25 -26.878906 18.335938 -27.59375 15.546875 -27.59375 C 13.859375 -27.59375 12.15625 -27.316406 10.4375 -26.765625 C 8.71875 -26.222656 7.148438 -25.488281 5.734375 -24.5625 L 5.078125 -26.109375 C 6.546875 -28.515625 8.535156 -30.46875 11.046875 -31.96875 C 13.554688 -33.46875 16.125 -34.21875 18.75 -34.21875 C 22.289062 -34.21875 25.015625 -33.273438 26.921875 -31.390625 C 28.835938 -29.503906 29.796875 -26.789062 29.796875 -23.25 C 29.796875 -21.28125 29.660156 -19.070312 29.390625 -16.625 C 29.171875 -14 29.0625 -12.0625 29.0625 -10.8125 C 29.0625 -8.726562 29.28125 -7.113281 29.71875 -5.96875 C 30.15625 -4.820312 31 -3.566406 32.25 -2.203125 C 30.226562 -0.460938 28.019531 0.570312 25.625 0.90625 C 24.144531 -0.0820312 23.109375 -1.585938 22.515625 -3.609375 C 20.546875 -2.242188 18.492188 -1.148438 16.359375 -0.328125 C 14.234375 0.492188 12.273438 0.90625 10.484375 0.90625 Z M 13.75 -3.03125 C 15.113281 -3.132812 16.5625 -3.515625 18.09375 -4.171875 C 19.625 -4.828125 20.988281 -5.617188 22.1875 -6.546875 L 22.1875 -6.953125 C 22.1875 -8.703125 22.265625 -10.394531 22.421875 -12.03125 L 22.671875 -15.546875 C 18.960938 -15.328125 16.097656 -14.550781 14.078125 -13.21875 C 12.054688 -11.882812 11.046875 -10.097656 11.046875 -7.859375 C 11.046875 -6.929688 11.289062 -6.015625 11.78125 -5.109375 C 12.28125 -4.210938 12.9375 -3.519531 13.75 -3.03125 Z M 13.75 -3.03125 "/></g></g></g><g fill="#002257" fill-opacity="1"><g transform="translate(562.273027, 468.485305)"><g><path d="M 10.71875 0.734375 C 9.132812 0.734375 8.015625 0.242188 7.359375 -0.734375 C 6.710938 -1.710938 6.390625 -3.457031 6.390625 -5.96875 C 6.390625 -7.988281 6.441406 -10.859375 6.546875 -14.578125 C 6.660156 -18.066406 6.71875 -20.628906 6.71875 -22.265625 C 6.71875 -24.503906 6.578125 -26.5625 6.296875 -28.4375 C 6.023438 -30.320312 5.617188 -31.675781 5.078125 -32.5 C 6.609375 -33.101562 8.066406 -33.523438 9.453125 -33.765625 C 10.847656 -34.015625 12.414062 -34.140625 14.15625 -34.140625 C 13.882812 -32.554688 13.648438 -30.113281 13.453125 -26.8125 C 13.265625 -23.507812 13.171875 -19.8125 13.171875 -15.71875 C 13.171875 -12.71875 13.265625 -10.425781 13.453125 -8.84375 C 13.648438 -7.257812 13.953125 -6.003906 14.359375 -5.078125 C 14.773438 -4.148438 15.445312 -3.191406 16.375 -2.203125 C 15.5 -1.222656 14.539062 -0.488281 13.5 0 C 12.46875 0.488281 11.539062 0.734375 10.71875 0.734375 Z M 0.828125 -39.53125 C -0.648438 -41.332031 -2.289062 -42.945312 -4.09375 -44.375 C -2.5625 -46.113281 -0.921875 -47.75 0.828125 -49.28125 C 2.242188 -47.425781 3.878906 -45.789062 5.734375 -44.375 C 4.148438 -42.507812 2.515625 -40.894531 0.828125 -39.53125 Z M 18.59375 -39.53125 C 17.113281 -41.28125 15.5 -42.894531 13.75 -44.375 C 15.113281 -46.0625 16.726562 -47.695312 18.59375 -49.28125 C 20.007812 -47.425781 21.644531 -45.789062 23.5 -44.375 C 21.914062 -42.507812 20.28125 -40.894531 18.59375 -39.53125 Z M 18.59375 -39.53125 "/></g></g></g><g fill="#002257" fill-opacity="1"><g transform="translate(579.708907, 468.485305)"><g><path d="M 10.484375 0.90625 C 8.515625 0.90625 6.859375 0.179688 5.515625 -1.265625 C 4.179688 -2.710938 3.515625 -4.554688 3.515625 -6.796875 C 3.515625 -13.398438 9.957031 -17.109375 22.84375 -17.921875 C 22.84375 -21.523438 22.320312 -24.035156 21.28125 -25.453125 C 20.25 -26.878906 18.335938 -27.59375 15.546875 -27.59375 C 13.859375 -27.59375 12.15625 -27.316406 10.4375 -26.765625 C 8.71875 -26.222656 7.148438 -25.488281 5.734375 -24.5625 L 5.078125 -26.109375 C 6.546875 -28.515625 8.535156 -30.46875 11.046875 -31.96875 C 13.554688 -33.46875 16.125 -34.21875 18.75 -34.21875 C 22.289062 -34.21875 25.015625 -33.273438 26.921875 -31.390625 C 28.835938 -29.503906 29.796875 -26.789062 29.796875 -23.25 C 29.796875 -21.28125 29.660156 -19.070312 29.390625 -16.625 C 29.171875 -14 29.0625 -12.0625 29.0625 -10.8125 C 29.0625 -8.726562 29.28125 -7.113281 29.71875 -5.96875 C 30.15625 -4.820312 31 -3.566406 32.25 -2.203125 C 30.226562 -0.460938 28.019531 0.570312 25.625 0.90625 C 24.144531 -0.0820312 23.109375 -1.585938 22.515625 -3.609375 C 20.546875 -2.242188 18.492188 -1.148438 16.359375 -0.328125 C 14.234375 0.492188 12.273438 0.90625 10.484375 0.90625 Z M 13.75 -3.03125 C 15.113281 -3.132812 16.5625 -3.515625 18.09375 -4.171875 C 19.625 -4.828125 20.988281 -5.617188 22.1875 -6.546875 L 22.1875 -6.953125 C 22.1875 -8.703125 22.265625 -10.394531 22.421875 -12.03125 L 22.671875 -15.546875 C 18.960938 -15.328125 16.097656 -14.550781 14.078125 -13.21875 C 12.054688 -11.882812 11.046875 -10.097656 11.046875 -7.859375 C 11.046875 -6.929688 11.289062 -6.015625 11.78125 -5.109375 C 12.28125 -4.210938 12.9375 -3.519531 13.75 -3.03125 Z M 13.75 -3.03125 "/></g></g></g><g fill="#002257" fill-opacity="1"><g transform="translate(67.971446, 374.77516)"><g><path d="M 37.546875 20.4375 C 36.410156 20.4375 35.191406 20.09375 33.890625 19.40625 C 32.597656 18.71875 31.457031 17.578125 30.46875 15.984375 C 31.539062 16.660156 32.515625 16.75 33.390625 16.25 C 34.265625 15.757812 34.703125 14.910156 34.703125 13.703125 C 34.703125 11.796875 33.671875 9.929688 31.609375 8.109375 C 29.253906 9.773438 26.6875 11.101562 23.90625 12.09375 C 21.132812 13.082031 18.300781 13.578125 15.40625 13.578125 C 10.84375 13.578125 7.421875 12.851562 5.140625 11.40625 C 2.859375 9.96875 1.71875 8.375 1.71875 6.625 C 1.71875 4.875 2.972656 3.234375 5.484375 1.703125 C 7.992188 0.179688 11.796875 -0.578125 16.890625 -0.578125 C 19.171875 -0.578125 21.472656 -0.347656 23.796875 0.109375 C 26.117188 0.566406 28.457031 1.210938 30.8125 2.046875 C 31.800781 0.523438 32.582031 -1.179688 33.15625 -3.078125 C 33.726562 -4.984375 34.015625 -7 34.015625 -9.125 C 34.015625 -12.707031 33.328125 -16.550781 31.953125 -20.65625 C 30.585938 -24.769531 29.007812 -29.03125 27.21875 -33.4375 C 25.4375 -37.851562 23.859375 -42.285156 22.484375 -46.734375 C 21.117188 -51.191406 20.4375 -55.585938 20.4375 -59.921875 C 20.4375 -64.867188 21.476562 -69.207031 23.5625 -72.9375 C 25.65625 -76.664062 28.640625 -79.578125 32.515625 -81.671875 C 36.398438 -83.765625 40.929688 -84.8125 46.109375 -84.8125 C 51.210938 -84.8125 55.378906 -83.859375 58.609375 -81.953125 C 61.847656 -80.046875 63.46875 -77.648438 63.46875 -74.765625 C 63.46875 -72.628906 62.59375 -70.894531 60.84375 -69.5625 C 59.09375 -68.238281 56.769531 -67.578125 53.875 -67.578125 C 52.195312 -67.578125 50.425781 -67.859375 48.5625 -68.421875 C 46.695312 -68.992188 45.117188 -70.003906 43.828125 -71.453125 C 46.035156 -70.691406 47.785156 -70.84375 49.078125 -71.90625 C 50.367188 -72.96875 51.015625 -74.1875 51.015625 -75.5625 C 51.015625 -76.695312 50.539062 -77.738281 49.59375 -78.6875 C 48.644531 -79.644531 47.066406 -80.125 44.859375 -80.125 C 41.128906 -80.125 38.140625 -78.523438 35.890625 -75.328125 C 33.648438 -72.128906 32.53125 -67.945312 32.53125 -62.78125 C 32.53125 -58.664062 33.140625 -54.457031 34.359375 -50.15625 C 35.578125 -45.863281 37.003906 -41.585938 38.640625 -37.328125 C 40.273438 -33.066406 41.703125 -29.015625 42.921875 -25.171875 C 44.140625 -21.328125 44.75 -17.804688 44.75 -14.609375 C 44.75 -11.335938 43.984375 -8.066406 42.453125 -4.796875 C 40.929688 -1.523438 38.878906 1.441406 36.296875 4.109375 C 40.710938 5.859375 45.085938 7.78125 49.421875 9.875 C 53.753906 11.96875 57.972656 13.753906 62.078125 15.234375 C 66.191406 16.722656 70.078125 17.46875 73.734375 17.46875 C 75.785156 17.46875 77.269531 17.085938 78.1875 16.328125 C 79.101562 15.566406 79.5625 14.726562 79.5625 13.8125 C 79.5625 12.976562 79.289062 12.3125 78.75 11.8125 C 78.21875 11.320312 77.570312 11.078125 76.8125 11.078125 C 76.132812 11.078125 75.488281 11.265625 74.875 11.640625 C 75.332031 9.890625 76.171875 8.535156 77.390625 7.578125 C 78.609375 6.628906 79.9375 6.15625 81.375 6.15625 C 82.976562 6.15625 84.3125 6.6875 85.375 7.75 C 86.4375 8.820312 86.96875 10.117188 86.96875 11.640625 C 86.96875 13.546875 86.207031 15.179688 84.6875 16.546875 C 83.164062 17.921875 81.265625 19.023438 78.984375 19.859375 C 76.703125 20.691406 74.320312 21.316406 71.84375 21.734375 C 69.375 22.160156 67.148438 22.375 65.171875 22.375 C 61.210938 22.375 57.367188 21.835938 53.640625 20.765625 C 49.910156 19.703125 46.222656 18.296875 42.578125 16.546875 C 42.492188 17.691406 41.957031 18.625 40.96875 19.34375 C 39.988281 20.070312 38.847656 20.4375 37.546875 20.4375 Z M 12.21875 6.5 C 12.21875 7.488281 12.75 8.285156 13.8125 8.890625 C 14.875 9.503906 16.242188 9.8125 17.921875 9.8125 C 21.648438 9.8125 25.035156 8.367188 28.078125 5.484375 C 25.179688 3.804688 22.0625 2.96875 18.71875 2.96875 C 16.8125 2.96875 15.25 3.289062 14.03125 3.9375 C 12.820312 4.582031 12.21875 5.4375 12.21875 6.5 Z M 12.21875 6.5 "/></g></g></g><g fill="#002257" fill-opacity="1"><g transform="translate(122.295016, 374.77516)"><g><path d="M 9.25 -42.234375 C 7.644531 -42.234375 6.234375 -42.878906 5.015625 -44.171875 C 3.804688 -45.460938 3.203125 -47.289062 3.203125 -49.65625 C 3.203125 -51.9375 3.734375 -54.140625 4.796875 -56.265625 C 5.859375 -58.398438 7.207031 -60.300781 8.84375 -61.96875 C 10.476562 -63.644531 12.210938 -64.941406 14.046875 -65.859375 L 15.75 -63.6875 C 14.300781 -62.550781 13.023438 -61.203125 11.921875 -59.640625 C 10.816406 -58.078125 10.113281 -56.421875 9.8125 -54.671875 C 11.414062 -54.597656 12.75 -53.96875 13.8125 -52.78125 C 14.875 -51.601562 15.40625 -50.179688 15.40625 -48.515625 C 15.40625 -46.679688 14.816406 -45.175781 13.640625 -44 C 12.460938 -42.820312 11 -42.234375 9.25 -42.234375 Z M 9.25 -42.234375 "/></g></g></g><g fill="#002257" fill-opacity="1"><g transform="translate(141.011588, 374.77516)"><g/></g></g><g fill="#002257" fill-opacity="1"><g transform="translate(170.684141, 374.77516)"><g><path d="M 15.984375 16.328125 C 12.484375 16.328125 9.953125 15.601562 8.390625 14.15625 C 6.828125 12.707031 6.046875 11.222656 6.046875 9.703125 C 6.046875 8.179688 6.484375 7.019531 7.359375 6.21875 C 8.234375 5.414062 9.203125 5.015625 10.265625 5.015625 C 11.335938 5.015625 12.328125 5.359375 13.234375 6.046875 C 14.148438 6.734375 14.609375 7.835938 14.609375 9.359375 C 14.609375 10.046875 14.421875 10.769531 14.046875 11.53125 C 14.492188 11.675781 14.945312 11.769531 15.40625 11.8125 C 15.863281 11.851562 16.285156 11.875 16.671875 11.875 C 20.703125 11.875 23.875 10.769531 26.1875 8.5625 C 28.507812 6.351562 30.1875 3.59375 31.21875 0.28125 C 32.25 -3.03125 32.765625 -6.394531 32.765625 -9.8125 L 32.765625 -44.859375 C 32.765625 -50.035156 32.59375 -53.914062 32.25 -56.5 C 31.90625 -59.082031 31.367188 -60.90625 30.640625 -61.96875 C 29.921875 -63.039062 28.953125 -63.804688 27.734375 -64.265625 L 27.734375 -64.484375 C 31.085938 -64.796875 34.300781 -65.976562 37.375 -68.03125 C 40.457031 -70.082031 42.535156 -72.628906 43.609375 -75.671875 C 40.097656 -75.753906 36.648438 -75.375 33.265625 -74.53125 C 29.878906 -73.695312 26.835938 -72.5 24.140625 -70.9375 C 21.441406 -69.375 19.289062 -67.523438 17.6875 -65.390625 C 16.09375 -63.265625 15.296875 -60.984375 15.296875 -58.546875 C 15.296875 -57.179688 15.65625 -56.132812 16.375 -55.40625 C 17.101562 -54.6875 17.960938 -54.328125 18.953125 -54.328125 C 19.785156 -54.328125 20.582031 -54.535156 21.34375 -54.953125 C 22.101562 -55.378906 22.75 -56.125 23.28125 -57.1875 C 23.132812 -53.6875 22.070312 -50.738281 20.09375 -48.34375 C 18.113281 -45.945312 15.332031 -44.75 11.75 -44.75 C 8.863281 -44.75 6.46875 -45.71875 4.5625 -47.65625 C 2.664062 -49.59375 1.71875 -52.238281 1.71875 -55.59375 C 1.71875 -59.3125 2.859375 -62.632812 5.140625 -65.5625 C 7.421875 -68.5 10.441406 -70.992188 14.203125 -73.046875 C 17.972656 -75.097656 22.140625 -76.65625 26.703125 -77.71875 C 31.273438 -78.789062 35.84375 -79.328125 40.40625 -79.328125 C 44.507812 -79.328125 48.3125 -78.984375 51.8125 -78.296875 L 51.9375 -78.078125 C 49.34375 -76.703125 47.472656 -74.660156 46.328125 -71.953125 C 45.191406 -69.253906 44.488281 -66.097656 44.21875 -62.484375 C 43.957031 -58.867188 43.828125 -54.972656 43.828125 -50.796875 L 43.828125 -13.46875 C 43.828125 -7.226562 44.359375 -2.398438 45.421875 1.015625 C 46.492188 4.441406 48.242188 6.765625 50.671875 7.984375 L 49.421875 10.609375 C 46.753906 9.617188 44.015625 9.316406 41.203125 9.703125 C 41.273438 8.867188 41.046875 8.144531 40.515625 7.53125 C 39.984375 6.925781 39.257812 6.625 38.34375 6.625 C 36.445312 6.625 35.5 7.648438 35.5 9.703125 C 35.5 10.160156 35.613281 10.578125 35.84375 10.953125 C 32.800781 11.941406 29.660156 13.082031 26.421875 14.375 C 23.191406 15.675781 19.710938 16.328125 15.984375 16.328125 Z M 15.984375 16.328125 "/></g></g></g><g fill="#002257" fill-opacity="1"><g transform="translate(222.497025, 374.77516)"><g><path d="M 1.59375 -0.34375 C 3.195312 -0.875 4.335938 -1.820312 5.015625 -3.1875 C 5.703125 -4.5625 6.117188 -6.082031 6.265625 -7.75 C 6.421875 -9.425781 6.5 -10.953125 6.5 -12.328125 L 6.5 -51.140625 C 6.5 -55.015625 6.117188 -58.015625 5.359375 -60.140625 C 4.597656 -62.273438 3.34375 -63.800781 1.59375 -64.71875 L 1.59375 -65.0625 C 8.132812 -65.4375 13.765625 -64.367188 18.484375 -61.859375 C 23.203125 -59.347656 27.117188 -55.847656 30.234375 -51.359375 C 33.359375 -46.867188 35.835938 -41.882812 37.671875 -36.40625 L 37.671875 -52.734375 C 37.671875 -54.097656 37.59375 -55.617188 37.4375 -57.296875 C 37.28125 -58.972656 36.859375 -60.492188 36.171875 -61.859375 C 35.492188 -63.234375 34.359375 -64.1875 32.765625 -64.71875 L 32.765625 -65.0625 L 50.796875 -65.0625 L 50.796875 -64.71875 C 49.191406 -64.1875 48.046875 -63.234375 47.359375 -61.859375 C 46.679688 -60.492188 46.265625 -58.972656 46.109375 -57.296875 C 45.960938 -55.617188 45.890625 -54.097656 45.890625 -52.734375 L 45.890625 0 L 37.78125 0 C 37.78125 -6.3125 37.1875 -12.359375 36 -18.140625 C 34.820312 -23.929688 33.1875 -29.128906 31.09375 -33.734375 C 29.007812 -38.335938 26.554688 -42.101562 23.734375 -45.03125 C 20.921875 -47.957031 17.914062 -49.765625 14.71875 -50.453125 L 14.71875 -12.328125 C 14.71875 -10.953125 14.796875 -9.425781 14.953125 -7.75 C 15.109375 -6.082031 15.523438 -4.5625 16.203125 -3.1875 C 16.890625 -1.820312 18.03125 -0.875 19.625 -0.34375 L 19.625 0 L 1.59375 0 Z M 1.59375 -0.34375 "/></g></g></g><g fill="#002257" fill-opacity="1"><g transform="translate(274.65226, 374.77516)"><g><path d="M 12.328125 -0.34375 C 14.148438 -0.945312 15.421875 -2.21875 16.140625 -4.15625 C 16.867188 -6.101562 17.234375 -9.207031 17.234375 -13.46875 L 17.234375 -58.21875 L 13.125 -58.21875 C 10.613281 -58.21875 8.347656 -57.394531 6.328125 -55.75 C 4.316406 -54.113281 2.890625 -51.890625 2.046875 -49.078125 L 1.59375 -49.1875 L 3.65625 -65.96875 C 3.957031 -65.664062 4.546875 -65.4375 5.421875 -65.28125 C 6.296875 -65.132812 7.265625 -65.0625 8.328125 -65.0625 L 36.296875 -65.0625 C 37.359375 -65.0625 38.328125 -65.132812 39.203125 -65.28125 C 40.078125 -65.4375 40.664062 -65.664062 40.96875 -65.96875 L 43.03125 -49.1875 L 42.578125 -49.078125 C 41.734375 -51.890625 40.300781 -54.113281 38.28125 -55.75 C 36.269531 -57.394531 34.007812 -58.21875 31.5 -58.21875 L 27.515625 -58.21875 L 27.515625 -13.46875 C 27.515625 -9.207031 27.875 -6.101562 28.59375 -4.15625 C 29.3125 -2.21875 30.585938 -0.945312 32.421875 -0.34375 L 32.421875 0 L 12.328125 0 Z M 12.328125 -0.34375 "/></g></g></g><g fill="#002257" fill-opacity="1"><g transform="translate(319.275192, 374.77516)"><g><path d="M 1.59375 -0.34375 C 3.425781 -0.945312 4.703125 -2.21875 5.421875 -4.15625 C 6.140625 -6.101562 6.5 -9.207031 6.5 -13.46875 L 6.5 -51.59375 C 6.5 -55.851562 6.140625 -58.953125 5.421875 -60.890625 C 4.703125 -62.828125 3.425781 -64.101562 1.59375 -64.71875 L 1.59375 -65.0625 L 37.203125 -65.0625 C 38.046875 -65.0625 38.960938 -65.132812 39.953125 -65.28125 C 40.941406 -65.4375 41.585938 -65.664062 41.890625 -65.96875 L 35.84375 -53.640625 L 35.5 -53.765625 C 35.875 -56.953125 33.664062 -58.546875 28.875 -58.546875 L 16.78125 -58.546875 L 16.78125 -41.4375 L 17 -41.4375 C 17.84375 -42.957031 18.945312 -44.171875 20.3125 -45.078125 C 21.6875 -45.992188 23.207031 -46.453125 24.875 -46.453125 C 26.9375 -46.453125 28.878906 -45.992188 30.703125 -45.078125 C 32.523438 -44.171875 34.390625 -43.71875 36.296875 -43.71875 C 38.203125 -43.71875 39.609375 -44.441406 40.515625 -45.890625 L 40.859375 -45.765625 C 40.328125 -43.640625 39.203125 -41.566406 37.484375 -39.546875 C 35.773438 -37.535156 33.707031 -36.53125 31.28125 -36.53125 C 29.976562 -36.53125 28.71875 -36.796875 27.5 -37.328125 C 26.289062 -37.859375 25.054688 -38.390625 23.796875 -38.921875 C 22.546875 -39.453125 21.234375 -39.71875 19.859375 -39.71875 C 18.640625 -39.71875 17.613281 -39.300781 16.78125 -38.46875 L 16.78125 -6.84375 L 28.3125 -6.84375 C 31.5 -6.84375 34.367188 -7.640625 36.921875 -9.234375 C 39.472656 -10.835938 41.28125 -12.972656 42.34375 -15.640625 L 42.796875 -15.515625 L 39.71875 1.25 C 39.1875 0.414062 38.082031 0 36.40625 0 L 1.59375 0 Z M 1.59375 -0.34375 "/></g></g></g><g fill="#002257" fill-opacity="1"><g transform="translate(363.441629, 374.77516)"><g><path d="M 1.59375 -0.34375 C 3.425781 -0.945312 4.703125 -2.21875 5.421875 -4.15625 C 6.140625 -6.101562 6.5 -9.207031 6.5 -13.46875 L 6.5 -51.59375 C 6.5 -55.851562 6.140625 -58.953125 5.421875 -60.890625 C 4.703125 -62.828125 3.425781 -64.101562 1.59375 -64.71875 L 1.59375 -65.0625 L 29.328125 -65.0625 C 34.890625 -65.0625 39.34375 -63.613281 42.6875 -60.71875 C 46.03125 -57.832031 47.703125 -54.21875 47.703125 -49.875 C 47.703125 -47.0625 47.019531 -44.550781 45.65625 -42.34375 C 44.289062 -40.132812 42.445312 -38.421875 40.125 -37.203125 C 37.800781 -35.992188 35.234375 -35.425781 32.421875 -35.5 C 34.929688 -32.375 37.328125 -28.566406 39.609375 -24.078125 C 41.890625 -19.585938 43.753906 -15.097656 45.203125 -10.609375 C 47.023438 -4.898438 49.15625 -1.476562 51.59375 -0.34375 L 51.59375 0 L 32.1875 0 L 32.078125 -0.34375 C 34.734375 -1.5625 35.492188 -4.566406 34.359375 -9.359375 C 33.441406 -13.242188 32.125 -17.238281 30.40625 -21.34375 C 28.695312 -25.457031 26.703125 -29.28125 24.421875 -32.8125 C 22.140625 -36.351562 19.59375 -39.113281 16.78125 -41.09375 L 16.78125 -13.46875 C 16.78125 -9.207031 17.140625 -6.101562 17.859375 -4.15625 C 18.585938 -2.21875 19.863281 -0.945312 21.6875 -0.34375 L 21.6875 0 L 1.59375 0 Z M 16.78125 -56.5 C 16.78125 -53.601562 17.332031 -51.03125 18.4375 -48.78125 C 19.539062 -46.539062 21.003906 -44.789062 22.828125 -43.53125 C 24.648438 -42.28125 26.550781 -41.65625 28.53125 -41.65625 C 31.125 -41.65625 33.082031 -42.414062 34.40625 -43.9375 C 35.738281 -45.46875 36.40625 -47.21875 36.40625 -49.1875 C 36.40625 -51.925781 35.28125 -54.207031 33.03125 -56.03125 C 30.789062 -57.863281 27.882812 -58.78125 24.3125 -58.78125 L 16.78125 -58.78125 Z M 16.78125 -56.5 "/></g></g></g><g fill="#002257" fill-opacity="1"><g transform="translate(413.884944, 374.77516)"><g><path d="M 1.59375 -0.34375 C 3.425781 -0.945312 4.703125 -2.21875 5.421875 -4.15625 C 6.140625 -6.101562 6.5 -9.207031 6.5 -13.46875 L 6.5 -51.59375 C 6.5 -55.851562 6.140625 -58.953125 5.421875 -60.890625 C 4.703125 -62.828125 3.425781 -64.101562 1.59375 -64.71875 L 1.59375 -65.0625 L 37.890625 -65.0625 C 38.734375 -65.0625 39.648438 -65.132812 40.640625 -65.28125 C 41.628906 -65.4375 42.273438 -65.664062 42.578125 -65.96875 L 36.53125 -53.640625 L 36.1875 -53.765625 C 36.5625 -56.953125 34.351562 -58.546875 29.5625 -58.546875 L 16.78125 -58.546875 L 16.78125 -40.40625 L 17 -40.40625 C 17.84375 -41.925781 18.945312 -43.140625 20.3125 -44.046875 C 21.6875 -44.960938 23.207031 -45.421875 24.875 -45.421875 C 26.9375 -45.421875 28.878906 -44.960938 30.703125 -44.046875 C 32.523438 -43.140625 34.390625 -42.6875 36.296875 -42.6875 C 38.203125 -42.6875 39.609375 -43.410156 40.515625 -44.859375 L 40.859375 -44.75 C 40.328125 -42.613281 39.203125 -40.535156 37.484375 -38.515625 C 35.773438 -36.503906 33.707031 -35.5 31.28125 -35.5 C 29.976562 -35.5 28.71875 -35.765625 27.5 -36.296875 C 26.289062 -36.828125 25.054688 -37.359375 23.796875 -37.890625 C 22.546875 -38.421875 21.234375 -38.6875 19.859375 -38.6875 C 18.640625 -38.6875 17.613281 -38.269531 16.78125 -37.4375 L 16.78125 -13.46875 C 16.78125 -9.207031 17.140625 -6.101562 17.859375 -4.15625 C 18.585938 -2.21875 19.863281 -0.945312 21.6875 -0.34375 L 21.6875 0 L 1.59375 0 Z M 1.59375 -0.34375 "/></g></g></g><g fill="#002257" fill-opacity="1"><g transform="translate(457.138389, 374.77516)"><g><path d="M 1.59375 -0.34375 C 3.425781 -0.945312 4.703125 -2.21875 5.421875 -4.15625 C 6.140625 -6.101562 6.5 -9.207031 6.5 -13.46875 L 6.5 -51.59375 C 6.5 -55.851562 6.140625 -58.953125 5.421875 -60.890625 C 4.703125 -62.828125 3.425781 -64.101562 1.59375 -64.71875 L 1.59375 -65.0625 L 21.6875 -65.0625 L 21.6875 -64.71875 C 19.863281 -64.101562 18.585938 -62.828125 17.859375 -60.890625 C 17.140625 -58.953125 16.78125 -55.851562 16.78125 -51.59375 L 16.78125 -13.46875 C 16.78125 -9.207031 17.140625 -6.101562 17.859375 -4.15625 C 18.585938 -2.21875 19.863281 -0.945312 21.6875 -0.34375 L 21.6875 0 L 1.59375 0 Z M 1.59375 -0.34375 "/></g></g></g><g fill="#002257" fill-opacity="1"><g transform="translate(480.419919, 374.77516)"><g><path d="M 1.59375 -0.34375 C 3.425781 -0.945312 4.703125 -2.21875 5.421875 -4.15625 C 6.140625 -6.101562 6.5 -9.207031 6.5 -13.46875 L 6.5 -51.59375 C 6.5 -55.851562 6.140625 -58.953125 5.421875 -60.890625 C 4.703125 -62.828125 3.425781 -64.101562 1.59375 -64.71875 L 1.59375 -65.0625 L 21.6875 -65.0625 L 21.6875 -64.71875 C 19.863281 -64.101562 18.585938 -62.828125 17.859375 -60.890625 C 17.140625 -58.953125 16.78125 -55.851562 16.78125 -51.59375 L 16.78125 -6.84375 L 24.875 -6.84375 C 28.070312 -6.84375 30.945312 -7.640625 33.5 -9.234375 C 36.050781 -10.835938 37.859375 -12.972656 38.921875 -15.640625 L 39.375 -15.515625 L 36.296875 1.25 C 35.765625 0.414062 34.660156 0 32.984375 0 L 1.59375 0 Z M 1.59375 -0.34375 "/></g></g></g><g fill="#002257" fill-opacity="1"><g transform="translate(520.249605, 374.77516)"><g><path d="M 1.59375 -0.34375 C 3.425781 -0.945312 4.703125 -2.21875 5.421875 -4.15625 C 6.140625 -6.101562 6.5 -9.207031 6.5 -13.46875 L 6.5 -51.59375 C 6.5 -55.851562 6.140625 -58.953125 5.421875 -60.890625 C 4.703125 -62.828125 3.425781 -64.101562 1.59375 -64.71875 L 1.59375 -65.0625 L 21.6875 -65.0625 L 21.6875 -64.71875 C 19.863281 -64.101562 18.585938 -62.828125 17.859375 -60.890625 C 17.140625 -58.953125 16.78125 -55.851562 16.78125 -51.59375 L 16.78125 -13.46875 C 16.78125 -9.207031 17.140625 -6.101562 17.859375 -4.15625 C 18.585938 -2.21875 19.863281 -0.945312 21.6875 -0.34375 L 21.6875 0 L 1.59375 0 Z M 1.59375 -0.34375 "/></g></g></g><g fill="#002257" fill-opacity="1"><g transform="translate(543.531134, 374.77516)"><g><path d="M 1.59375 -0.34375 C 3.425781 -0.945312 4.703125 -2.21875 5.421875 -4.15625 C 6.140625 -6.101562 6.5 -9.207031 6.5 -13.46875 L 6.5 -51.59375 C 6.5 -55.851562 6.140625 -58.953125 5.421875 -60.890625 C 4.703125 -62.828125 3.425781 -64.101562 1.59375 -64.71875 L 1.59375 -65.0625 L 37.203125 -65.0625 C 38.046875 -65.0625 38.960938 -65.132812 39.953125 -65.28125 C 40.941406 -65.4375 41.585938 -65.664062 41.890625 -65.96875 L 35.84375 -53.640625 L 35.5 -53.765625 C 35.875 -56.953125 33.664062 -58.546875 28.875 -58.546875 L 16.78125 -58.546875 L 16.78125 -41.4375 L 17 -41.4375 C 17.84375 -42.957031 18.945312 -44.171875 20.3125 -45.078125 C 21.6875 -45.992188 23.207031 -46.453125 24.875 -46.453125 C 26.9375 -46.453125 28.878906 -45.992188 30.703125 -45.078125 C 32.523438 -44.171875 34.390625 -43.71875 36.296875 -43.71875 C 38.203125 -43.71875 39.609375 -44.441406 40.515625 -45.890625 L 40.859375 -45.765625 C 40.328125 -43.640625 39.203125 -41.566406 37.484375 -39.546875 C 35.773438 -37.535156 33.707031 -36.53125 31.28125 -36.53125 C 29.976562 -36.53125 28.71875 -36.796875 27.5 -37.328125 C 26.289062 -37.859375 25.054688 -38.390625 23.796875 -38.921875 C 22.546875 -39.453125 21.234375 -39.71875 19.859375 -39.71875 C 18.640625 -39.71875 17.613281 -39.300781 16.78125 -38.46875 L 16.78125 -6.84375 L 28.3125 -6.84375 C 31.5 -6.84375 34.367188 -7.640625 36.921875 -9.234375 C 39.472656 -10.835938 41.28125 -12.972656 42.34375 -15.640625 L 42.796875 -15.515625 L 39.71875 1.25 C 39.1875 0.414062 38.082031 0 36.40625 0 L 1.59375 0 Z M 11.984375 -82.0625 L 11.984375 -83.203125 L 21.34375 -83.203125 L 26.484375 -68.484375 L 22.71875 -68.484375 Z M 11.984375 -82.0625 "/></g></g></g><g fill="#002257" fill-opacity="1"><g transform="translate(587.697571, 374.77516)"><g><path d="M 1.59375 -0.34375 C 3.425781 -0.945312 4.703125 -2.21875 5.421875 -4.15625 C 6.140625 -6.101562 6.5 -9.207031 6.5 -13.46875 L 6.5 -51.59375 C 6.5 -55.851562 6.140625 -58.953125 5.421875 -60.890625 C 4.703125 -62.828125 3.425781 -64.101562 1.59375 -64.71875 L 1.59375 -65.0625 L 29.328125 -65.0625 C 34.890625 -65.0625 39.34375 -63.613281 42.6875 -60.71875 C 46.03125 -57.832031 47.703125 -54.21875 47.703125 -49.875 C 47.703125 -47.0625 47.019531 -44.550781 45.65625 -42.34375 C 44.289062 -40.132812 42.445312 -38.421875 40.125 -37.203125 C 37.800781 -35.992188 35.234375 -35.425781 32.421875 -35.5 C 34.929688 -32.375 37.328125 -28.566406 39.609375 -24.078125 C 41.890625 -19.585938 43.753906 -15.097656 45.203125 -10.609375 C 47.023438 -4.898438 49.15625 -1.476562 51.59375 -0.34375 L 51.59375 0 L 32.1875 0 L 32.078125 -0.34375 C 34.734375 -1.5625 35.492188 -4.566406 34.359375 -9.359375 C 33.441406 -13.242188 32.125 -17.238281 30.40625 -21.34375 C 28.695312 -25.457031 26.703125 -29.28125 24.421875 -32.8125 C 22.140625 -36.351562 19.59375 -39.113281 16.78125 -41.09375 L 16.78125 -13.46875 C 16.78125 -9.207031 17.140625 -6.101562 17.859375 -4.15625 C 18.585938 -2.21875 19.863281 -0.945312 21.6875 -0.34375 L 21.6875 0 L 1.59375 0 Z M 16.78125 -56.5 C 16.78125 -53.601562 17.332031 -51.03125 18.4375 -48.78125 C 19.539062 -46.539062 21.003906 -44.789062 22.828125 -43.53125 C 24.648438 -42.28125 26.550781 -41.65625 28.53125 -41.65625 C 31.125 -41.65625 33.082031 -42.414062 34.40625 -43.9375 C 35.738281 -45.46875 36.40625 -47.21875 36.40625 -49.1875 C 36.40625 -51.925781 35.28125 -54.207031 33.03125 -56.03125 C 30.789062 -57.863281 27.882812 -58.78125 24.3125 -58.78125 L 16.78125 -58.78125 Z M 16.78125 -56.5 "/></g></g></g><g fill="#002257" fill-opacity="1"><g transform="translate(638.140886, 374.77516)"><g><path d="M 1.59375 -0.34375 C 3.425781 -0.945312 4.703125 -2.21875 5.421875 -4.15625 C 6.140625 -6.101562 6.5 -9.207031 6.5 -13.46875 L 6.5 -51.59375 C 6.5 -55.851562 6.140625 -58.953125 5.421875 -60.890625 C 4.703125 -62.828125 3.425781 -64.101562 1.59375 -64.71875 L 1.59375 -65.0625 L 37.203125 -65.0625 C 38.046875 -65.0625 38.960938 -65.132812 39.953125 -65.28125 C 40.941406 -65.4375 41.585938 -65.664062 41.890625 -65.96875 L 35.84375 -53.640625 L 35.5 -53.765625 C 35.875 -56.953125 33.664062 -58.546875 28.875 -58.546875 L 16.78125 -58.546875 L 16.78125 -41.4375 L 17 -41.4375 C 17.84375 -42.957031 18.945312 -44.171875 20.3125 -45.078125 C 21.6875 -45.992188 23.207031 -46.453125 24.875 -46.453125 C 26.9375 -46.453125 28.878906 -45.992188 30.703125 -45.078125 C 32.523438 -44.171875 34.390625 -43.71875 36.296875 -43.71875 C 38.203125 -43.71875 39.609375 -44.441406 40.515625 -45.890625 L 40.859375 -45.765625 C 40.328125 -43.640625 39.203125 -41.566406 37.484375 -39.546875 C 35.773438 -37.535156 33.707031 -36.53125 31.28125 -36.53125 C 29.976562 -36.53125 28.71875 -36.796875 27.5 -37.328125 C 26.289062 -37.859375 25.054688 -38.390625 23.796875 -38.921875 C 22.546875 -39.453125 21.234375 -39.71875 19.859375 -39.71875 C 18.640625 -39.71875 17.613281 -39.300781 16.78125 -38.46875 L 16.78125 -6.84375 L 28.3125 -6.84375 C 31.5 -6.84375 34.367188 -7.640625 36.921875 -9.234375 C 39.472656 -10.835938 41.28125 -12.972656 42.34375 -15.640625 L 42.796875 -15.515625 L 39.71875 1.25 C 39.1875 0.414062 38.082031 0 36.40625 0 L 1.59375 0 Z M 1.59375 -0.34375 "/></g></g></g><g fill="#002257" fill-opacity="1"><g transform="translate(682.307323, 374.77516)"><g><path d="M 21.34375 1.03125 C 17.6875 1.03125 14.128906 0.304688 10.671875 -1.140625 C 7.210938 -2.585938 4.335938 -4.753906 2.046875 -7.640625 L 6.28125 -23.0625 L 6.625 -23.0625 C 7.082031 -19.332031 8.144531 -16.25 9.8125 -13.8125 C 11.488281 -11.375 13.46875 -9.566406 15.75 -8.390625 C 18.03125 -7.210938 20.273438 -6.625 22.484375 -6.625 C 25.066406 -6.625 27.289062 -7.398438 29.15625 -8.953125 C 31.019531 -10.515625 31.953125 -12.78125 31.953125 -15.75 C 31.953125 -18.257812 31.265625 -20.390625 29.890625 -22.140625 C 28.523438 -23.890625 26.757812 -25.46875 24.59375 -26.875 C 22.425781 -28.28125 20.144531 -29.664062 17.75 -31.03125 C 15.351562 -32.40625 13.066406 -33.929688 10.890625 -35.609375 C 8.722656 -37.285156 6.953125 -39.265625 5.578125 -41.546875 C 4.210938 -43.828125 3.53125 -46.566406 3.53125 -49.765625 C 3.53125 -54.628906 5.164062 -58.566406 8.4375 -61.578125 C 11.71875 -64.585938 16.019531 -66.09375 21.34375 -66.09375 C 24.6875 -66.09375 27.5 -65.65625 29.78125 -64.78125 C 32.070312 -63.90625 33.828125 -63.46875 35.046875 -63.46875 C 35.648438 -63.46875 36.101562 -63.65625 36.40625 -64.03125 L 36.984375 -48.28125 L 36.53125 -48.171875 C 35.3125 -51.441406 33.367188 -54.125 30.703125 -56.21875 C 28.035156 -58.3125 25.179688 -59.359375 22.140625 -59.359375 C 19.859375 -59.359375 17.878906 -58.707031 16.203125 -57.40625 C 14.535156 -56.113281 13.703125 -54.140625 13.703125 -51.484375 C 13.703125 -49.191406 14.382812 -47.226562 15.75 -45.59375 C 17.125 -43.957031 18.875 -42.472656 21 -41.140625 C 23.132812 -39.816406 25.414062 -38.46875 27.84375 -37.09375 C 30.28125 -35.726562 32.5625 -34.1875 34.6875 -32.46875 C 36.820312 -30.757812 38.570312 -28.742188 39.9375 -26.421875 C 41.3125 -24.097656 42 -21.265625 42 -17.921875 C 42 -13.660156 41.007812 -10.117188 39.03125 -7.296875 C 37.050781 -4.484375 34.484375 -2.390625 31.328125 -1.015625 C 28.171875 0.347656 24.84375 1.03125 21.34375 1.03125 Z M 21.34375 1.03125 "/></g></g></g><g clip-path="url(#0586789d21)"><path fill="#2fa8bd" d="M 514.519531 403.125 C 510.574219 403.125 506.597656 403.304688 502.679688 402.820312 C 501.289062 402.644531 499.847656 402.4375 498.609375 401.777344 C 498.554688 401.734375 498.484375 401.695312 498.429688 401.652344 C 498.375 401.613281 498.304688 401.570312 498.25 401.542969 L 498.03125 401.417969 L 497.921875 401.351562 L 497.8125 401.296875 L 497.589844 401.171875 L 497.152344 400.953125 C 497.082031 400.910156 497 400.882812 496.917969 400.839844 L 496.683594 400.746094 C 496.378906 400.621094 496.0625 400.496094 495.746094 400.402344 C 495.597656 400.347656 495.429688 400.304688 495.265625 400.261719 L 495.019531 400.207031 L 494.769531 400.152344 C 493.917969 399.976562 493.039062 399.890625 492.15625 399.917969 C 491.277344 399.949219 490.398438 400.058594 489.542969 400.261719 C 487.824219 400.675781 486.175781 401.433594 484.691406 402.4375 C 483.945312 402.945312 483.246094 403.507812 482.597656 404.128906 L 482.558594 404.167969 L 482.597656 404.210938 C 483.246094 404.828125 483.949219 405.394531 484.691406 405.902344 C 486.175781 406.90625 487.824219 407.664062 489.542969 408.074219 C 490.410156 408.28125 491.277344 408.40625 492.15625 408.417969 C 493.039062 408.445312 493.90625 408.363281 494.769531 408.1875 L 494.894531 408.15625 L 495.019531 408.128906 L 495.265625 408.074219 C 495.429688 408.035156 495.582031 407.992188 495.746094 407.9375 C 496.0625 407.839844 496.378906 407.730469 496.683594 407.609375 L 496.917969 407.511719 C 497 407.484375 497.066406 407.441406 497.152344 407.402344 L 497.371094 407.292969 L 497.589844 407.179688 L 497.8125 407.058594 L 497.921875 407.003906 L 498.03125 406.933594 L 498.25 406.808594 C 498.25 406.808594 498.359375 406.742188 498.429688 406.699219 C 498.5 406.660156 498.554688 406.605469 498.621094 406.5625 C 499.859375 405.917969 501.304688 405.710938 502.679688 405.53125 C 506.597656 405.050781 510.585938 405.230469 514.519531 405.230469 C 566.164062 405.1875 752.769531 405.230469 752.769531 405.230469 L 752.769531 403.164062 C 752.769531 403.164062 566.164062 403.191406 514.519531 403.164062 Z M 514.519531 403.125 " fill-opacity="1" fill-rule="nonzero"/></g><g clip-path="url(#44a4d14995)"><path fill="#2fa8bd" d="M 460.167969 408.269531 C 460.113281 407.855469 460.03125 407.457031 459.933594 407.058594 C 459.835938 406.660156 459.699219 406.273438 459.546875 405.902344 C 459.535156 405.859375 459.519531 405.832031 459.507812 405.792969 C 459.328125 405.972656 459.136719 406.148438 458.945312 406.316406 C 458.542969 406.644531 458.105469 406.949219 457.636719 407.195312 C 457.167969 407.441406 456.675781 407.648438 456.164062 407.785156 C 455.65625 407.925781 455.148438 408.019531 454.625 408.074219 C 454.117188 408.117188 453.59375 408.117188 453.085938 408.074219 C 452.574219 408.035156 452.082031 407.953125 451.585938 407.839844 C 451.089844 407.730469 450.609375 407.582031 450.140625 407.414062 C 449.671875 407.238281 449.21875 407.042969 448.78125 406.808594 C 448.558594 406.699219 448.339844 406.578125 448.132812 406.4375 L 447.96875 406.34375 L 447.816406 406.246094 C 447.722656 406.175781 447.609375 406.109375 447.515625 406.039062 C 447.183594 405.820312 446.867188 405.574219 446.550781 405.324219 C 446.359375 405.53125 446.179688 405.75 445.988281 405.972656 C 445.628906 406.410156 445.300781 406.867188 444.996094 407.347656 C 446.277344 408.53125 447.460938 409.765625 448.613281 410.992188 C 449.234375 411.652344 449.851562 412.296875 450.484375 412.929688 L 450.9375 413.382812 C 451.023438 413.453125 451.089844 413.535156 451.171875 413.605469 L 451.40625 413.8125 C 451.722656 414.085938 452.054688 414.347656 452.382812 414.59375 C 452.714844 414.84375 453.058594 415.0625 453.414062 415.253906 C 453.773438 415.449219 454.128906 415.613281 454.488281 415.734375 C 454.84375 415.859375 455.203125 415.941406 455.558594 415.984375 L 455.820312 415.984375 C 455.820312 415.984375 455.863281 416.011719 455.890625 416.011719 L 456.207031 416.011719 C 456.207031 416.011719 456.289062 415.996094 456.332031 415.984375 L 456.453125 415.984375 C 456.453125 415.984375 456.496094 415.957031 456.507812 415.957031 L 456.5625 415.957031 C 456.894531 415.875 457.210938 415.75 457.5 415.585938 C 457.511719 415.585938 457.539062 415.570312 457.554688 415.558594 L 457.609375 415.515625 L 457.71875 415.449219 C 457.71875 415.449219 457.761719 415.417969 457.773438 415.40625 L 457.828125 415.363281 L 457.941406 415.28125 C 457.941406 415.28125 457.980469 415.253906 457.996094 415.242188 L 458.050781 415.199219 L 458.160156 415.117188 L 458.257812 415.019531 L 458.3125 414.980469 L 458.367188 414.925781 L 458.460938 414.828125 L 458.558594 414.71875 L 458.601562 414.664062 L 458.640625 414.609375 L 458.738281 414.5 L 458.820312 414.386719 L 458.859375 414.332031 L 458.902344 414.277344 L 458.984375 414.167969 L 459.066406 414.042969 C 459.273438 413.726562 459.453125 413.382812 459.605469 413.027344 C 459.753906 412.667969 459.878906 412.285156 459.976562 411.898438 C 460.070312 411.515625 460.140625 411.113281 460.179688 410.703125 C 460.222656 410.304688 460.238281 409.890625 460.238281 409.476562 C 460.238281 409.273438 460.222656 409.066406 460.210938 408.859375 C 460.195312 408.652344 460.167969 408.445312 460.140625 408.253906 Z M 460.167969 408.269531 " fill-opacity="1" fill-rule="nonzero"/></g><path fill="#2fa8bd" d="M 456.605469 402.382812 C 456.277344 402.203125 455.917969 402.066406 455.558594 401.957031 C 455.203125 401.84375 454.816406 401.777344 454.433594 401.75 C 454.046875 401.722656 453.648438 401.722656 453.25 401.75 C 452.851562 401.777344 452.453125 401.84375 452.066406 401.929688 C 451.28125 402.105469 450.511719 402.394531 449.785156 402.765625 C 449.605469 402.863281 449.425781 402.960938 449.246094 403.070312 L 449.125 403.152344 L 449 403.234375 C 448.917969 403.289062 448.820312 403.34375 448.738281 403.398438 C 448.546875 403.535156 448.351562 403.675781 448.160156 403.8125 C 448.351562 403.964844 448.546875 404.101562 448.738281 404.222656 C 448.820312 404.28125 448.917969 404.335938 449 404.390625 L 449.125 404.472656 L 449.246094 404.554688 C 449.425781 404.664062 449.605469 404.761719 449.785156 404.855469 C 450.511719 405.230469 451.28125 405.53125 452.066406 405.695312 C 452.464844 405.777344 452.851562 405.847656 453.25 405.875 C 453.648438 405.902344 454.035156 405.902344 454.433594 405.875 C 454.816406 405.832031 455.203125 405.765625 455.558594 405.667969 C 455.929688 405.574219 456.277344 405.421875 456.605469 405.242188 C 456.9375 405.0625 457.25 404.855469 457.539062 404.609375 C 457.828125 404.363281 458.105469 404.085938 458.351562 403.796875 C 458.105469 403.496094 457.84375 403.21875 457.539062 402.988281 C 457.25 402.738281 456.9375 402.53125 456.605469 402.355469 Z M 456.605469 402.382812 " fill-opacity="1" fill-rule="nonzero"/><g clip-path="url(#e7e44f6e4a)"><path fill="#2fa8bd" d="M 446.550781 402.339844 C 446.867188 402.09375 447.183594 401.84375 447.515625 401.625 C 447.609375 401.554688 447.722656 401.488281 447.816406 401.417969 L 447.96875 401.324219 L 448.132812 401.226562 C 448.339844 401.101562 448.558594 400.980469 448.78125 400.855469 C 449.21875 400.621094 449.671875 400.429688 450.140625 400.25 C 450.609375 400.070312 451.089844 399.933594 451.585938 399.824219 C 452.082031 399.714844 452.574219 399.632812 453.085938 399.589844 C 453.59375 399.546875 454.101562 399.546875 454.625 399.589844 C 455.148438 399.632812 455.65625 399.726562 456.164062 399.878906 C 456.675781 400.015625 457.167969 400.222656 457.636719 400.46875 C 458.105469 400.71875 458.542969 401.019531 458.945312 401.351562 C 459.136719 401.515625 459.328125 401.695312 459.507812 401.871094 C 459.519531 401.832031 459.535156 401.804688 459.546875 401.761719 C 459.699219 401.390625 459.824219 400.992188 459.933594 400.609375 C 460.03125 400.207031 460.113281 399.808594 460.167969 399.398438 L 460.195312 399.246094 L 460.195312 399.09375 L 460.222656 399.011719 L 460.222656 398.941406 C 460.222656 398.941406 460.238281 398.847656 460.238281 398.792969 C 460.25 398.597656 460.25 398.394531 460.25 398.199219 C 460.25 397.800781 460.207031 397.417969 460.140625 397.019531 C 460.003906 396.234375 459.753906 395.476562 459.382812 394.789062 C 459.011719 394.101562 458.53125 393.511719 457.953125 393.070312 C 457.664062 392.851562 457.363281 392.671875 457.03125 392.546875 C 456.703125 392.425781 456.371094 392.339844 456.015625 392.3125 C 455.835938 392.300781 455.65625 392.300781 455.476562 392.3125 C 455.300781 392.3125 455.121094 392.339844 454.941406 392.382812 C 454.761719 392.410156 454.582031 392.453125 454.390625 392.507812 C 454.351562 392.507812 454.292969 392.535156 454.253906 392.546875 C 454.210938 392.5625 454.171875 392.574219 454.117188 392.589844 C 454.019531 392.628906 453.921875 392.65625 453.828125 392.699219 C 453.070312 392.988281 452.355469 393.386719 451.652344 393.867188 C 450.953125 394.335938 450.292969 394.886719 449.632812 395.464844 C 448.972656 396.042969 448.324219 396.660156 447.664062 397.277344 C 447.335938 397.59375 447.003906 397.910156 446.660156 398.214844 C 446.578125 398.296875 446.496094 398.367188 446.402344 398.449219 C 446.316406 398.53125 446.222656 398.597656 446.140625 398.683594 L 445.628906 399.136719 C 445.339844 399.398438 445.039062 399.644531 444.75 399.90625 C 445.121094 400.523438 445.535156 401.128906 445.988281 401.695312 C 446.167969 401.914062 446.359375 402.132812 446.550781 402.339844 Z M 446.550781 402.339844 " fill-opacity="1" fill-rule="nonzero"/></g><path fill="#2fa8bd" d="M 443.085938 401.335938 C 442.152344 402.121094 441.1875 402.902344 440.210938 403.648438 C 440.238281 403.660156 440.265625 403.675781 440.28125 403.6875 C 441.050781 404.195312 441.808594 404.734375 442.550781 405.285156 C 442.726562 405.421875 442.921875 405.574219 443.113281 405.710938 C 443.195312 405.777344 443.277344 405.832031 443.359375 405.902344 C 443.664062 405.449219 443.980469 405.023438 444.324219 404.597656 C 444.542969 404.335938 444.765625 404.074219 444.984375 403.824219 C 444.75 403.578125 444.53125 403.316406 444.324219 403.054688 C 443.882812 402.503906 443.472656 401.929688 443.101562 401.335938 Z M 443.085938 401.335938 " fill-opacity="1" fill-rule="nonzero"/><path fill="#2fa8bd" d="M 475.035156 401.789062 C 474.511719 401.253906 474.003906 400.609375 473.535156 399.835938 C 473.300781 399.453125 473.066406 399.039062 472.847656 398.597656 C 472.640625 398.160156 472.4375 397.691406 472.257812 397.195312 C 472.214844 397.085938 472.175781 396.960938 472.132812 396.851562 L 472.105469 396.851562 L 471.941406 396.824219 C 471.832031 396.8125 471.71875 396.785156 471.597656 396.769531 C 471.144531 396.703125 470.675781 396.648438 470.207031 396.617188 C 470.082031 396.617188 469.972656 396.605469 469.851562 396.589844 C 469.726562 396.589844 469.617188 396.589844 469.492188 396.589844 L 468.777344 396.589844 C 468.296875 396.589844 467.828125 396.617188 467.347656 396.675781 C 467.125 396.703125 466.90625 396.730469 466.6875 396.757812 L 466.492188 397.472656 C 466.191406 398.613281 465.777344 399.671875 465.269531 400.648438 C 464.816406 401.5 464.308594 402.230469 463.757812 402.847656 C 463.316406 403.34375 462.835938 403.796875 462.328125 404.183594 L 462.355469 404.183594 C 462.355469 404.183594 462.382812 404.222656 462.394531 404.238281 C 462.53125 404.335938 462.65625 404.445312 462.753906 404.527344 C 462.78125 404.554688 462.820312 404.582031 462.847656 404.609375 L 462.875 404.609375 L 462.90625 404.652344 C 463.152344 404.871094 463.46875 405.171875 463.769531 405.53125 C 464.320312 406.148438 464.828125 406.878906 465.285156 407.730469 C 465.792969 408.707031 466.207031 409.765625 466.507812 410.910156 L 466.699219 411.625 C 466.921875 411.652344 467.140625 411.679688 467.359375 411.707031 C 467.828125 411.761719 468.308594 411.773438 468.789062 411.789062 C 469.273438 411.789062 469.738281 411.789062 470.207031 411.746094 C 470.675781 411.71875 471.144531 411.664062 471.597656 411.597656 C 471.707031 411.582031 471.832031 411.554688 471.941406 411.542969 L 472.105469 411.515625 L 472.132812 411.515625 C 472.175781 411.390625 472.214844 411.28125 472.257812 411.171875 C 472.4375 410.675781 472.640625 410.207031 472.847656 409.765625 C 473.066406 409.328125 473.289062 408.914062 473.535156 408.53125 C 474.015625 407.757812 474.527344 407.113281 475.035156 406.578125 C 476.066406 405.503906 477.125 404.898438 478.019531 404.570312 C 478.761719 404.292969 479.410156 404.210938 479.875 404.195312 C 479.394531 404.167969 478.761719 404.085938 478.019531 403.8125 C 477.125 403.496094 476.066406 402.875 475.035156 401.804688 Z M 475.035156 401.789062 " fill-opacity="1" fill-rule="nonzero"/><g clip-path="url(#e03b4d7308)"><path fill="#2fa8bd" d="M 333.167969 402.4375 C 331.683594 401.433594 330.035156 400.675781 328.3125 400.261719 C 327.449219 400.058594 326.566406 399.933594 325.699219 399.917969 C 324.820312 399.890625 323.953125 399.976562 323.101562 400.152344 L 322.976562 400.179688 L 322.855469 400.207031 L 322.605469 400.261719 C 322.441406 400.304688 322.289062 400.347656 322.125 400.402344 C 321.808594 400.496094 321.492188 400.609375 321.191406 400.746094 L 320.957031 400.839844 C 320.875 400.867188 320.804688 400.910156 320.734375 400.953125 L 320.296875 401.171875 L 320.074219 401.296875 L 319.964844 401.351562 L 319.855469 401.417969 L 319.636719 401.542969 C 319.636719 401.542969 319.527344 401.613281 319.457031 401.652344 C 319.402344 401.695312 319.347656 401.734375 319.277344 401.777344 C 318.027344 402.4375 316.582031 402.644531 315.207031 402.820312 C 311.289062 403.304688 307.300781 403.125 303.367188 403.125 C 251.722656 403.164062 65.117188 403.125 65.117188 403.125 L 65.117188 405.1875 C 65.117188 405.1875 251.722656 405.160156 303.367188 405.1875 C 307.3125 405.1875 311.289062 405.007812 315.207031 405.488281 C 316.582031 405.65625 318.011719 405.875 319.265625 406.519531 C 319.332031 406.578125 319.386719 406.617188 319.457031 406.660156 C 319.511719 406.699219 319.582031 406.742188 319.636719 406.769531 L 319.855469 406.894531 L 319.964844 406.960938 L 320.074219 407.015625 L 320.296875 407.140625 L 320.734375 407.359375 C 320.820312 407.402344 320.886719 407.429688 320.957031 407.46875 L 321.191406 407.566406 C 321.492188 407.691406 321.808594 407.8125 322.125 407.898438 C 322.277344 407.953125 322.441406 407.992188 322.605469 408.035156 L 322.855469 408.089844 L 322.976562 408.117188 L 323.101562 408.144531 C 323.953125 408.324219 324.835938 408.40625 325.714844 408.378906 C 326.59375 408.351562 327.476562 408.242188 328.328125 408.035156 C 330.046875 407.621094 331.699219 406.867188 333.183594 405.859375 C 333.925781 405.351562 334.625 404.789062 335.273438 404.167969 L 335.316406 404.128906 L 335.273438 404.085938 C 334.625 403.46875 333.925781 402.902344 333.183594 402.394531 Z M 333.167969 402.4375 " fill-opacity="1" fill-rule="nonzero"/></g><g clip-path="url(#dbb159062d)"><path fill="#2fa8bd" d="M 371.320312 405.324219 C 371.003906 405.574219 370.6875 405.820312 370.359375 406.039062 C 370.261719 406.109375 370.152344 406.175781 370.054688 406.246094 L 369.90625 406.34375 L 369.738281 406.4375 C 369.53125 406.5625 369.3125 406.6875 369.09375 406.808594 C 368.652344 407.042969 368.199219 407.238281 367.730469 407.414062 C 367.265625 407.59375 366.78125 407.730469 366.289062 407.839844 C 365.792969 407.953125 365.296875 408.035156 364.789062 408.074219 C 364.277344 408.117188 363.769531 408.117188 363.246094 408.074219 C 362.726562 408.035156 362.214844 407.9375 361.707031 407.785156 C 361.199219 407.648438 360.703125 407.441406 360.234375 407.195312 C 359.769531 406.949219 359.328125 406.644531 358.929688 406.316406 C 358.738281 406.148438 358.542969 405.972656 358.367188 405.792969 C 358.351562 405.832031 358.335938 405.859375 358.324219 405.902344 C 358.171875 406.273438 358.050781 406.671875 357.9375 407.058594 C 357.84375 407.457031 357.761719 407.855469 357.707031 408.269531 C 357.675781 408.472656 357.648438 408.679688 357.636719 408.875 C 357.621094 409.078125 357.609375 409.285156 357.609375 409.492188 C 357.609375 409.90625 357.609375 410.316406 357.664062 410.714844 C 357.703125 411.113281 357.773438 411.515625 357.871094 411.914062 C 357.964844 412.296875 358.089844 412.683594 358.242188 413.039062 C 358.394531 413.398438 358.570312 413.742188 358.777344 414.058594 L 358.859375 414.183594 L 358.941406 414.292969 L 359.027344 414.402344 L 359.109375 414.511719 L 359.203125 414.621094 L 359.246094 414.675781 L 359.285156 414.730469 L 359.382812 414.84375 L 359.480469 414.9375 L 359.535156 414.992188 L 359.589844 415.035156 L 359.6875 415.132812 L 359.796875 415.214844 L 359.851562 415.253906 C 359.851562 415.253906 359.890625 415.28125 359.90625 415.296875 L 360.015625 415.378906 L 360.070312 415.417969 C 360.070312 415.417969 360.113281 415.449219 360.125 415.460938 L 360.234375 415.53125 L 360.289062 415.570312 C 360.289062 415.570312 360.332031 415.597656 360.34375 415.597656 C 360.648438 415.765625 360.949219 415.886719 361.28125 415.957031 L 361.335938 415.957031 C 361.335938 415.957031 361.378906 415.96875 361.390625 415.984375 L 361.515625 415.984375 C 361.515625 415.984375 361.597656 416.011719 361.636719 416.011719 L 361.953125 416.011719 C 361.953125 416.011719 361.996094 416.011719 362.023438 416.011719 L 362.285156 416.011719 C 362.640625 415.957031 363 415.875 363.359375 415.734375 C 363.714844 415.613281 364.074219 415.449219 364.429688 415.253906 C 364.789062 415.0625 365.132812 414.84375 365.460938 414.59375 C 365.792969 414.347656 366.121094 414.085938 366.4375 413.8125 L 366.671875 413.605469 C 366.753906 413.535156 366.824219 413.46875 366.90625 413.382812 L 367.359375 412.929688 C 367.992188 412.296875 368.613281 411.652344 369.230469 410.992188 C 370.398438 409.765625 371.570312 408.53125 372.847656 407.347656 C 372.542969 406.867188 372.214844 406.410156 371.855469 405.972656 C 371.679688 405.75 371.484375 405.53125 371.292969 405.324219 Z M 371.320312 405.324219 " fill-opacity="1" fill-rule="nonzero"/></g><path fill="#2fa8bd" d="M 368.75 403.152344 L 368.625 403.070312 C 368.445312 402.960938 368.269531 402.863281 368.089844 402.765625 C 367.359375 402.394531 366.589844 402.09375 365.804688 401.929688 C 365.40625 401.84375 365.023438 401.777344 364.621094 401.75 C 364.222656 401.722656 363.839844 401.722656 363.441406 401.75 C 363.054688 401.789062 362.671875 401.859375 362.3125 401.957031 C 361.953125 402.050781 361.597656 402.203125 361.265625 402.382812 C 360.9375 402.558594 360.621094 402.765625 360.332031 403.015625 C 360.042969 403.261719 359.769531 403.535156 359.519531 403.824219 C 359.769531 404.128906 360.03125 404.402344 360.332031 404.636719 C 360.621094 404.882812 360.9375 405.089844 361.265625 405.269531 C 361.597656 405.449219 361.953125 405.585938 362.3125 405.695312 C 362.683594 405.804688 363.054688 405.875 363.441406 405.902344 C 363.824219 405.929688 364.222656 405.929688 364.621094 405.902344 C 365.023438 405.875 365.421875 405.804688 365.804688 405.722656 C 366.589844 405.542969 367.359375 405.257812 368.089844 404.882812 C 368.269531 404.789062 368.445312 404.691406 368.625 404.582031 L 368.75 404.5 L 368.871094 404.417969 C 368.957031 404.363281 369.050781 404.308594 369.132812 404.253906 C 369.328125 404.113281 369.519531 403.976562 369.710938 403.839844 C 369.519531 403.6875 369.328125 403.550781 369.132812 403.425781 C 369.050781 403.371094 368.957031 403.316406 368.871094 403.261719 L 368.75 403.179688 Z M 368.75 403.152344 " fill-opacity="1" fill-rule="nonzero"/><g clip-path="url(#0171ae19f4)"><path fill="#2fa8bd" d="M 357.648438 398.941406 L 357.648438 399.09375 L 357.675781 399.246094 L 357.707031 399.398438 C 357.761719 399.808594 357.84375 400.207031 357.9375 400.609375 C 358.035156 401.007812 358.171875 401.390625 358.324219 401.761719 C 358.335938 401.804688 358.351562 401.832031 358.367188 401.871094 C 358.542969 401.695312 358.738281 401.515625 358.929688 401.351562 C 359.328125 401.019531 359.769531 400.71875 360.234375 400.46875 C 360.703125 400.222656 361.199219 400.015625 361.707031 399.878906 C 362.214844 399.742188 362.726562 399.644531 363.246094 399.589844 C 363.757812 399.546875 364.277344 399.546875 364.789062 399.589844 C 365.296875 399.632812 365.792969 399.714844 366.289062 399.824219 C 366.78125 399.933594 367.265625 400.085938 367.730469 400.25 C 368.199219 400.429688 368.652344 400.621094 369.09375 400.855469 C 369.3125 400.964844 369.53125 401.089844 369.738281 401.226562 L 369.90625 401.324219 L 370.054688 401.417969 C 370.152344 401.488281 370.261719 401.554688 370.359375 401.625 C 370.6875 401.84375 371.003906 402.09375 371.320312 402.339844 C 371.511719 402.132812 371.691406 401.914062 371.886719 401.695312 C 372.339844 401.128906 372.75 400.539062 373.136719 399.90625 C 372.832031 399.644531 372.546875 399.398438 372.257812 399.136719 L 371.746094 398.683594 C 371.664062 398.597656 371.570312 398.53125 371.484375 398.449219 C 371.402344 398.367188 371.308594 398.296875 371.226562 398.214844 C 370.878906 397.898438 370.550781 397.582031 370.21875 397.277344 C 369.558594 396.660156 368.914062 396.042969 368.253906 395.464844 C 367.59375 394.886719 366.917969 394.335938 366.230469 393.867188 C 365.53125 393.402344 364.816406 392.988281 364.058594 392.699219 C 363.964844 392.65625 363.867188 392.628906 363.769531 392.589844 C 363.730469 392.574219 363.675781 392.5625 363.632812 392.546875 C 363.589844 392.535156 363.535156 392.519531 363.496094 392.507812 C 363.316406 392.453125 363.136719 392.410156 362.945312 392.382812 C 362.765625 392.355469 362.585938 392.328125 362.410156 392.3125 C 362.230469 392.3125 362.050781 392.3125 361.871094 392.3125 C 361.527344 392.339844 361.183594 392.425781 360.855469 392.546875 C 360.523438 392.671875 360.222656 392.851562 359.933594 393.070312 C 359.355469 393.511719 358.875 394.101562 358.503906 394.789062 C 358.132812 395.476562 357.882812 396.234375 357.746094 397.019531 C 357.675781 397.402344 357.636719 397.800781 357.636719 398.199219 C 357.636719 398.394531 357.636719 398.597656 357.648438 398.792969 C 357.648438 398.847656 357.648438 398.886719 357.648438 398.941406 Z M 357.648438 398.941406 " fill-opacity="1" fill-rule="nonzero"/></g><path fill="#2fa8bd" d="M 373.5625 403.054688 C 373.34375 403.316406 373.121094 403.578125 372.902344 403.824219 C 373.136719 404.074219 373.355469 404.335938 373.5625 404.597656 C 373.90625 405.023438 374.222656 405.449219 374.527344 405.902344 C 374.609375 405.832031 374.691406 405.777344 374.773438 405.710938 C 374.964844 405.574219 375.144531 405.421875 375.335938 405.285156 C 376.078125 404.734375 376.835938 404.195312 377.605469 403.6875 L 377.675781 403.648438 C 376.683594 402.902344 375.734375 402.132812 374.800781 401.335938 C 374.429688 401.929688 374.015625 402.503906 373.578125 403.054688 Z M 373.5625 403.054688 " fill-opacity="1" fill-rule="nonzero"/><path fill="#2fa8bd" d="M 354.117188 402.835938 C 353.566406 402.214844 353.054688 401.472656 352.601562 400.636719 C 352.09375 399.660156 351.679688 398.597656 351.378906 397.457031 L 351.1875 396.742188 C 350.964844 396.714844 350.746094 396.6875 350.527344 396.660156 C 350.058594 396.605469 349.578125 396.589844 349.09375 396.578125 L 348.378906 396.578125 C 348.257812 396.578125 348.148438 396.578125 348.023438 396.589844 C 347.898438 396.589844 347.789062 396.605469 347.664062 396.617188 C 347.199219 396.648438 346.730469 396.703125 346.277344 396.769531 C 346.167969 396.785156 346.042969 396.8125 345.933594 396.824219 L 345.765625 396.851562 L 345.738281 396.851562 C 345.699219 396.976562 345.65625 397.085938 345.617188 397.195312 C 345.4375 397.691406 345.230469 398.160156 345.023438 398.597656 C 344.804688 399.039062 344.585938 399.453125 344.351562 399.835938 C 343.871094 400.609375 343.359375 401.253906 342.851562 401.789062 C 341.820312 402.863281 340.761719 403.46875 339.867188 403.796875 C 339.125 404.074219 338.476562 404.15625 338.011719 404.167969 C 338.492188 404.195312 339.125 404.28125 339.867188 404.554688 C 340.761719 404.871094 341.820312 405.488281 342.851562 406.5625 C 343.375 407.097656 343.882812 407.746094 344.351562 408.515625 C 344.585938 408.902344 344.816406 409.3125 345.023438 409.753906 C 345.230469 410.195312 345.4375 410.660156 345.617188 411.15625 C 345.65625 411.265625 345.699219 411.390625 345.738281 411.5 L 345.765625 411.5 L 345.933594 411.527344 C 346.042969 411.542969 346.167969 411.570312 346.277344 411.582031 C 346.730469 411.652344 347.199219 411.707031 347.664062 411.734375 C 348.132812 411.773438 348.613281 411.773438 349.082031 411.773438 C 349.5625 411.761719 350.03125 411.734375 350.511719 411.691406 C 350.730469 411.664062 350.953125 411.636719 351.171875 411.609375 L 351.363281 410.894531 C 351.667969 409.753906 352.078125 408.695312 352.589844 407.730469 C 353.042969 406.878906 353.550781 406.136719 354.101562 405.53125 C 354.417969 405.171875 354.734375 404.871094 354.96875 404.652344 L 354.996094 404.625 L 355.023438 404.625 C 355.023438 404.625 355.09375 404.554688 355.121094 404.527344 C 355.214844 404.445312 355.339844 404.335938 355.476562 404.238281 C 355.492188 404.238281 355.503906 404.210938 355.519531 404.210938 L 355.546875 404.210938 C 355.023438 403.8125 354.542969 403.359375 354.117188 402.863281 Z M 354.117188 402.835938 " fill-opacity="1" fill-rule="nonzero"/><path fill="#2fa8bd" d="M 379.3125 403.632812 L 408.9375 404.855469 L 438.5625 403.632812 L 408.9375 402.394531 Z M 379.3125 403.632812 " fill-opacity="1" fill-rule="nonzero"/></svg>