<svg xmlns="http://www.w3.org/2000/svg" xmlns:xlink="http://www.w3.org/1999/xlink" width="1080" zoomAndPan="magnify" viewBox="0 0 810 809.999993" height="1080" preserveAspectRatio="xMidYMid meet" version="1.0"><defs><g/><clipPath id="e0cb663b91"><path d="M 482 557 L 580.53125 557 L 580.53125 566 L 482 566 Z M 482 557 " clip-rule="nonzero"/></clipPath><clipPath id="e4af3d5ebf"><path d="M 444 562 L 461 562 L 461 573.605469 L 444 573.605469 Z M 444 562 " clip-rule="nonzero"/></clipPath><clipPath id="fdc2bdcfad"><path d="M 444 549.605469 L 461 549.605469 L 461 560 L 444 560 Z M 444 549.605469 " clip-rule="nonzero"/></clipPath><clipPath id="50be26fa9f"><path d="M 231.78125 557 L 336 557 L 336 566 L 231.78125 566 Z M 231.78125 557 " clip-rule="nonzero"/></clipPath><clipPath id="47a7f61ef3"><path d="M 357 562 L 373 562 L 373 573.605469 L 357 573.605469 Z M 357 562 " clip-rule="nonzero"/></clipPath><clipPath id="e9ba62d6ae"><path d="M 357 549.605469 L 374 549.605469 L 374 560 L 357 560 Z M 357 549.605469 " clip-rule="nonzero"/></clipPath><clipPath id="3fee8d650f"><path d="M 0 232.339844 L 344 232.339844 L 344 398 L 0 398 Z M 0 232.339844 " clip-rule="nonzero"/></clipPath><clipPath id="5f738fe63c"><path d="M 466 232.339844 L 810 232.339844 L 810 398 L 466 398 Z M 466 232.339844 " clip-rule="nonzero"/></clipPath></defs><g fill="#002257" fill-opacity="1"><g transform="translate(29.871096, 540.426545)"><g><path d="M 42.8125 23.296875 C 41.507812 23.296875 40.117188 22.90625 38.640625 22.125 C 37.171875 21.34375 35.875 20.039062 34.75 18.21875 C 35.957031 19 37.0625 19.109375 38.0625 18.546875 C 39.0625 17.984375 39.5625 17.003906 39.5625 15.609375 C 39.5625 13.441406 38.390625 11.316406 36.046875 9.234375 C 33.359375 11.148438 30.429688 12.671875 27.265625 13.796875 C 24.097656 14.921875 20.863281 15.484375 17.5625 15.484375 C 12.363281 15.484375 8.460938 14.660156 5.859375 13.015625 C 3.253906 11.367188 1.953125 9.546875 1.953125 7.546875 C 1.953125 5.554688 3.382812 3.691406 6.25 1.953125 C 9.113281 0.210938 13.453125 -0.65625 19.265625 -0.65625 C 21.867188 -0.65625 24.492188 -0.394531 27.140625 0.125 C 29.785156 0.644531 32.453125 1.382812 35.140625 2.34375 C 36.265625 0.601562 37.148438 -1.347656 37.796875 -3.515625 C 38.453125 -5.679688 38.78125 -7.976562 38.78125 -10.40625 C 38.78125 -14.488281 38 -18.867188 36.4375 -23.546875 C 34.875 -28.234375 33.070312 -33.09375 31.03125 -38.125 C 29 -43.15625 27.203125 -48.207031 25.640625 -53.28125 C 24.078125 -58.363281 23.296875 -63.378906 23.296875 -68.328125 C 23.296875 -73.960938 24.488281 -78.90625 26.875 -83.15625 C 29.257812 -87.40625 32.664062 -90.722656 37.09375 -93.109375 C 41.519531 -95.492188 46.679688 -96.6875 52.578125 -96.6875 C 58.390625 -96.6875 63.140625 -95.601562 66.828125 -93.4375 C 70.515625 -91.269531 72.359375 -88.535156 72.359375 -85.234375 C 72.359375 -82.804688 71.359375 -80.832031 69.359375 -79.3125 C 67.367188 -77.800781 64.722656 -77.046875 61.421875 -77.046875 C 59.515625 -77.046875 57.5 -77.367188 55.375 -78.015625 C 53.25 -78.671875 51.445312 -79.820312 49.96875 -81.46875 C 52.488281 -80.601562 54.484375 -80.773438 55.953125 -81.984375 C 57.429688 -83.203125 58.171875 -84.59375 58.171875 -86.15625 C 58.171875 -87.457031 57.628906 -88.648438 56.546875 -89.734375 C 55.460938 -90.816406 53.660156 -91.359375 51.140625 -91.359375 C 46.890625 -91.359375 43.484375 -89.535156 40.921875 -85.890625 C 38.367188 -82.242188 37.09375 -77.472656 37.09375 -71.578125 C 37.09375 -66.890625 37.785156 -62.09375 39.171875 -57.1875 C 40.554688 -52.289062 42.179688 -47.410156 44.046875 -42.546875 C 45.910156 -37.691406 47.535156 -33.070312 48.921875 -28.6875 C 50.316406 -24.3125 51.015625 -20.300781 51.015625 -16.65625 C 51.015625 -12.925781 50.144531 -9.195312 48.40625 -5.46875 C 46.675781 -1.738281 44.335938 1.644531 41.390625 4.6875 C 46.421875 6.675781 51.40625 8.863281 56.34375 11.25 C 61.289062 13.644531 66.109375 15.6875 70.796875 17.375 C 75.484375 19.0625 79.910156 19.90625 84.078125 19.90625 C 86.410156 19.90625 88.097656 19.472656 89.140625 18.609375 C 90.179688 17.742188 90.703125 16.789062 90.703125 15.75 C 90.703125 14.789062 90.398438 14.03125 89.796875 13.46875 C 89.191406 12.90625 88.453125 12.625 87.578125 12.625 C 86.796875 12.625 86.0625 12.84375 85.375 13.28125 C 85.894531 11.28125 86.847656 9.738281 88.234375 8.65625 C 89.617188 7.570312 91.140625 7.03125 92.796875 7.03125 C 94.609375 7.03125 96.125 7.632812 97.34375 8.84375 C 98.5625 10.0625 99.171875 11.539062 99.171875 13.28125 C 99.171875 15.445312 98.300781 17.3125 96.5625 18.875 C 94.832031 20.4375 92.664062 21.691406 90.0625 22.640625 C 87.457031 23.597656 84.742188 24.3125 81.921875 24.78125 C 79.097656 25.257812 76.5625 25.5 74.3125 25.5 C 69.800781 25.5 65.421875 24.890625 61.171875 23.671875 C 56.921875 22.460938 52.710938 20.863281 48.546875 18.875 C 48.453125 20.175781 47.84375 21.238281 46.71875 22.0625 C 45.59375 22.882812 44.289062 23.296875 42.8125 23.296875 Z M 13.921875 7.421875 C 13.921875 8.546875 14.523438 9.453125 15.734375 10.140625 C 16.953125 10.835938 18.519531 11.1875 20.4375 11.1875 C 24.6875 11.1875 28.546875 9.539062 32.015625 6.25 C 28.710938 4.34375 25.15625 3.390625 21.34375 3.390625 C 19.175781 3.390625 17.394531 3.753906 16 4.484375 C 14.613281 5.222656 13.921875 6.203125 13.921875 7.421875 Z M 13.921875 7.421875 "/></g></g></g><g fill="#002257" fill-opacity="1"><g transform="translate(91.816142, 540.426545)"><g><path d="M 10.546875 -48.15625 C 8.722656 -48.15625 7.113281 -48.890625 5.71875 -50.359375 C 4.332031 -51.835938 3.640625 -53.921875 3.640625 -56.609375 C 3.640625 -59.210938 4.242188 -61.726562 5.453125 -64.15625 C 6.671875 -66.582031 8.210938 -68.75 10.078125 -70.65625 C 11.953125 -72.570312 13.925781 -74.050781 16 -75.09375 L 17.953125 -72.625 C 16.304688 -71.320312 14.851562 -69.78125 13.59375 -68 C 12.34375 -66.21875 11.539062 -64.332031 11.1875 -62.34375 C 13.007812 -62.25 14.523438 -61.53125 15.734375 -60.1875 C 16.953125 -58.84375 17.5625 -57.21875 17.5625 -55.3125 C 17.5625 -53.226562 16.890625 -51.515625 15.546875 -50.171875 C 14.203125 -48.828125 12.535156 -48.15625 10.546875 -48.15625 Z M 10.546875 -48.15625 "/></g></g></g><g fill="#002257" fill-opacity="1"><g transform="translate(113.158559, 540.426545)"><g/></g></g><g fill="#002257" fill-opacity="1"><g transform="translate(146.994091, 540.426545)"><g><path d="M 18.21875 18.609375 C 14.226562 18.609375 11.34375 17.785156 9.5625 16.140625 C 7.78125 14.492188 6.890625 12.800781 6.890625 11.0625 C 6.890625 9.320312 7.390625 7.992188 8.390625 7.078125 C 9.390625 6.171875 10.5 5.71875 11.71875 5.71875 C 12.925781 5.71875 14.050781 6.109375 15.09375 6.890625 C 16.132812 7.671875 16.65625 8.929688 16.65625 10.671875 C 16.65625 11.453125 16.4375 12.273438 16 13.140625 C 16.519531 13.316406 17.039062 13.425781 17.5625 13.46875 C 18.082031 13.507812 18.5625 13.53125 19 13.53125 C 23.59375 13.53125 27.210938 12.269531 29.859375 9.75 C 32.515625 7.238281 34.425781 4.097656 35.59375 0.328125 C 36.757812 -3.441406 37.34375 -7.28125 37.34375 -11.1875 L 37.34375 -51.140625 C 37.34375 -57.046875 37.144531 -61.472656 36.75 -64.421875 C 36.363281 -67.367188 35.757812 -69.445312 34.9375 -70.65625 C 34.113281 -71.875 33.007812 -72.742188 31.625 -73.265625 L 31.625 -73.53125 C 35.4375 -73.875 39.097656 -75.21875 42.609375 -77.5625 C 46.128906 -79.90625 48.5 -82.8125 49.71875 -86.28125 C 45.726562 -86.363281 41.800781 -85.925781 37.9375 -84.96875 C 34.070312 -84.019531 30.597656 -82.65625 27.515625 -80.875 C 24.441406 -79.101562 21.992188 -77 20.171875 -74.5625 C 18.347656 -72.132812 17.4375 -69.535156 17.4375 -66.765625 C 17.4375 -65.203125 17.847656 -64.007812 18.671875 -63.1875 C 19.492188 -62.363281 20.472656 -61.953125 21.609375 -61.953125 C 22.554688 -61.953125 23.460938 -62.1875 24.328125 -62.65625 C 25.203125 -63.132812 25.941406 -63.984375 26.546875 -65.203125 C 26.367188 -61.210938 25.148438 -57.847656 22.890625 -55.109375 C 20.640625 -52.378906 17.476562 -51.015625 13.40625 -51.015625 C 10.101562 -51.015625 7.367188 -52.117188 5.203125 -54.328125 C 3.035156 -56.546875 1.953125 -59.5625 1.953125 -63.375 C 1.953125 -67.625 3.253906 -71.421875 5.859375 -74.765625 C 8.460938 -78.109375 11.910156 -80.945312 16.203125 -83.28125 C 20.492188 -85.625 25.242188 -87.40625 30.453125 -88.625 C 35.660156 -89.84375 40.863281 -90.453125 46.0625 -90.453125 C 50.75 -90.453125 55.085938 -90.0625 59.078125 -89.28125 L 59.21875 -89.015625 C 56.269531 -87.453125 54.144531 -85.128906 52.84375 -82.046875 C 51.539062 -78.972656 50.734375 -75.375 50.421875 -71.25 C 50.117188 -67.125 49.96875 -62.675781 49.96875 -57.90625 L 49.96875 -15.359375 C 49.96875 -8.242188 50.578125 -2.734375 51.796875 1.171875 C 53.015625 5.078125 55.007812 7.722656 57.78125 9.109375 L 56.34375 12.109375 C 53.3125 10.972656 50.191406 10.625 46.984375 11.0625 C 47.066406 10.101562 46.800781 9.273438 46.1875 8.578125 C 45.582031 7.890625 44.765625 7.546875 43.734375 7.546875 C 41.554688 7.546875 40.46875 8.71875 40.46875 11.0625 C 40.46875 11.582031 40.597656 12.0625 40.859375 12.5 C 37.390625 13.625 33.8125 14.921875 30.125 16.390625 C 26.4375 17.867188 22.46875 18.609375 18.21875 18.609375 Z M 18.21875 18.609375 "/></g></g></g><g fill="#002257" fill-opacity="1"><g transform="translate(206.076134, 540.426545)"><g><path d="M 1.828125 -0.390625 C 3.648438 -0.992188 4.945312 -2.078125 5.71875 -3.640625 C 6.5 -5.203125 6.976562 -6.9375 7.15625 -8.84375 C 7.332031 -10.757812 7.421875 -12.5 7.421875 -14.0625 L 7.421875 -58.296875 C 7.421875 -62.722656 6.984375 -66.148438 6.109375 -68.578125 C 5.242188 -71.015625 3.816406 -72.753906 1.828125 -73.796875 L 1.828125 -74.1875 C 9.285156 -74.613281 15.703125 -73.394531 21.078125 -70.53125 C 26.460938 -67.664062 30.929688 -63.675781 34.484375 -58.5625 C 38.046875 -53.445312 40.867188 -47.765625 42.953125 -41.515625 L 42.953125 -60.125 C 42.953125 -61.6875 42.863281 -63.421875 42.6875 -65.328125 C 42.507812 -67.234375 42.03125 -68.96875 41.25 -70.53125 C 40.46875 -72.09375 39.164062 -73.179688 37.34375 -73.796875 L 37.34375 -74.1875 L 57.90625 -74.1875 L 57.90625 -73.796875 C 56.082031 -73.179688 54.78125 -72.09375 54 -70.53125 C 53.226562 -68.96875 52.753906 -67.234375 52.578125 -65.328125 C 52.398438 -63.421875 52.3125 -61.6875 52.3125 -60.125 L 52.3125 0 L 43.078125 0 C 43.078125 -7.195312 42.40625 -14.09375 41.0625 -20.6875 C 39.71875 -27.28125 37.851562 -33.203125 35.46875 -38.453125 C 33.082031 -43.703125 30.28125 -47.992188 27.0625 -51.328125 C 23.851562 -54.671875 20.425781 -56.734375 16.78125 -57.515625 L 16.78125 -14.0625 C 16.78125 -12.5 16.867188 -10.757812 17.046875 -8.84375 C 17.222656 -6.9375 17.703125 -5.203125 18.484375 -3.640625 C 19.265625 -2.078125 20.566406 -0.992188 22.390625 -0.390625 L 22.390625 0 L 1.828125 0 Z M 1.828125 -0.390625 "/></g></g></g><g fill="#002257" fill-opacity="1"><g transform="translate(265.548604, 540.426545)"><g><path d="M 14.0625 -0.390625 C 16.132812 -1.085938 17.582031 -2.539062 18.40625 -4.75 C 19.238281 -6.957031 19.65625 -10.492188 19.65625 -15.359375 L 19.65625 -66.375 L 14.96875 -66.375 C 12.101562 -66.375 9.519531 -65.441406 7.21875 -63.578125 C 4.925781 -61.710938 3.300781 -59.171875 2.34375 -55.953125 L 1.828125 -56.09375 L 4.171875 -75.21875 C 4.515625 -74.875 5.179688 -74.613281 6.171875 -74.4375 C 7.171875 -74.269531 8.28125 -74.1875 9.5 -74.1875 L 41.390625 -74.1875 C 42.597656 -74.1875 43.703125 -74.269531 44.703125 -74.4375 C 45.703125 -74.613281 46.375 -74.875 46.71875 -75.21875 L 49.0625 -56.09375 L 48.546875 -55.953125 C 47.585938 -59.171875 45.957031 -61.710938 43.65625 -63.578125 C 41.363281 -65.441406 38.785156 -66.375 35.921875 -66.375 L 31.359375 -66.375 L 31.359375 -15.359375 C 31.359375 -10.492188 31.769531 -6.957031 32.59375 -4.75 C 33.425781 -2.539062 34.878906 -1.085938 36.953125 -0.390625 L 36.953125 0 L 14.0625 0 Z M 14.0625 -0.390625 "/></g></g></g><g fill="#002257" fill-opacity="1"><g transform="translate(316.432055, 540.426545)"><g><path d="M 1.828125 -0.390625 C 3.910156 -1.085938 5.363281 -2.539062 6.1875 -4.75 C 7.007812 -6.957031 7.421875 -10.492188 7.421875 -15.359375 L 7.421875 -58.828125 C 7.421875 -63.679688 7.007812 -67.210938 6.1875 -69.421875 C 5.363281 -71.640625 3.910156 -73.097656 1.828125 -73.796875 L 1.828125 -74.1875 L 42.421875 -74.1875 C 43.378906 -74.1875 44.421875 -74.269531 45.546875 -74.4375 C 46.671875 -74.613281 47.410156 -74.875 47.765625 -75.21875 L 40.859375 -61.171875 L 40.46875 -61.296875 C 40.90625 -64.941406 38.390625 -66.765625 32.921875 -66.765625 L 19.125 -66.765625 L 19.125 -47.234375 L 19.390625 -47.234375 C 20.347656 -48.972656 21.601562 -50.363281 23.15625 -51.40625 C 24.71875 -52.445312 26.457031 -52.96875 28.375 -52.96875 C 30.71875 -52.96875 32.925781 -52.445312 35 -51.40625 C 37.082031 -50.363281 39.210938 -49.84375 41.390625 -49.84375 C 43.554688 -49.84375 45.160156 -50.664062 46.203125 -52.3125 L 46.59375 -52.1875 C 45.976562 -49.757812 44.695312 -47.394531 42.75 -45.09375 C 40.800781 -42.789062 38.4375 -41.640625 35.65625 -41.640625 C 34.1875 -41.640625 32.753906 -41.941406 31.359375 -42.546875 C 29.972656 -43.160156 28.5625 -43.769531 27.125 -44.375 C 25.695312 -44.976562 24.203125 -45.28125 22.640625 -45.28125 C 21.253906 -45.28125 20.082031 -44.804688 19.125 -43.859375 L 19.125 -7.8125 L 32.28125 -7.8125 C 35.914062 -7.8125 39.1875 -8.722656 42.09375 -10.546875 C 45 -12.367188 47.0625 -14.796875 48.28125 -17.828125 L 48.796875 -17.703125 L 45.28125 1.4375 C 44.675781 0.476562 43.421875 0 41.515625 0 L 1.828125 0 Z M 1.828125 -0.390625 "/></g></g></g><g fill="#002257" fill-opacity="1"><g transform="translate(366.794937, 540.426545)"><g><path d="M 1.828125 -0.390625 C 3.910156 -1.085938 5.363281 -2.539062 6.1875 -4.75 C 7.007812 -6.957031 7.421875 -10.492188 7.421875 -15.359375 L 7.421875 -58.828125 C 7.421875 -63.679688 7.007812 -67.210938 6.1875 -69.421875 C 5.363281 -71.640625 3.910156 -73.097656 1.828125 -73.796875 L 1.828125 -74.1875 L 33.453125 -74.1875 C 39.785156 -74.1875 44.859375 -72.535156 48.671875 -69.234375 C 52.492188 -65.941406 54.40625 -61.820312 54.40625 -56.875 C 54.40625 -53.664062 53.625 -50.800781 52.0625 -48.28125 C 50.5 -45.769531 48.394531 -43.816406 45.75 -42.421875 C 43.101562 -41.035156 40.171875 -40.382812 36.953125 -40.46875 C 39.816406 -36.914062 42.550781 -32.578125 45.15625 -27.453125 C 47.757812 -22.335938 49.882812 -17.222656 51.53125 -12.109375 C 53.613281 -5.597656 56.046875 -1.691406 58.828125 -0.390625 L 58.828125 0 L 36.703125 0 L 36.5625 -0.390625 C 39.601562 -1.773438 40.472656 -5.203125 39.171875 -10.671875 C 38.128906 -15.097656 36.628906 -19.648438 34.671875 -24.328125 C 32.722656 -29.015625 30.445312 -33.375 27.84375 -37.40625 C 25.25 -41.445312 22.34375 -44.59375 19.125 -46.84375 L 19.125 -15.359375 C 19.125 -10.492188 19.535156 -6.957031 20.359375 -4.75 C 21.191406 -2.539062 22.648438 -1.085938 24.734375 -0.390625 L 24.734375 0 L 1.828125 0 Z M 19.125 -64.421875 C 19.125 -61.117188 19.753906 -58.1875 21.015625 -55.625 C 22.273438 -53.070312 23.945312 -51.078125 26.03125 -49.640625 C 28.113281 -48.210938 30.28125 -47.5 32.53125 -47.5 C 35.476562 -47.5 37.710938 -48.363281 39.234375 -50.09375 C 40.753906 -51.832031 41.515625 -53.832031 41.515625 -56.09375 C 41.515625 -59.21875 40.234375 -61.816406 37.671875 -63.890625 C 35.117188 -65.972656 31.800781 -67.015625 27.71875 -67.015625 L 19.125 -67.015625 Z M 19.125 -64.421875 "/></g></g></g><g fill="#002257" fill-opacity="1"><g transform="translate(424.31532, 540.426545)"><g><path d="M 1.828125 -0.390625 C 3.910156 -1.085938 5.363281 -2.539062 6.1875 -4.75 C 7.007812 -6.957031 7.421875 -10.492188 7.421875 -15.359375 L 7.421875 -58.828125 C 7.421875 -63.679688 7.007812 -67.210938 6.1875 -69.421875 C 5.363281 -71.640625 3.910156 -73.097656 1.828125 -73.796875 L 1.828125 -74.1875 L 43.203125 -74.1875 C 44.160156 -74.1875 45.203125 -74.269531 46.328125 -74.4375 C 47.453125 -74.613281 48.191406 -74.875 48.546875 -75.21875 L 41.640625 -61.171875 L 41.25 -61.296875 C 41.6875 -64.941406 39.171875 -66.765625 33.703125 -66.765625 L 19.125 -66.765625 L 19.125 -46.0625 L 19.390625 -46.0625 C 20.347656 -47.800781 21.601562 -49.191406 23.15625 -50.234375 C 24.71875 -51.273438 26.457031 -51.796875 28.375 -51.796875 C 30.71875 -51.796875 32.925781 -51.273438 35 -50.234375 C 37.082031 -49.191406 39.210938 -48.671875 41.390625 -48.671875 C 43.554688 -48.671875 45.160156 -49.492188 46.203125 -51.140625 L 46.59375 -51.015625 C 45.976562 -48.585938 44.695312 -46.222656 42.75 -43.921875 C 40.800781 -41.617188 38.4375 -40.46875 35.65625 -40.46875 C 34.1875 -40.46875 32.753906 -40.769531 31.359375 -41.375 C 29.972656 -41.988281 28.5625 -42.597656 27.125 -43.203125 C 25.695312 -43.816406 24.203125 -44.125 22.640625 -44.125 C 21.253906 -44.125 20.082031 -43.644531 19.125 -42.6875 L 19.125 -15.359375 C 19.125 -10.492188 19.535156 -6.957031 20.359375 -4.75 C 21.191406 -2.539062 22.648438 -1.085938 24.734375 -0.390625 L 24.734375 0 L 1.828125 0 Z M 1.828125 -0.390625 "/></g></g></g><g fill="#002257" fill-opacity="1"><g transform="translate(473.63711, 540.426545)"><g><path d="M 1.828125 -0.390625 C 3.910156 -1.085938 5.363281 -2.539062 6.1875 -4.75 C 7.007812 -6.957031 7.421875 -10.492188 7.421875 -15.359375 L 7.421875 -58.828125 C 7.421875 -63.679688 7.007812 -67.210938 6.1875 -69.421875 C 5.363281 -71.640625 3.910156 -73.097656 1.828125 -73.796875 L 1.828125 -74.1875 L 24.734375 -74.1875 L 24.734375 -73.796875 C 22.648438 -73.097656 21.191406 -71.640625 20.359375 -69.421875 C 19.535156 -67.210938 19.125 -63.679688 19.125 -58.828125 L 19.125 -15.359375 C 19.125 -10.492188 19.535156 -6.957031 20.359375 -4.75 C 21.191406 -2.539062 22.648438 -1.085938 24.734375 -0.390625 L 24.734375 0 L 1.828125 0 Z M 1.828125 -0.390625 "/></g></g></g><g fill="#002257" fill-opacity="1"><g transform="translate(500.184976, 540.426545)"><g><path d="M 1.828125 -0.390625 C 3.910156 -1.085938 5.363281 -2.539062 6.1875 -4.75 C 7.007812 -6.957031 7.421875 -10.492188 7.421875 -15.359375 L 7.421875 -58.828125 C 7.421875 -63.679688 7.007812 -67.210938 6.1875 -69.421875 C 5.363281 -71.640625 3.910156 -73.097656 1.828125 -73.796875 L 1.828125 -74.1875 L 24.734375 -74.1875 L 24.734375 -73.796875 C 22.648438 -73.097656 21.191406 -71.640625 20.359375 -69.421875 C 19.535156 -67.210938 19.125 -63.679688 19.125 -58.828125 L 19.125 -7.8125 L 28.375 -7.8125 C 32.019531 -7.8125 35.296875 -8.722656 38.203125 -10.546875 C 41.109375 -12.367188 43.164062 -14.796875 44.375 -17.828125 L 44.90625 -17.703125 L 41.390625 1.4375 C 40.773438 0.476562 39.515625 0 37.609375 0 L 1.828125 0 Z M 1.828125 -0.390625 "/></g></g></g><g fill="#002257" fill-opacity="1"><g transform="translate(545.602683, 540.426545)"><g><path d="M 1.828125 -0.390625 C 3.910156 -1.085938 5.363281 -2.539062 6.1875 -4.75 C 7.007812 -6.957031 7.421875 -10.492188 7.421875 -15.359375 L 7.421875 -58.828125 C 7.421875 -63.679688 7.007812 -67.210938 6.1875 -69.421875 C 5.363281 -71.640625 3.910156 -73.097656 1.828125 -73.796875 L 1.828125 -74.1875 L 24.734375 -74.1875 L 24.734375 -73.796875 C 22.648438 -73.097656 21.191406 -71.640625 20.359375 -69.421875 C 19.535156 -67.210938 19.125 -63.679688 19.125 -58.828125 L 19.125 -15.359375 C 19.125 -10.492188 19.535156 -6.957031 20.359375 -4.75 C 21.191406 -2.539062 22.648438 -1.085938 24.734375 -0.390625 L 24.734375 0 L 1.828125 0 Z M 1.828125 -0.390625 "/></g></g></g><g fill="#002257" fill-opacity="1"><g transform="translate(572.150549, 540.426545)"><g><path d="M 1.828125 -0.390625 C 3.910156 -1.085938 5.363281 -2.539062 6.1875 -4.75 C 7.007812 -6.957031 7.421875 -10.492188 7.421875 -15.359375 L 7.421875 -58.828125 C 7.421875 -63.679688 7.007812 -67.210938 6.1875 -69.421875 C 5.363281 -71.640625 3.910156 -73.097656 1.828125 -73.796875 L 1.828125 -74.1875 L 42.421875 -74.1875 C 43.378906 -74.1875 44.421875 -74.269531 45.546875 -74.4375 C 46.671875 -74.613281 47.410156 -74.875 47.765625 -75.21875 L 40.859375 -61.171875 L 40.46875 -61.296875 C 40.90625 -64.941406 38.390625 -66.765625 32.921875 -66.765625 L 19.125 -66.765625 L 19.125 -47.234375 L 19.390625 -47.234375 C 20.347656 -48.972656 21.601562 -50.363281 23.15625 -51.40625 C 24.71875 -52.445312 26.457031 -52.96875 28.375 -52.96875 C 30.71875 -52.96875 32.925781 -52.445312 35 -51.40625 C 37.082031 -50.363281 39.210938 -49.84375 41.390625 -49.84375 C 43.554688 -49.84375 45.160156 -50.664062 46.203125 -52.3125 L 46.59375 -52.1875 C 45.976562 -49.757812 44.695312 -47.394531 42.75 -45.09375 C 40.800781 -42.789062 38.4375 -41.640625 35.65625 -41.640625 C 34.1875 -41.640625 32.753906 -41.941406 31.359375 -42.546875 C 29.972656 -43.160156 28.5625 -43.769531 27.125 -44.375 C 25.695312 -44.976562 24.203125 -45.28125 22.640625 -45.28125 C 21.253906 -45.28125 20.082031 -44.804688 19.125 -43.859375 L 19.125 -7.8125 L 32.28125 -7.8125 C 35.914062 -7.8125 39.1875 -8.722656 42.09375 -10.546875 C 45 -12.367188 47.0625 -14.796875 48.28125 -17.828125 L 48.796875 -17.703125 L 45.28125 1.4375 C 44.675781 0.476562 43.421875 0 41.515625 0 L 1.828125 0 Z M 13.671875 -93.578125 L 13.671875 -94.875 L 24.34375 -94.875 L 30.1875 -78.078125 L 25.890625 -78.078125 Z M 13.671875 -93.578125 "/></g></g></g><g fill="#002257" fill-opacity="1"><g transform="translate(622.513431, 540.426545)"><g><path d="M 1.828125 -0.390625 C 3.910156 -1.085938 5.363281 -2.539062 6.1875 -4.75 C 7.007812 -6.957031 7.421875 -10.492188 7.421875 -15.359375 L 7.421875 -58.828125 C 7.421875 -63.679688 7.007812 -67.210938 6.1875 -69.421875 C 5.363281 -71.640625 3.910156 -73.097656 1.828125 -73.796875 L 1.828125 -74.1875 L 33.453125 -74.1875 C 39.785156 -74.1875 44.859375 -72.535156 48.671875 -69.234375 C 52.492188 -65.941406 54.40625 -61.820312 54.40625 -56.875 C 54.40625 -53.664062 53.625 -50.800781 52.0625 -48.28125 C 50.5 -45.769531 48.394531 -43.816406 45.75 -42.421875 C 43.101562 -41.035156 40.171875 -40.382812 36.953125 -40.46875 C 39.816406 -36.914062 42.550781 -32.578125 45.15625 -27.453125 C 47.757812 -22.335938 49.882812 -17.222656 51.53125 -12.109375 C 53.613281 -5.597656 56.046875 -1.691406 58.828125 -0.390625 L 58.828125 0 L 36.703125 0 L 36.5625 -0.390625 C 39.601562 -1.773438 40.472656 -5.203125 39.171875 -10.671875 C 38.128906 -15.097656 36.628906 -19.648438 34.671875 -24.328125 C 32.722656 -29.015625 30.445312 -33.375 27.84375 -37.40625 C 25.25 -41.445312 22.34375 -44.59375 19.125 -46.84375 L 19.125 -15.359375 C 19.125 -10.492188 19.535156 -6.957031 20.359375 -4.75 C 21.191406 -2.539062 22.648438 -1.085938 24.734375 -0.390625 L 24.734375 0 L 1.828125 0 Z M 19.125 -64.421875 C 19.125 -61.117188 19.753906 -58.1875 21.015625 -55.625 C 22.273438 -53.070312 23.945312 -51.078125 26.03125 -49.640625 C 28.113281 -48.210938 30.28125 -47.5 32.53125 -47.5 C 35.476562 -47.5 37.710938 -48.363281 39.234375 -50.09375 C 40.753906 -51.832031 41.515625 -53.832031 41.515625 -56.09375 C 41.515625 -59.21875 40.234375 -61.816406 37.671875 -63.890625 C 35.117188 -65.972656 31.800781 -67.015625 27.71875 -67.015625 L 19.125 -67.015625 Z M 19.125 -64.421875 "/></g></g></g><g fill="#002257" fill-opacity="1"><g transform="translate(680.033814, 540.426545)"><g><path d="M 1.828125 -0.390625 C 3.910156 -1.085938 5.363281 -2.539062 6.1875 -4.75 C 7.007812 -6.957031 7.421875 -10.492188 7.421875 -15.359375 L 7.421875 -58.828125 C 7.421875 -63.679688 7.007812 -67.210938 6.1875 -69.421875 C 5.363281 -71.640625 3.910156 -73.097656 1.828125 -73.796875 L 1.828125 -74.1875 L 42.421875 -74.1875 C 43.378906 -74.1875 44.421875 -74.269531 45.546875 -74.4375 C 46.671875 -74.613281 47.410156 -74.875 47.765625 -75.21875 L 40.859375 -61.171875 L 40.46875 -61.296875 C 40.90625 -64.941406 38.390625 -66.765625 32.921875 -66.765625 L 19.125 -66.765625 L 19.125 -47.234375 L 19.390625 -47.234375 C 20.347656 -48.972656 21.601562 -50.363281 23.15625 -51.40625 C 24.71875 -52.445312 26.457031 -52.96875 28.375 -52.96875 C 30.71875 -52.96875 32.925781 -52.445312 35 -51.40625 C 37.082031 -50.363281 39.210938 -49.84375 41.390625 -49.84375 C 43.554688 -49.84375 45.160156 -50.664062 46.203125 -52.3125 L 46.59375 -52.1875 C 45.976562 -49.757812 44.695312 -47.394531 42.75 -45.09375 C 40.800781 -42.789062 38.4375 -41.640625 35.65625 -41.640625 C 34.1875 -41.640625 32.753906 -41.941406 31.359375 -42.546875 C 29.972656 -43.160156 28.5625 -43.769531 27.125 -44.375 C 25.695312 -44.976562 24.203125 -45.28125 22.640625 -45.28125 C 21.253906 -45.28125 20.082031 -44.804688 19.125 -43.859375 L 19.125 -7.8125 L 32.28125 -7.8125 C 35.914062 -7.8125 39.1875 -8.722656 42.09375 -10.546875 C 45 -12.367188 47.0625 -14.796875 48.28125 -17.828125 L 48.796875 -17.703125 L 45.28125 1.4375 C 44.675781 0.476562 43.421875 0 41.515625 0 L 1.828125 0 Z M 1.828125 -0.390625 "/></g></g></g><g fill="#002257" fill-opacity="1"><g transform="translate(730.396696, 540.426545)"><g><path d="M 24.34375 1.171875 C 20.175781 1.171875 16.117188 0.347656 12.171875 -1.296875 C 8.222656 -2.953125 4.945312 -5.425781 2.34375 -8.71875 L 7.15625 -26.28125 L 7.546875 -26.28125 C 8.066406 -22.03125 9.28125 -18.515625 11.1875 -15.734375 C 13.101562 -12.960938 15.359375 -10.90625 17.953125 -9.5625 C 20.554688 -8.21875 23.117188 -7.546875 25.640625 -7.546875 C 28.585938 -7.546875 31.125 -8.4375 33.25 -10.21875 C 35.375 -12 36.4375 -14.578125 36.4375 -17.953125 C 36.4375 -20.816406 35.65625 -23.242188 34.09375 -25.234375 C 32.53125 -27.234375 30.515625 -29.035156 28.046875 -30.640625 C 25.578125 -32.253906 22.972656 -33.835938 20.234375 -35.390625 C 17.503906 -36.953125 14.898438 -38.6875 12.421875 -40.59375 C 9.953125 -42.507812 7.9375 -44.769531 6.375 -47.375 C 4.8125 -49.976562 4.03125 -53.097656 4.03125 -56.734375 C 4.03125 -62.285156 5.894531 -66.773438 9.625 -70.203125 C 13.351562 -73.628906 18.257812 -75.34375 24.34375 -75.34375 C 28.15625 -75.34375 31.363281 -74.84375 33.96875 -73.84375 C 36.570312 -72.851562 38.566406 -72.359375 39.953125 -72.359375 C 40.648438 -72.359375 41.171875 -72.578125 41.515625 -73.015625 L 42.171875 -55.046875 L 41.640625 -54.921875 C 40.253906 -58.648438 38.039062 -61.707031 35 -64.09375 C 31.96875 -66.476562 28.71875 -67.671875 25.25 -67.671875 C 22.644531 -67.671875 20.382812 -66.929688 18.46875 -65.453125 C 16.5625 -63.984375 15.609375 -61.726562 15.609375 -58.6875 C 15.609375 -56.09375 16.390625 -53.859375 17.953125 -51.984375 C 19.515625 -50.117188 21.507812 -48.425781 23.9375 -46.90625 C 26.375 -45.394531 28.976562 -43.859375 31.75 -42.296875 C 34.53125 -40.734375 37.132812 -38.972656 39.5625 -37.015625 C 41.988281 -35.066406 43.984375 -32.769531 45.546875 -30.125 C 47.109375 -27.476562 47.890625 -24.25 47.890625 -20.4375 C 47.890625 -15.570312 46.757812 -11.535156 44.5 -8.328125 C 42.25 -5.117188 39.320312 -2.734375 35.71875 -1.171875 C 32.125 0.390625 28.332031 1.171875 24.34375 1.171875 Z M 24.34375 1.171875 "/></g></g></g><g clip-path="url(#e0cb663b91)"><path fill="#2fa8bd" d="M 514.519531 560.464844 C 510.574219 560.464844 506.597656 560.640625 502.679688 560.160156 C 501.289062 559.980469 499.847656 559.777344 498.609375 559.117188 C 498.554688 559.074219 498.484375 559.03125 498.429688 558.992188 C 498.375 558.949219 498.304688 558.910156 498.25 558.882812 L 498.03125 558.757812 L 497.921875 558.6875 L 497.8125 558.632812 L 497.589844 558.511719 L 497.371094 558.398438 L 497.152344 558.289062 C 497.082031 558.25 497 558.222656 496.917969 558.179688 L 496.683594 558.085938 C 496.378906 557.960938 496.0625 557.835938 495.746094 557.738281 C 495.597656 557.683594 495.429688 557.644531 495.265625 557.601562 L 495.019531 557.546875 L 494.769531 557.492188 C 493.917969 557.3125 493.039062 557.230469 492.15625 557.257812 C 491.277344 557.285156 490.398438 557.394531 489.542969 557.601562 C 487.824219 558.015625 486.175781 558.773438 484.691406 559.777344 C 483.945312 560.285156 483.246094 560.847656 482.597656 561.46875 L 482.558594 561.507812 L 482.597656 561.550781 C 483.246094 562.167969 483.949219 562.734375 484.691406 563.242188 C 486.175781 564.246094 487.824219 565.003906 489.542969 565.414062 C 490.410156 565.621094 491.277344 565.746094 492.15625 565.757812 C 493.039062 565.785156 493.90625 565.703125 494.769531 565.523438 L 495.019531 565.46875 L 495.265625 565.414062 C 495.429688 565.375 495.582031 565.332031 495.746094 565.277344 C 496.0625 565.179688 496.378906 565.070312 496.683594 564.945312 L 496.917969 564.851562 C 497 564.824219 497.066406 564.78125 497.152344 564.742188 L 497.261719 564.6875 L 497.371094 564.628906 L 497.589844 564.519531 L 497.8125 564.398438 L 497.921875 564.34375 L 498.03125 564.273438 L 498.25 564.148438 C 498.25 564.148438 498.359375 564.082031 498.429688 564.039062 C 498.5 563.996094 498.554688 563.941406 498.621094 563.902344 C 499.859375 563.253906 501.304688 563.050781 502.679688 562.871094 C 506.597656 562.390625 510.585938 562.566406 514.519531 562.566406 C 566.164062 562.527344 752.769531 562.566406 752.769531 562.566406 L 752.769531 560.503906 C 752.769531 560.503906 566.164062 560.53125 514.519531 560.503906 Z M 514.519531 560.464844 " fill-opacity="1" fill-rule="nonzero"/></g><g clip-path="url(#e4af3d5ebf)"><path fill="#2fa8bd" d="M 460.167969 565.605469 C 460.113281 565.195312 460.03125 564.796875 459.933594 564.398438 C 459.835938 563.996094 459.699219 563.613281 459.546875 563.242188 C 459.535156 563.199219 459.519531 563.171875 459.507812 563.132812 C 459.328125 563.308594 459.136719 563.488281 458.945312 563.652344 C 458.542969 563.984375 458.105469 564.285156 457.636719 564.535156 C 457.167969 564.78125 456.675781 564.988281 456.164062 565.125 C 455.65625 565.261719 455.148438 565.359375 454.625 565.414062 C 454.117188 565.457031 453.59375 565.457031 453.085938 565.414062 C 452.574219 565.375 452.082031 565.289062 451.585938 565.179688 C 451.089844 565.070312 450.609375 564.917969 450.140625 564.753906 C 449.671875 564.574219 449.21875 564.382812 448.78125 564.148438 C 448.558594 564.039062 448.339844 563.914062 448.132812 563.777344 L 447.96875 563.683594 L 447.816406 563.585938 C 447.722656 563.515625 447.609375 563.449219 447.515625 563.378906 C 447.183594 563.160156 446.867188 562.910156 446.550781 562.664062 C 446.359375 562.871094 446.179688 563.089844 445.988281 563.308594 C 445.628906 563.75 445.300781 564.203125 444.996094 564.6875 C 446.277344 565.867188 447.460938 567.105469 448.613281 568.332031 C 449.234375 568.992188 449.851562 569.636719 450.484375 570.269531 L 450.9375 570.722656 C 451.023438 570.792969 451.089844 570.875 451.171875 570.945312 L 451.40625 571.148438 C 451.722656 571.425781 452.054688 571.6875 452.382812 571.933594 C 452.714844 572.179688 453.058594 572.402344 453.414062 572.59375 C 453.773438 572.785156 454.128906 572.953125 454.488281 573.074219 C 454.84375 573.199219 455.203125 573.28125 455.558594 573.324219 L 455.820312 573.324219 C 455.820312 573.324219 455.863281 573.351562 455.890625 573.351562 L 456.207031 573.351562 C 456.207031 573.351562 456.289062 573.335938 456.332031 573.324219 L 456.453125 573.324219 C 456.453125 573.324219 456.496094 573.296875 456.507812 573.296875 L 456.5625 573.296875 C 456.894531 573.210938 457.210938 573.089844 457.5 572.925781 C 457.511719 572.925781 457.539062 572.910156 457.554688 572.894531 L 457.609375 572.855469 L 457.71875 572.785156 C 457.71875 572.785156 457.761719 572.757812 457.773438 572.746094 L 457.828125 572.703125 L 457.941406 572.621094 C 457.941406 572.621094 457.980469 572.59375 457.996094 572.582031 L 458.050781 572.539062 L 458.160156 572.457031 L 458.257812 572.359375 L 458.3125 572.320312 L 458.367188 572.265625 L 458.460938 572.167969 L 458.558594 572.058594 L 458.601562 572.003906 L 458.640625 571.949219 L 458.738281 571.835938 L 458.820312 571.726562 L 458.859375 571.671875 L 458.902344 571.617188 L 458.984375 571.507812 L 459.066406 571.382812 C 459.273438 571.066406 459.453125 570.722656 459.605469 570.367188 C 459.753906 570.007812 459.878906 569.625 459.976562 569.238281 C 460.070312 568.851562 460.140625 568.453125 460.179688 568.042969 C 460.222656 567.644531 460.238281 567.230469 460.238281 566.816406 C 460.238281 566.609375 460.222656 566.40625 460.210938 566.199219 C 460.195312 565.992188 460.167969 565.785156 460.140625 565.59375 Z M 460.167969 565.605469 " fill-opacity="1" fill-rule="nonzero"/></g><path fill="#2fa8bd" d="M 456.605469 559.722656 C 456.277344 559.542969 455.917969 559.40625 455.558594 559.292969 C 455.203125 559.183594 454.816406 559.117188 454.433594 559.089844 C 454.046875 559.058594 453.648438 559.058594 453.25 559.089844 C 452.851562 559.117188 452.453125 559.183594 452.066406 559.265625 C 451.28125 559.445312 450.511719 559.734375 449.785156 560.105469 C 449.605469 560.203125 449.425781 560.296875 449.246094 560.410156 L 449.125 560.492188 L 449 560.574219 C 448.917969 560.628906 448.820312 560.683594 448.738281 560.738281 C 448.546875 560.875 448.351562 561.011719 448.160156 561.152344 C 448.351562 561.300781 448.546875 561.441406 448.738281 561.5625 C 448.820312 561.617188 448.917969 561.671875 449 561.730469 L 449.125 561.8125 L 449.246094 561.894531 C 449.425781 562.003906 449.605469 562.101562 449.785156 562.195312 C 450.511719 562.566406 451.28125 562.871094 452.066406 563.035156 C 452.464844 563.117188 452.851562 563.1875 453.25 563.214844 C 453.648438 563.242188 454.035156 563.242188 454.433594 563.214844 C 454.816406 563.171875 455.203125 563.105469 455.558594 563.007812 C 455.929688 562.910156 456.277344 562.761719 456.605469 562.582031 C 456.9375 562.402344 457.25 562.195312 457.539062 561.949219 C 457.828125 561.703125 458.105469 561.425781 458.351562 561.136719 C 458.105469 560.835938 457.84375 560.558594 457.539062 560.324219 C 457.25 560.078125 456.9375 559.871094 456.605469 559.691406 Z M 456.605469 559.722656 " fill-opacity="1" fill-rule="nonzero"/><g clip-path="url(#fdc2bdcfad)"><path fill="#2fa8bd" d="M 446.550781 559.679688 C 446.867188 559.433594 447.183594 559.183594 447.515625 558.964844 C 447.609375 558.894531 447.722656 558.828125 447.816406 558.757812 L 447.96875 558.660156 L 448.132812 558.566406 C 448.339844 558.441406 448.558594 558.316406 448.78125 558.195312 C 449.21875 557.960938 449.671875 557.769531 450.140625 557.589844 C 450.609375 557.410156 451.089844 557.273438 451.585938 557.164062 C 452.082031 557.050781 452.574219 556.96875 453.085938 556.929688 C 453.59375 556.886719 454.101562 556.886719 454.625 556.929688 C 455.148438 556.96875 455.65625 557.066406 456.164062 557.21875 C 456.675781 557.355469 457.167969 557.5625 457.636719 557.808594 C 458.105469 558.054688 458.542969 558.359375 458.945312 558.6875 C 459.136719 558.855469 459.328125 559.03125 459.507812 559.210938 C 459.519531 559.171875 459.535156 559.144531 459.546875 559.101562 C 459.699219 558.730469 459.824219 558.332031 459.933594 557.945312 C 460.03125 557.546875 460.113281 557.148438 460.167969 556.734375 L 460.195312 556.585938 L 460.195312 556.433594 L 460.222656 556.351562 L 460.222656 556.28125 C 460.222656 556.28125 460.238281 556.1875 460.238281 556.132812 C 460.25 555.9375 460.25 555.730469 460.25 555.539062 C 460.25 555.140625 460.207031 554.753906 460.140625 554.355469 C 460.003906 553.574219 459.753906 552.816406 459.382812 552.128906 C 459.011719 551.441406 458.53125 550.851562 457.953125 550.410156 C 457.664062 550.191406 457.363281 550.011719 457.03125 549.886719 C 456.703125 549.761719 456.371094 549.679688 456.015625 549.652344 C 455.835938 549.640625 455.65625 549.640625 455.476562 549.652344 C 455.300781 549.652344 455.121094 549.679688 454.941406 549.722656 C 454.761719 549.75 454.582031 549.789062 454.390625 549.847656 C 454.351562 549.847656 454.292969 549.875 454.253906 549.886719 C 454.210938 549.902344 454.171875 549.914062 454.117188 549.929688 C 454.019531 549.96875 453.921875 549.996094 453.828125 550.039062 C 453.070312 550.328125 452.355469 550.726562 451.652344 551.207031 C 450.953125 551.675781 450.292969 552.226562 449.632812 552.804688 C 448.972656 553.378906 448.324219 554 447.664062 554.617188 C 447.335938 554.933594 447.003906 555.25 446.660156 555.554688 C 446.578125 555.636719 446.496094 555.703125 446.402344 555.789062 C 446.316406 555.871094 446.222656 555.9375 446.140625 556.019531 L 445.628906 556.476562 C 445.339844 556.734375 445.039062 556.984375 444.75 557.246094 C 445.121094 557.863281 445.535156 558.46875 445.988281 559.03125 C 446.167969 559.253906 446.359375 559.472656 446.550781 559.679688 Z M 446.550781 559.679688 " fill-opacity="1" fill-rule="nonzero"/></g><path fill="#2fa8bd" d="M 443.085938 558.675781 C 442.152344 559.460938 441.1875 560.242188 440.210938 560.984375 C 440.238281 561 440.265625 561.011719 440.28125 561.027344 C 441.050781 561.535156 441.808594 562.074219 442.550781 562.621094 C 442.726562 562.761719 442.921875 562.910156 443.113281 563.050781 C 443.195312 563.117188 443.277344 563.171875 443.359375 563.242188 C 443.664062 562.789062 443.980469 562.363281 444.324219 561.933594 C 444.542969 561.671875 444.765625 561.414062 444.984375 561.164062 C 444.75 560.917969 444.53125 560.65625 444.324219 560.394531 C 443.882812 559.84375 443.472656 559.265625 443.101562 558.675781 Z M 443.085938 558.675781 " fill-opacity="1" fill-rule="nonzero"/><path fill="#2fa8bd" d="M 475.035156 559.128906 C 474.511719 558.59375 474.003906 557.945312 473.535156 557.175781 C 473.300781 556.792969 473.066406 556.378906 472.847656 555.9375 C 472.640625 555.5 472.4375 555.03125 472.257812 554.535156 C 472.214844 554.425781 472.175781 554.300781 472.132812 554.191406 L 472.105469 554.191406 L 471.941406 554.164062 C 471.832031 554.152344 471.71875 554.125 471.597656 554.109375 C 471.144531 554.039062 470.675781 553.984375 470.207031 553.957031 C 470.082031 553.957031 469.972656 553.945312 469.851562 553.929688 C 469.726562 553.929688 469.617188 553.929688 469.492188 553.929688 L 468.777344 553.929688 C 468.296875 553.929688 467.828125 553.957031 467.347656 554.011719 C 467.125 554.039062 466.90625 554.066406 466.6875 554.09375 L 466.492188 554.8125 C 466.191406 555.953125 465.777344 557.011719 465.269531 557.988281 C 464.816406 558.839844 464.308594 559.570312 463.757812 560.1875 C 463.316406 560.683594 462.835938 561.136719 462.328125 561.523438 L 462.355469 561.523438 C 462.355469 561.523438 462.382812 561.5625 462.394531 561.578125 C 462.53125 561.671875 462.65625 561.785156 462.753906 561.867188 C 462.78125 561.894531 462.820312 561.921875 462.847656 561.949219 L 462.875 561.949219 L 462.90625 561.988281 C 463.152344 562.210938 463.46875 562.511719 463.769531 562.871094 C 464.320312 563.488281 464.828125 564.21875 465.285156 565.070312 C 465.792969 566.046875 466.207031 567.105469 466.507812 568.246094 L 466.699219 568.964844 C 466.921875 568.992188 467.140625 569.019531 467.359375 569.046875 C 467.828125 569.101562 468.308594 569.113281 468.789062 569.128906 C 469.273438 569.128906 469.738281 569.128906 470.207031 569.085938 C 470.675781 569.058594 471.144531 569.003906 471.597656 568.933594 C 471.707031 568.921875 471.832031 568.894531 471.941406 568.878906 L 472.105469 568.851562 L 472.132812 568.851562 C 472.175781 568.730469 472.214844 568.617188 472.257812 568.507812 C 472.4375 568.015625 472.640625 567.546875 472.847656 567.105469 C 473.066406 566.667969 473.289062 566.253906 473.535156 565.867188 C 474.015625 565.097656 474.527344 564.453125 475.035156 563.914062 C 476.066406 562.84375 477.125 562.238281 478.019531 561.90625 C 478.761719 561.632812 479.410156 561.550781 479.875 561.535156 C 479.394531 561.507812 478.761719 561.425781 478.019531 561.152344 C 477.125 560.835938 476.066406 560.214844 475.035156 559.144531 Z M 475.035156 559.128906 " fill-opacity="1" fill-rule="nonzero"/><g clip-path="url(#50be26fa9f)"><path fill="#2fa8bd" d="M 333.167969 559.777344 C 331.683594 558.773438 330.035156 558.015625 328.3125 557.601562 C 327.449219 557.394531 326.566406 557.273438 325.699219 557.257812 C 324.820312 557.230469 323.953125 557.3125 323.101562 557.492188 L 322.976562 557.519531 L 322.855469 557.546875 L 322.605469 557.601562 C 322.441406 557.644531 322.289062 557.683594 322.125 557.738281 C 321.808594 557.835938 321.492188 557.945312 321.191406 558.085938 L 320.957031 558.179688 C 320.875 558.207031 320.804688 558.25 320.734375 558.289062 L 320.515625 558.398438 L 320.296875 558.511719 L 320.074219 558.632812 L 319.964844 558.6875 L 319.855469 558.757812 L 319.636719 558.882812 C 319.636719 558.882812 319.527344 558.949219 319.457031 558.992188 C 319.402344 559.03125 319.347656 559.074219 319.277344 559.117188 C 318.027344 559.777344 316.582031 559.980469 315.207031 560.160156 C 311.289062 560.640625 307.300781 560.464844 303.367188 560.464844 C 251.722656 560.503906 65.117188 560.464844 65.117188 560.464844 L 65.117188 562.527344 C 65.117188 562.527344 251.722656 562.5 303.367188 562.527344 C 307.3125 562.527344 311.289062 562.347656 315.207031 562.828125 C 316.582031 562.992188 318.011719 563.214844 319.265625 563.859375 C 319.332031 563.914062 319.386719 563.957031 319.457031 563.996094 C 319.511719 564.039062 319.582031 564.082031 319.636719 564.109375 L 319.855469 564.230469 L 319.964844 564.300781 L 320.074219 564.355469 L 320.296875 564.480469 L 320.734375 564.699219 C 320.820312 564.742188 320.886719 564.769531 320.957031 564.808594 L 321.191406 564.90625 C 321.492188 565.03125 321.808594 565.152344 322.125 565.234375 C 322.277344 565.289062 322.441406 565.332031 322.605469 565.375 L 322.855469 565.429688 L 322.976562 565.457031 L 323.101562 565.484375 C 323.953125 565.664062 324.835938 565.746094 325.714844 565.71875 C 326.59375 565.691406 327.476562 565.578125 328.328125 565.375 C 330.046875 564.960938 331.699219 564.203125 333.183594 563.199219 C 333.925781 562.691406 334.625 562.128906 335.273438 561.507812 L 335.316406 561.46875 L 335.273438 561.425781 C 334.625 560.808594 333.925781 560.242188 333.183594 559.734375 Z M 333.167969 559.777344 " fill-opacity="1" fill-rule="nonzero"/></g><g clip-path="url(#47a7f61ef3)"><path fill="#2fa8bd" d="M 371.320312 562.664062 C 371.003906 562.910156 370.6875 563.160156 370.359375 563.378906 C 370.261719 563.449219 370.152344 563.515625 370.054688 563.585938 L 369.90625 563.683594 L 369.738281 563.777344 C 369.53125 563.902344 369.3125 564.027344 369.09375 564.148438 C 368.652344 564.382812 368.199219 564.574219 367.730469 564.753906 C 367.265625 564.933594 366.78125 565.070312 366.289062 565.179688 C 365.792969 565.289062 365.296875 565.375 364.789062 565.414062 C 364.277344 565.457031 363.769531 565.457031 363.246094 565.414062 C 362.726562 565.375 362.214844 565.277344 361.707031 565.125 C 361.199219 564.988281 360.703125 564.78125 360.234375 564.535156 C 359.769531 564.285156 359.328125 563.984375 358.929688 563.652344 C 358.738281 563.488281 358.542969 563.308594 358.367188 563.132812 C 358.351562 563.171875 358.335938 563.199219 358.324219 563.242188 C 358.171875 563.613281 358.050781 564.011719 357.9375 564.398438 C 357.84375 564.796875 357.761719 565.195312 357.707031 565.605469 C 357.675781 565.8125 357.648438 566.019531 357.636719 566.210938 C 357.621094 566.417969 357.609375 566.625 357.609375 566.832031 C 357.609375 567.242188 357.609375 567.65625 357.664062 568.054688 C 357.703125 568.453125 357.773438 568.851562 357.871094 569.25 C 357.964844 569.636719 358.089844 570.023438 358.242188 570.378906 C 358.394531 570.738281 358.570312 571.082031 358.777344 571.398438 L 358.859375 571.519531 L 358.941406 571.632812 L 359.027344 571.742188 L 359.109375 571.851562 L 359.203125 571.960938 L 359.246094 572.015625 L 359.285156 572.070312 L 359.382812 572.179688 L 359.535156 572.332031 L 359.589844 572.375 L 359.6875 572.46875 L 359.796875 572.550781 L 359.851562 572.59375 C 359.851562 572.59375 359.890625 572.621094 359.90625 572.636719 L 360.015625 572.71875 L 360.070312 572.757812 C 360.070312 572.757812 360.113281 572.785156 360.125 572.800781 L 360.234375 572.867188 L 360.289062 572.910156 C 360.289062 572.910156 360.332031 572.9375 360.34375 572.9375 C 360.648438 573.101562 360.949219 573.226562 361.28125 573.296875 L 361.335938 573.296875 C 361.335938 573.296875 361.378906 573.308594 361.390625 573.324219 L 361.515625 573.324219 C 361.515625 573.324219 361.597656 573.351562 361.636719 573.351562 L 361.953125 573.351562 C 361.953125 573.351562 361.996094 573.351562 362.023438 573.351562 L 362.285156 573.351562 C 362.640625 573.296875 363 573.210938 363.359375 573.074219 C 363.714844 572.953125 364.074219 572.785156 364.429688 572.59375 C 364.789062 572.402344 365.132812 572.179688 365.460938 571.933594 C 365.792969 571.6875 366.121094 571.425781 366.4375 571.148438 L 366.671875 570.945312 C 366.753906 570.875 366.824219 570.804688 366.90625 570.722656 L 367.359375 570.269531 C 367.992188 569.636719 368.613281 568.992188 369.230469 568.332031 C 370.398438 567.105469 371.570312 565.867188 372.847656 564.6875 C 372.542969 564.203125 372.214844 563.75 371.855469 563.308594 C 371.679688 563.089844 371.484375 562.871094 371.292969 562.664062 Z M 371.320312 562.664062 " fill-opacity="1" fill-rule="nonzero"/></g><path fill="#2fa8bd" d="M 368.75 560.492188 L 368.625 560.410156 C 368.445312 560.296875 368.269531 560.203125 368.089844 560.105469 C 367.359375 559.734375 366.589844 559.433594 365.804688 559.265625 C 365.40625 559.183594 365.023438 559.117188 364.621094 559.089844 C 364.222656 559.058594 363.839844 559.058594 363.441406 559.089844 C 363.054688 559.128906 362.671875 559.199219 362.3125 559.292969 C 361.953125 559.390625 361.597656 559.542969 361.265625 559.722656 C 360.9375 559.898438 360.621094 560.105469 360.332031 560.351562 C 360.042969 560.601562 359.769531 560.875 359.519531 561.164062 C 359.769531 561.46875 360.03125 561.742188 360.332031 561.976562 C 360.621094 562.222656 360.9375 562.429688 361.265625 562.609375 C 361.597656 562.789062 361.953125 562.925781 362.3125 563.035156 C 362.683594 563.144531 363.054688 563.214844 363.441406 563.242188 C 363.824219 563.269531 364.222656 563.269531 364.621094 563.242188 C 365.023438 563.214844 365.421875 563.144531 365.804688 563.0625 C 366.589844 562.882812 367.359375 562.59375 368.089844 562.222656 C 368.269531 562.128906 368.445312 562.03125 368.625 561.921875 L 368.75 561.839844 L 368.871094 561.757812 C 368.957031 561.703125 369.050781 561.644531 369.132812 561.589844 C 369.328125 561.453125 369.519531 561.316406 369.710938 561.179688 C 369.519531 561.027344 369.328125 560.890625 369.132812 560.765625 C 369.050781 560.710938 368.957031 560.65625 368.871094 560.601562 L 368.75 560.519531 Z M 368.75 560.492188 " fill-opacity="1" fill-rule="nonzero"/><g clip-path="url(#e9ba62d6ae)"><path fill="#2fa8bd" d="M 357.648438 556.28125 L 357.648438 556.433594 L 357.675781 556.585938 L 357.707031 556.734375 C 357.761719 557.148438 357.84375 557.546875 357.9375 557.945312 C 358.035156 558.34375 358.171875 558.730469 358.324219 559.101562 C 358.335938 559.144531 358.351562 559.171875 358.367188 559.210938 C 358.542969 559.03125 358.738281 558.855469 358.929688 558.6875 C 359.328125 558.359375 359.769531 558.054688 360.234375 557.808594 C 360.703125 557.5625 361.199219 557.355469 361.707031 557.21875 C 362.214844 557.078125 362.726562 556.984375 363.246094 556.929688 C 363.757812 556.886719 364.277344 556.886719 364.789062 556.929688 C 365.296875 556.96875 365.792969 557.050781 366.289062 557.164062 C 366.78125 557.273438 367.265625 557.425781 367.730469 557.589844 C 368.199219 557.769531 368.652344 557.960938 369.09375 558.195312 C 369.3125 558.304688 369.53125 558.429688 369.738281 558.566406 L 369.90625 558.660156 L 370.054688 558.757812 C 370.152344 558.828125 370.261719 558.894531 370.359375 558.964844 C 370.6875 559.183594 371.003906 559.433594 371.320312 559.679688 C 371.511719 559.472656 371.691406 559.253906 371.886719 559.03125 C 372.339844 558.46875 372.75 557.878906 373.136719 557.246094 C 372.832031 556.984375 372.546875 556.734375 372.257812 556.476562 L 371.746094 556.019531 C 371.664062 555.9375 371.570312 555.871094 371.484375 555.789062 C 371.402344 555.703125 371.308594 555.636719 371.226562 555.554688 C 370.878906 555.238281 370.550781 554.921875 370.21875 554.617188 C 369.558594 554 368.914062 553.378906 368.253906 552.804688 C 367.59375 552.226562 366.917969 551.675781 366.230469 551.207031 C 365.53125 550.738281 364.816406 550.328125 364.058594 550.039062 C 363.964844 549.996094 363.867188 549.96875 363.769531 549.929688 C 363.730469 549.914062 363.675781 549.902344 363.632812 549.886719 C 363.589844 549.875 363.535156 549.859375 363.496094 549.847656 C 363.316406 549.789062 363.136719 549.75 362.945312 549.722656 C 362.765625 549.695312 362.585938 549.667969 362.410156 549.652344 C 362.230469 549.652344 362.050781 549.652344 361.871094 549.652344 C 361.527344 549.679688 361.183594 549.761719 360.855469 549.886719 C 360.523438 550.011719 360.222656 550.191406 359.933594 550.410156 C 359.355469 550.851562 358.875 551.441406 358.503906 552.128906 C 358.132812 552.816406 357.882812 553.574219 357.746094 554.355469 C 357.675781 554.742188 357.636719 555.140625 357.636719 555.539062 C 357.636719 555.730469 357.636719 555.9375 357.648438 556.132812 C 357.648438 556.1875 357.648438 556.226562 357.648438 556.28125 Z M 357.648438 556.28125 " fill-opacity="1" fill-rule="nonzero"/></g><path fill="#2fa8bd" d="M 373.5625 560.394531 C 373.34375 560.65625 373.121094 560.917969 372.902344 561.164062 C 373.136719 561.414062 373.355469 561.671875 373.5625 561.933594 C 373.90625 562.363281 374.222656 562.789062 374.527344 563.242188 C 374.609375 563.171875 374.691406 563.117188 374.773438 563.050781 C 374.964844 562.910156 375.144531 562.761719 375.335938 562.621094 C 376.078125 562.074219 376.835938 561.535156 377.605469 561.027344 L 377.675781 560.984375 C 376.683594 560.242188 375.734375 559.472656 374.800781 558.675781 C 374.429688 559.265625 374.015625 559.84375 373.578125 560.394531 Z M 373.5625 560.394531 " fill-opacity="1" fill-rule="nonzero"/><path fill="#2fa8bd" d="M 354.117188 560.175781 C 353.566406 559.554688 353.054688 558.8125 352.601562 557.972656 C 352.09375 556.996094 351.679688 555.9375 351.378906 554.796875 L 351.1875 554.082031 C 350.964844 554.054688 350.746094 554.027344 350.527344 554 C 350.058594 553.945312 349.578125 553.929688 349.09375 553.917969 L 348.378906 553.917969 C 348.257812 553.917969 348.148438 553.917969 348.023438 553.929688 C 347.898438 553.929688 347.789062 553.945312 347.664062 553.957031 C 347.199219 553.984375 346.730469 554.039062 346.277344 554.109375 C 346.167969 554.125 346.042969 554.152344 345.933594 554.164062 L 345.765625 554.191406 L 345.738281 554.191406 C 345.699219 554.316406 345.65625 554.425781 345.617188 554.535156 C 345.4375 555.03125 345.230469 555.5 345.023438 555.9375 C 344.804688 556.378906 344.585938 556.792969 344.351562 557.175781 C 343.871094 557.945312 343.359375 558.59375 342.851562 559.128906 C 341.820312 560.203125 340.761719 560.808594 339.867188 561.136719 C 339.125 561.414062 338.476562 561.496094 338.011719 561.507812 C 338.492188 561.535156 339.125 561.617188 339.867188 561.894531 C 340.761719 562.210938 341.820312 562.828125 342.851562 563.902344 C 343.375 564.4375 343.882812 565.085938 344.351562 565.855469 C 344.585938 566.238281 344.816406 566.652344 345.023438 567.09375 C 345.230469 567.53125 345.4375 568 345.617188 568.496094 C 345.65625 568.605469 345.699219 568.730469 345.738281 568.839844 L 345.765625 568.839844 L 345.933594 568.867188 C 346.042969 568.878906 346.167969 568.90625 346.277344 568.921875 C 346.730469 568.992188 347.199219 569.046875 347.664062 569.074219 C 348.132812 569.113281 348.613281 569.113281 349.082031 569.113281 C 349.5625 569.101562 350.03125 569.074219 350.511719 569.03125 C 350.730469 569.003906 350.953125 568.976562 351.171875 568.949219 L 351.363281 568.234375 C 351.667969 567.09375 352.078125 566.035156 352.589844 565.070312 C 353.042969 564.21875 353.550781 563.476562 354.101562 562.871094 C 354.417969 562.511719 354.734375 562.210938 354.96875 561.988281 L 354.996094 561.960938 L 355.023438 561.960938 C 355.023438 561.960938 355.09375 561.894531 355.121094 561.867188 C 355.214844 561.785156 355.339844 561.671875 355.476562 561.578125 C 355.492188 561.578125 355.503906 561.550781 355.519531 561.550781 L 355.546875 561.550781 C 355.023438 561.152344 354.542969 560.695312 354.117188 560.203125 Z M 354.117188 560.175781 " fill-opacity="1" fill-rule="nonzero"/><path fill="#2fa8bd" d="M 379.3125 560.972656 L 408.9375 562.195312 L 438.5625 560.972656 L 408.9375 559.734375 Z M 379.3125 560.972656 " fill-opacity="1" fill-rule="nonzero"/><path fill="#2fa8bd" d="M 447.125 455.65625 L 435.925781 455.65625 C 437.824219 453.382812 439.585938 451.007812 441.210938 448.527344 C 442.835938 446.050781 444.3125 443.488281 445.640625 440.84375 C 446.972656 438.195312 448.144531 435.480469 449.160156 432.695312 C 450.175781 429.914062 451.03125 427.082031 451.71875 424.199219 C 452.410156 421.320312 452.933594 418.40625 453.285156 415.464844 C 453.640625 412.523438 453.824219 409.574219 453.839844 406.609375 C 453.851562 403.648438 453.695312 400.695312 453.371094 397.75 C 453.042969 394.804688 452.546875 391.890625 451.886719 389 C 451.886719 389 464.71875 410.949219 447.125 455.65625 Z M 447.125 455.65625 " fill-opacity="1" fill-rule="nonzero"/><g clip-path="url(#3fee8d650f)"><path fill="#2fa8bd" d="M 335.308594 397.886719 C 335.308594 397.886719 326.964844 358.574219 343.695312 350.234375 C 343.695312 350.234375 292.683594 337.355469 291.007812 311.417969 C 289.328125 285.480469 307.738281 289.199219 307.738281 289.199219 C 307.738281 289.199219 282.664062 269.113281 146.40625 264.078125 C 10.148438 259.046875 0.0820312 232.339844 0.0820312 232.339844 C 0.0820312 232.339844 11.78125 266.617188 131.578125 277.683594 C 251.375 288.746094 254.460938 299.402344 254.460938 299.402344 C 242.113281 298.960938 229.855469 299.792969 217.6875 301.894531 C 217.6875 301.894531 286.699219 304.390625 302.117188 351.503906 C 294.929688 351.957031 287.933594 353.347656 281.121094 355.671875 C 281.121094 355.671875 314.449219 350.234375 335.308594 397.886719 Z M 335.308594 397.886719 " fill-opacity="1" fill-rule="nonzero"/></g><path fill="#2fa8bd" d="M 210.75 301.171875 C 210.75 301.171875 164.589844 293.734375 128.632812 301.171875 C 92.671875 308.605469 78.480469 311.191406 53.40625 310.238281 C 66.472656 313.777344 79.753906 316.039062 93.253906 317.023438 C 106.753906 318.007812 120.222656 317.695312 133.664062 316.089844 C 180.457031 311.054688 205.894531 328.511719 205.894531 328.511719 C 198.144531 327.921875 163.273438 324.75 101.878906 349.507812 C 101.878906 349.507812 121.964844 340.4375 161.234375 349.507812 C 200.5 358.574219 237.363281 358.574219 250.785156 353.589844 C 250.785156 353.589844 205.441406 367.917969 198.867188 390.496094 C 198.867188 390.496094 244.847656 358.757812 284.160156 390.496094 C 278.5625 391.761719 273.160156 393.609375 267.960938 396.039062 C 262.761719 398.46875 257.882812 401.429688 253.324219 404.917969 C 253.324219 404.917969 300.121094 392.402344 334.398438 449.21875 C 334.398438 449.21875 325.332031 362.609375 241.582031 367.871094 C 244.191406 366.558594 246.675781 365.035156 249.03125 363.308594 C 251.386719 361.578125 253.585938 359.667969 255.621094 357.574219 C 257.660156 355.476562 259.507812 353.226562 261.171875 350.824219 C 262.832031 348.421875 264.28125 345.894531 265.523438 343.25 C 265.523438 343.25 225.210938 355.945312 193.925781 341.390625 C 193.925781 341.390625 221.539062 336.355469 240.765625 339.710938 C 240.765625 339.710938 216.507812 312.960938 158.828125 307.109375 C 158.785156 307.109375 174.203125 299.355469 210.75 301.171875 Z M 210.75 301.171875 " fill-opacity="1" fill-rule="nonzero"/><g clip-path="url(#5f738fe63c)"><path fill="#2fa8bd" d="M 474.691406 397.886719 C 474.691406 397.886719 483.035156 358.574219 466.441406 350.234375 C 466.441406 350.234375 517.453125 337.355469 519.128906 311.417969 C 520.808594 285.480469 502.398438 289.199219 502.398438 289.199219 C 502.398438 289.199219 527.335938 269.113281 663.640625 264.078125 C 799.941406 259.046875 809.917969 232.339844 809.917969 232.339844 C 809.917969 232.339844 798.128906 266.617188 678.648438 277.683594 C 559.167969 288.746094 555.765625 299.402344 555.765625 299.402344 C 568.113281 298.960938 580.371094 299.792969 592.539062 301.894531 C 592.539062 301.894531 523.574219 304.390625 508.109375 351.503906 C 515.296875 351.957031 522.292969 353.347656 529.105469 355.671875 C 529.105469 355.671875 495.550781 350.234375 474.691406 397.886719 Z M 474.691406 397.886719 " fill-opacity="1" fill-rule="nonzero"/></g><path fill="#2fa8bd" d="M 599.25 301.171875 C 599.25 301.171875 645.410156 293.734375 681.367188 301.171875 C 717.328125 308.605469 731.519531 311.191406 756.59375 310.238281 C 743.527344 313.777344 730.246094 316.039062 716.746094 317.023438 C 703.246094 318.007812 689.777344 317.695312 676.335938 316.089844 C 629.542969 311.054688 604.101562 328.511719 604.101562 328.511719 C 611.855469 327.921875 646.726562 324.75 708.121094 349.507812 C 708.121094 349.507812 688.035156 340.4375 648.765625 349.507812 C 609.5 358.574219 572.636719 358.574219 559.214844 353.589844 C 559.214844 353.589844 604.558594 367.917969 611.132812 390.496094 C 611.132812 390.496094 565.152344 358.757812 525.839844 390.496094 C 531.449219 391.722656 536.863281 393.527344 542.082031 395.910156 C 547.304688 398.296875 552.214844 401.207031 556.808594 404.644531 C 556.808594 404.644531 509.96875 392.355469 475.507812 449.171875 C 475.507812 449.171875 484.578125 362.566406 568.328125 367.824219 C 565.703125 366.523438 563.203125 365.011719 560.832031 363.289062 C 558.460938 361.570312 556.246094 359.664062 554.195312 357.570312 C 552.140625 355.480469 550.277344 353.230469 548.601562 350.828125 C 546.921875 348.425781 545.457031 345.898438 544.203125 343.25 C 544.203125 343.25 584.515625 355.945312 615.800781 341.390625 C 615.800781 341.390625 588.1875 336.355469 568.960938 339.710938 C 568.960938 339.710938 593.222656 312.960938 650.898438 307.109375 C 651.261719 307.109375 635.796875 299.355469 599.25 301.171875 Z M 599.25 301.171875 " fill-opacity="1" fill-rule="nonzero"/><path fill="#2fa8bd" d="M 452.835938 310.101562 C 452.355469 309.929688 451.855469 309.839844 451.34375 309.835938 C 450.832031 309.832031 450.332031 309.910156 449.84375 310.074219 C 449.359375 310.238281 448.914062 310.480469 448.507812 310.796875 C 448.105469 311.113281 447.765625 311.484375 447.488281 311.917969 C 441.5 322.300781 437.058594 320.625 437.058594 320.625 C 437.058594 320.625 440.777344 320.625 443.496094 314.636719 C 447.488281 306.160156 448.664062 307.382812 448.664062 307.382812 C 448.328125 306.746094 447.933594 306.148438 447.488281 305.582031 C 447.042969 305.019531 446.554688 304.496094 446.015625 304.019531 C 445.476562 303.542969 444.898438 303.117188 444.285156 302.742188 C 443.671875 302.367188 443.027344 302.050781 442.359375 301.789062 C 441.6875 301.53125 441 301.332031 440.292969 301.195312 C 439.585938 301.054688 438.875 300.984375 438.15625 300.972656 C 437.433594 300.960938 436.71875 301.015625 436.011719 301.132812 C 435.300781 301.25 434.605469 301.429688 433.929688 301.667969 L 432.023438 302.441406 L 429.984375 301.535156 C 421.824219 298.222656 411.394531 297.632812 393.710938 306.066406 C 374.300781 315.136719 387.359375 346.878906 387.359375 346.878906 C 356.121094 372.722656 365.414062 450.578125 365.414062 450.578125 C 359.75 433.796875 356.726562 416.550781 356.347656 398.839844 C 355.800781 372.722656 372.441406 339.894531 373.804688 325.703125 C 373.886719 324.734375 373.890625 323.765625 373.808594 322.796875 C 373.722656 321.832031 373.558594 320.875 373.3125 319.9375 C 373.066406 318.996094 372.738281 318.085938 372.335938 317.203125 C 371.929688 316.320312 371.453125 315.480469 370.902344 314.679688 C 370.351562 313.878906 369.738281 313.128906 369.058594 312.4375 C 368.378906 311.742188 367.644531 311.109375 366.855469 310.542969 C 366.066406 309.976562 365.238281 309.480469 364.363281 309.054688 C 363.488281 308.632812 362.585938 308.285156 361.652344 308.019531 C 361.652344 308.019531 351.855469 309.875 392.167969 298.949219 C 421.914062 291.015625 430.847656 294.640625 432.976562 297.996094 C 436.703125 297.261719 440.363281 297.519531 443.949219 298.765625 C 444.410156 298.949219 444.851562 299.175781 445.265625 299.449219 L 446.488281 300.21875 C 449.453125 302.96875 451.570312 306.265625 452.835938 310.101562 Z M 452.835938 310.101562 " fill-opacity="1" fill-rule="nonzero"/><path fill="#2fa8bd" d="M 396.429688 356.261719 C 396.429688 356.261719 364.28125 408.089844 408.175781 455.65625 L 378.699219 455.65625 C 375.988281 446.769531 374.421875 437.683594 374.007812 428.402344 C 373.59375 419.117188 374.339844 409.929688 376.253906 400.835938 C 377.699219 392.679688 380.128906 384.828125 383.546875 377.285156 C 386.960938 369.738281 391.257812 362.730469 396.429688 356.261719 Z M 396.429688 356.261719 " fill-opacity="1" fill-rule="nonzero"/></svg>